<svg xmlns="http://www.w3.org/2000/svg" width="99" height="124" viewBox="0 0 99 124"><g><g><path fill="#ef5b5b" d="M81.796 74.884h-.001c.294.638.415 1.295.272 2.022-.265 1.251.286 2.316.668 3.42.119.335.4.536.639.768.406.397.516.929.295 1.434-.325.722-.295 1.43-.241 2.19.07 1.051.01 2.108.227 3.155.141.656-.075 1.33-.387 1.895a10.419 10.419 0 0 1-1.16 1.67c-.405.465-.893.824-1.49 1.026-1.117.373-2.106.995-2.8 2.1-.5.806-1.32 1.24-1.895 1.971-.126.167-.304.282-.446.437-.303.349-.37.763-.216 1.22.057.165.155.31.206.478.498 1.435 1.05 2.86.626 4.464-.051.203-.058.44-.035.652.13.962-.376 1.485-1.038 1.87-.31.182-.662.275-1.002.395a4.413 4.413 0 0 0-1.45.882c-.317.283-.352.438-.142 1 .136.351.136.693.065 1.034-.193.945-.416 1.882-.633 2.822-.1.445-.32.813-.68 1.038-.623.384-.97 1.017-1.291 1.686-.145.31-.27.637-.433.938-.289.528-.54 1.09-.9 1.55-.847 1.103-1.742 2.158-2.624 3.226-.46.554-1.03.96-1.593 1.367-.27.189-.545.364-.87.39-.515.049-1.039.052-1.42.532-.754.122-1.47.663-2.282.243-.327-.17-.685-.162-1.048-.074a1.51 1.51 0 0 1-.7.01c-.46-.117-.856-.007-1.226.3-.122.108-.267.226-.415.242-.865.106-1.707.287-2.528.644-.19.086-.468 0-.687-.086-.562-.189-.927-.834-1.566-.86-.059-.004-.147-.215-.15-.323-.008-.51-.185-.935-.415-1.354-.265-.481-.336-.95-.017-1.48.34-.565.247-1.207-.07-1.753-.69-1.202-1.148-2.502-1.583-3.83-.27-.838-.681-1.577-1.272-2.202-.794-.842-1.31-1.835-1.45-3.092-.112-.953-.451-1.874-.451-2.857a.992.992 0 0 0-.087-.384c-.36-.823-.39-1.703-.36-2.59.034-.912-.17-1.716-.64-2.484a16.239 16.239 0 0 1-1.379-2.919 10.528 10.528 0 0 0-1.378-2.616c-.41-.583-.603-1.217-.616-1.951-.013-1.285-.052-2.551.45-3.765.178-.428.21-.937.318-1.406.276-1.209.6-2.386 1.554-3.18.287-.249.44-.623.51-1.018.064-.39.125-.788.182-1.179.068-.451-.003-.864-.251-1.248-.497-.79-.757-1.638-.493-2.617.06-.203.074-.463.005-.651-.281-.773-.34-1.645-.774-2.35a4.895 4.895 0 0 1-.668-1.82c-.152-.987-.616-1.757-1.203-2.522-.823-1.069-1.835-1.933-2.603-3.056a7.766 7.766 0 0 1-.814-1.596c-.186-.49-.202-.919.098-1.369.368-.548.46-1.244.484-1.882.043-.935.271-1.816.444-2.711.043-.215.08-.433.104-.647.077-.618-.136-1.132-.513-1.556-.713-.797-1.47-1.414-2.598-1.104-.414.11-.846.174-1.268.285-.936.249-1.536-.067-1.875-1.078-.187-.543-.39-1.052-.746-1.489-.281-.336-.613-.578-1.026-.59-1.497-.044-3.004-.096-4.38.767-.067.042-.138.094-.215.106-1.313.2-2.41 1.048-3.65 1.486-.349.121-.678.208-1.033.07-.187-.07-.38-.129-.566-.188-1.904-.642-3.769-.407-5.546.474-.832.415-1.545.433-2.375.056-.891-.403-1.721-.868-2.383-1.661-.32-.392-.69-.73-1.13-.953a1.77 1.77 0 0 1-.484-.372c-.593-.678-1.276-1.176-2.098-1.441-.14-.045-.327-.134-.389-.265-.27-.628-.813-1.113-.848-1.862-.047-.822-.456-1.439-.984-1.89-.482-.415-.75-1.028-1.204-1.428-.449-.391-.805-.822-1.045-1.4-.094-.21-.334-.21-.521-.26l-.05-.051c-.131-.099-.261-.194-.387-.302-.932-.78-.946-.812-.953-2.067 0-.478.204-.945-.014-1.429-.199-.446-.557-.738-.773-1.102-.045-.191.004-.306.099-.398.662-.622 1.05-1.391 1.155-2.37.046-.474.253-.927.388-1.385.335-1.129.44-2.242-.112-3.327a.897.897 0 0 1-.046-.758c.264-.686.17-1.303-.308-1.817-.73-.795-.615-1.689-.174-2.542.353-.687.69-1.378.98-2.106.206-.524.444-1.055.782-1.474a6.254 6.254 0 0 0 1.244-2.658c.133-.668.444-1.228.999-1.573.478-.3.717-.8.906-1.345.254-.706.68-1.165 1.377-1.294.68-.124 1.258-.49 1.748-1.044.188-.21.443-.357.668-.535.493-.4.84-.919 1.122-1.517.19-.409.28-.813.17-1.268-.23-1.006-.023-1.917.487-2.77.17-.289.302-.614.427-.935.358-.939.934-1.623 1.768-2.042.105-.055.212-.116.322-.166 1.133-.468 1.755-1.437 2.124-2.666.126-.42.269-.83.427-1.232.21-.537.818-.844 1.22-.234.443.67 1.058.855 1.778.813.707-.038 1.41 0 2.112.197.607.163 1.181.008 1.616-.553.234-.31.486-.594.852-.694.656-.185 1.233-.544 1.798-.961a3.16 3.16 0 0 1 1.9-.645c.518 0 1.007-.147 1.507-.3.64-.202 1.312-.289 1.973-.4.364-.058.716.05 1.04.21.395.192.797.19 1.142-.036.853-.554 1.764-.369 2.647-.307.729.046 1.41.067 2.055-.369.133-.091.288-.143.438-.207.446-.17.869-.128 1.192.284.25.335.49.507.915.346.292-.102.49.294.322.609-.096.182-.228.351-.352.52-.398.572-.398.621-.019 1.262.618 1.028.554 1.69-.254 2.536-.23.245-.483.452-.705.706-.143.157-.207.382-.071.597.099.153.264.264.408.194.418-.209.67-.114.818.382.107.36.385.533.687.686.714.372 1.394.749 2.257.555.524-.116 1.086.148 1.602.39.29.133.569.308.862.431.44.18.727.496.882.994.264.85.812 1.22 1.617 1.28 1.01.064 1.908.52 2.709 1.21.06.055.118.116.181.167.338.28.695.431 1.102.197.484-.28.837-.678.842-1.324.005-.354-.058-.7-.082-1.05-.04-.623.187-1.104.616-1.495 1.267-1.161 2.863-1.167 4.09.048.504.504 1.12.634 1.72.812.455.133.932.171 1.3.57.179.189.432.18.674.189.95.033 1.872.24 2.77.616.593.248 1.213.396 1.812.608.288.095.55.063.8-.095.176-.103.349-.21.51-.341.82-.665 1.758-.722 2.723-.624.224.023.486.08.661.225.7.565 1.454.598 2.264.475.664-.105.75-.035.985.61.1.287.16.593.27.872.576 1.374.476 2.731-.005 4.111-.171.48-.358.745-.862.63-.25-.06-.393.149-.312.373.717 2.05 1.404 4.123 2.617 5.892.212.303.31.586.23.973-.153.729.08 1.28.65 1.68 1.185.832 1.566 2.145 1.665 3.603.05.748-.016 1.497.166 2.235.106.444.246.823.645 1.046 1.04.584 1.529 1.594 1.773 2.817.134.686.192 1.402.593 1.987.18.264.333.269.552-.006.045-.063.067-.162.122-.223.123-.138.303-.077.374.105.077.21.146.411.065.638-.147.425.058.663.36.862.197.14.392.294.608.399.41.196.716.516 1.016.877.591.712 1.227 1.373 1.84 2.058.165.182.342.365.488.569.223.328.365.708.183 1.11-.183.392-.054.66.194.935.161.186.31.4.442.613.49.748 1.153.944 1.892.665.645-.248 1.26-.485 1.955-.297.234.07.455-.094.662-.228a2.725 2.725 0 0 1 1.11-.42c.972-.16 1.94-.379 2.914-.562.357-.07.68-.225.99-.423.131-.087.282-.15.436-.184.31-.065.65.221.679.568.03.35.025.703.047 1.053.03.529.136 1.063-.292 1.478-.082.075-.117.24-.131.363-.087 1.015-.638 1.78-1.062 2.628-.522 1.034-.961 2.113-1.424 3.186-.124.275-.16.627-.335.837-1.115 1.365-1.82 3.104-3.162 4.251-.217.184-.375.45-.552.688-.322.464-.722.848-1.2 1.05-1.27.53-2.132 1.638-3.089 2.609-.552.56-1.002 1.242-1.5 1.865-.735.918-1.475 1.833-2.311 2.646-.277.268-.46.586-.6.96-.322.857-.668 1.694-1.125 2.472-.353.6-.495 1.298-.658 1.976-.098.39.053.685.392.845l-.006-.011zm-10.789-7.435c-.052.547.041.651.622.766.19.04.37.12.552.186.23.081.463.1.697.045.158-.039.364-.12.331-.296-.1-.577.268-.879.509-1.26.224-.364.387-.767.475-1.192.17-.808-.305-1.417-1.02-1.31-.388.064-.77.153-1.15.26-.499.15-.816.505-.87 1.106-.046.564-.094 1.125-.146 1.695zm3.263 16.875c.293.835.338 1.862.81 2.744.016.03.08.062.1.046.051-.036.144-.113.138-.15-.181-.982-.403-1.972-.158-2.97.136-.541.136-1.005-.093-1.51-.117-.264-.129-.592-.171-.892-.053-.351-.11-.695-.304-.983-.059-.088-.187-.178-.28-.17-.14.016-.155.18-.105.295.378.918.291 1.88.214 2.836-.016.211-.085.423-.151.754zm-6.951-13.476c.18.738-.242 1.454.028 2.182.152.412.187.845.246 1.28.048.34.151.679.266.998.14.384.408.637.75.79.06.028.162.023.216-.017.107-.094.089-.237.03-.346-.084-.148-.17-.303-.287-.411-.433-.382-.646-.836-.565-1.481.042-.332-.018-.7-.097-1.034-.166-.652-.185-1.36-.587-1.96zM44.895 42.751c.017.441.048.914.43 1.131.345.19.667-.09.968-.283.138-.09.247-.244.187-.424a.429.429 0 0 0-.242-.24c-.374-.102-.753-.168-1.067-.464-.118-.104-.283.074-.276.28zm27.238-27.165c.324 1.13.324 1.13.745 1.44-.078-.502-.204-.946-.745-1.44zm15.084 85.472c-.035-.596.148-1.115.415-1.618.347-.645.648-1.32.976-1.966.245-.486.327-.995.14-1.524-.276-.788-.298-1.637-.44-2.452a2.063 2.063 0 0 1 .158-1.278c.123-.276.248-.553.342-.839.123-.356.314-.587.638-.719.411-.162.792-.477 1.208-.53 1.062-.16 1.663-1.034 2.395-1.718.429-.404.597-.918.774-1.45.087-.266.187-.453.439-.57.511-.241.8-.7.836-1.332 0-.08.016-.172.033-.256.154-.587.592-.75.992-.36.427.412.698.933.821 1.561.199 1.033.288 2.09.622 3.093.081.252.053.523-.022.776-.071.223-.178.447-.405.404-.388-.08-.503.067-.453.482.028.261.046.54-.012.788-.534 2.065-.892 4.181-1.501 6.235-.587 1.961-1.203 3.918-1.556 5.96-.066.384-.224.75-.351 1.119-.252.742-.663 1.263-1.431 1.39-.377.067-.74.303-1.098.484-.429.22-.821.159-1.238-.093-1.085-.66-1.765-1.604-1.77-3.038 0-.496-.09-.962-.306-1.395-.183-.356-.212-.751-.206-1.154z"/></g></g></svg>