<svg xmlns="http://www.w3.org/2000/svg" width="60" height="60" viewBox="0 0 60 60"><g><g><path fill="#00b1ff" d="M59.302 25.284L25.286 59.301a1.786 1.786 0 0 1-2.526 0l-5.438-5.437a1.789 1.789 0 0 1 .138-2.652 6.176 6.176 0 0 0 .485-9.16 6.174 6.174 0 0 0-9.105.42 1.786 1.786 0 0 1-2.705.205L.697 37.239a1.786 1.786 0 0 1 0-2.526L34.714.696a1.786 1.786 0 0 1 2.526 0l5.437 5.437c.647.648.701 1.678.125 2.389a6.15 6.15 0 0 0 .436 8.24 6.15 6.15 0 0 0 8.239.435 1.786 1.786 0 0 1 2.388.125l5.437 5.436c.698.699.698 1.83 0 2.526zm-22.969 8.787V32.27a.433.433 0 0 0-.222-.378l-1.254-.696v-.567a.691.691 0 0 0-1.356-.186l-1.055-.586v-.524a.69.69 0 0 0-1.344-.223l-.936-.52c-.07-1.342-.195-2.571-.37-3.592-.14-.81-.304-1.452-.49-1.907-.093-.232-.38-.936-.966-.936-.588 0-.874.704-.968.936-.185.455-.349 1.098-.488 1.907-.175 1.02-.301 2.25-.37 3.591l-.937.521a.69.69 0 0 0-1.344.223v.524l-1.055.586a.691.691 0 0 0-1.356.186v.567l-1.254.696a.433.433 0 0 0-.222.378v1.8c0 .141.068.272.182.354.114.08.26.101.392.056l5.553-1.937c.05 1.73.193 3.327.41 4.598.04.23.082.447.126.65l-2.891 1.606a.236.236 0 0 0-.121.206v.978a.233.233 0 0 0 .312.221l3.379-1.177c.155.195.368.359.652.359.283 0 .495-.164.65-.36l3.38 1.178c.025.01.051.014.077.014a.234.234 0 0 0 .235-.235v-.978a.236.236 0 0 0-.12-.206l-2.892-1.606c.044-.203.085-.42.125-.65.218-1.271.36-2.867.411-4.598l5.553 1.937a.436.436 0 0 0 .392-.056.436.436 0 0 0 .182-.353zm11.714-7.394L33.323 11.953a1.862 1.862 0 1 0-2.635 2.633l14.724 14.725a1.863 1.863 0 0 0 2.634-2.634z"/></g></g></svg>