<svg xmlns="http://www.w3.org/2000/svg" width="134" height="144" viewBox="0 0 134 144"><g><g><path fill="#ef5b5b" d="M40.99 46.077c-.24-.186-.498-.255-.747-.05-.352.294-.725.133-1.099.092-.144-.01-.238-.156-.233-.313a4.15 4.15 0 0 0-.221-1.316.773.773 0 0 1 .025-.436c.13-.393.177-.812.359-1.197.22-.469.273-.948-.026-1.416a.614.614 0 0 1-.108-.269c-.063-.462-.259-.847-.519-1.195-.166-.217-.194-.436-.065-.683.06-.107.107-.227.124-.35.058-.32.241-.52.474-.69.094-.071.187-.131.282-.203.57-.455.7-.827.54-1.607-.024-.12-.057-.238-.087-.359a.734.734 0 0 1 .017-.437c.308.033.49.24.548.561.1.511.189 1.028.089 1.555-.047.243-.083.49-.13.736-.04.197-.048.392.03.584.1.238.11.472.017.721-.058.163.023.303.153.368.183.094.377.164.568.22.169.056.353.083.525.123.3.067.624.074.877.573.024-.485-.074-.682-.312-.777-.346-.133-.633-.384-.901-.633-.312-.294-.397-.713-.413-1.144 0-.06.065-.142.11-.175.054-.024.142-.026.188.007.091.073.166.168.232.267.271.433.347.29.654.1.078-.046.153-.11.218-.17.137-.13.143-.319-.01-.44-.159-.117-.307-.214-.237-.466.034-.125-.053-.15-.142-.199-.258-.135-.3-.253-.17-.489.058-.108.125-.212.199-.302.26-.297.626-.28.775.098.11.286.246.369.494.363.377-.01.689.152.973.427.344.321.697.616.956 1.04.23.382.56.56.983.422.131-.04.266-.045.397-.033.18.021.317.242.272.443-.079.31-.16.627-.433.815-.213.148-.287.36-.283.634.014.373.008.752 0 1.127 0 .158.047.283.125.41.087.142.136.313.202.474.07.165-.091.468.146.502.17.026.176-.294.324-.425.272-.246.295-.606.242-.961-.034-.295-.083-.597-.219-.858-.219-.412-.183-.813-.023-1.221.042-.116.093-.228.13-.345.086-.334.034-.614-.234-.786-.415-.26-.717-.582-.833-1.112-.035-.147-.172-.225-.3-.282-.124-.056-.255-.087-.378-.135-.23-.093-.377-.275-.438-.533-.064-.29-.117-.583-.053-.886a1.141 1.141 0 0 0-.172-.917c-.305-.467-.134-.952.03-1.42.047-.145.195-.193.327-.245a2.952 2.952 0 0 1 1.32-.21c.364.023.707-.034 1.054-.14.286-.083.555-.197.857-.163.14.021.253-.068.376-.135.16-.09.324-.16.496-.228.313-.128.468-.352.472-.71 0-.2-.048-.41-.23-.509-.238-.114-.401-.294-.53-.546-.065-.11-.212-.173-.318-.26-.126-.11-.119-.318.033-.351.23-.05.255-.193.29-.407.059-.33.177-.364.485-.258.239.086.329.067.447-.153.148-.278.323-.553.095-.89-.05-.058.015-.134.082-.168.04-.023.089-.046.129-.04.389.09.625-.147.843-.46.124-.172.282-.323.426-.476.048-.054.087-.144.148-.153.635-.124 1.048-.837 1.737-.825.514-.237 1.07-.353 1.56-.657.157-.097.164-.21.016-.336-.03-.032-.082-.04-.118-.075-.13-.128-.111-.296.046-.334.522-.118 1.022-.346 1.563-.318.115.004.218-.028.332-.052.146-.04.146-.136.081-.275-.069-.145.006-.24.126-.284.24-.084.489-.033.731.012.123.032.174.261.08.37-.075.087-.175.15-.252.236-.154.172-.11.398.077.484.283.124.571.069.853.005.096-.026.138-.114.196-.192.162-.208.32-.415.501-.594.241-.235.413-.234.666-.023.09.073.166.169.254.245.067.058.148.134.225.032.07-.106.106-.242.03-.35-.07-.092-.177-.146-.266-.225-.117-.112-.238-.223-.304-.389-.073-.167-.008-.315.151-.31.153 0 .312.023.465.023.178-.009.36-.011.538-.059a.717.717 0 0 0 .493-.964c-.134-.351-.064-.617.042-.929.124-.353.265-.685.46-.997.266-.401.537-.801.768-1.227.27-.486.706-.667 1.144-.845.224-.09.454.034.62.212.21.232.425.426.742.44.153.009.183.19.243.327.123.304.034.511-.184.707-.188.174-.36.374-.526.58-.082.108-.187.21-.176.383.042.013.09.043.118.022.537-.356 1.044-.085 1.533.12.455.19.565.585.29 1.012-.224.348-.383.728-.597 1.08.385.202.756.105.966-.258.048-.082.085-.178.125-.268.177-.403.177-.4.59-.364a1.3 1.3 0 0 0 .395-.023c.179-.045.348-.063.52.036.13.065.26.049.395.02.496-.12.931-.023 1.274.43.053.065.16.089.241.13.129-.263.243-.366.36-.305.189.085.306.41.218.61-.03.071-.108.114-.165.066-.14-.109-.27-.237-.406-.36.034.2.1.39.243.53.212.212.305.474.335.78.023.227.111.328.313.144.075-.073.17 0 .218.09a1 1 0 0 1 .1.279c.028.166.034.353.14.487.243.307.214.65.1.987-.088.266-.118.506-.016.79.1.285.015.597-.096.874a3.58 3.58 0 0 1-.772 1.214c-.212.22-.465.382-.624.664-.065.118-.202.112-.29.173-.514.36-1.027.718-1.28 1.377a1.166 1.166 0 0 1-.436.56c-.295.2-.502.49-.638.844-.046.11-.105.215-.16.33-.11.244-.28.39-.529.384-.336-.007-.543.164-.666.5-.075.214-.184.418-.382.502-.255.112-.367.35-.455.612-.107.295-.123.465-.018.434.163-.047.163-.208.195-.354.046-.226.176-.348.377-.342.556.022 1.055-.157 1.54-.445.181-.106.376-.16.494-.358.037-.056.107-.113.16-.113.111-.005.222.05.323-.04.25-.208.49-.42.697-.71-.2.069-.395.144-.596.205-.154.05-.273-.04-.305-.203-.078-.327.1-.813.358-.969a.441.441 0 0 1 .39-.044.794.794 0 0 0 .523-.003c.273-.083.29-.052.283.272-.01.436.159.665.515.712.365.048.516-.083.613-.508.018-.089 0-.195.082-.263.35.44.477.86.43 1.41-.017.17-.08.345.037.5.023.034.074.063.11.058.037-.007.065-.045.094-.086.014-.008.008-.043.008-.07.006-.525.06-.624.494-.639.302-.006.573-.058.826-.233.23-.153.466-.153.714-.07.195.064.388.123.582.182.326.098.65.187.992.178.154 0 .307.033.46.073.118.024.171.172.107.293-.04.087-.113.158-.147.247-.101.265-.056.492.158.658.124.104.266.188.414.245a4.657 4.657 0 0 0 2.629.236c.089-.017.173-.057.255-.09.271-.123.346-.269.312-.576-.006-.077-.03-.146-.046-.22-.086-.376-.048-.742.052-1.107.028-.12.034-.321.14-.308.249.04.314-.314.532-.269.265.06.579.033.755.269.338.436.825.474 1.23.712.115.064.217.035.327.007.518-.137.967-.014 1.31.476.223.313.46.613.688.923.126.161.15.345.113.56-.084.492-.106.976.046 1.473.12.362.042.739-.205 1.048-.064.073-.135.135-.195.207-.229.3-.272.575-.041.877.195.26.282.556.395.851.153.42.402.78.684 1.106.138.155.313.174.477.237.138.057.118.395.336.265.148-.083.138-.3.214-.45.219-.417.34-.85.364-1.344.018-.478.242-.903.433-1.327.033-.085.18-.069.218.03.117.352.286.676.477.983.165.28.4.38.69.361.164-.01.311-.035.405-.205.254-.459.608-.459.993-.261.233.122.451.195.7.054.172-.097.355-.054.53-.052.201.004.408.04.603-.01.284-.06.507-.099.672.267.089.207.283.042.425.005.23-.05.265-.1.212-.354a2.675 2.675 0 0 1 .1-1.595c-.047-.037-.083-.083-.124-.083-.165-.02-.389.083-.45-.191-.063-.308.191-.67.469-.703.177-.023.357-.006.53-.039.288-.037.366-.169.342-.51-.006-.075-.034-.148-.034-.217.005-.155.145-.285.282-.252.065.02.135.032.188.074.36.306.785.323 1.217.338.11.005.222 0 .334.005a5.424 5.424 0 0 1 2.444.69c.36.21.712.355 1.148.3.465-.062.932.06 1.358.328.321.198.48.502.547.89.04.253-.06.38-.331.42-.065.013-.135.003-.193.028-.066.024-.107.093-.094.173.003.047.045.087.074.113a.233.233 0 0 0 .124.047c.32-.005.562.158.77.403.187.23.405.387.705.323.171-.033.302.072.412.204.078.09.156.185.231.269.206.222.271.456.077.729-.071.092-.035.18.046.248.188.152.389.235.625.134.537-.23 1.099-.223 1.651-.257.425-.026.85-.067 1.27-.125.43-.064.85 0 1.275.054.44.052.806.271 1.047.705.13.233.272.46.376.707.145.326.17.671.05 1.023-.05.14-.096.278-.13.424-.048.208 0 .37.178.422.4.13.725.372 1.031.672.117.119.271.119.361-.008.376-.494.889-.508 1.402-.542.064-.006.135-.01.2-.028.166-.048.309 0 .42.15.194.26.437.316.724.237a.92.92 0 0 1 .718.092c.432.245.775.131 1.07-.278a.733.733 0 0 1 .443-.314c-.05-.202-.07-.392.11-.533.183-.138.366-.145.555-.016.13.093.266.18.383.28.155.138.201.318.164.531-.046.278-.245.41-.486.33-.226-.074-.367-.271-.555-.401.065.337.122.677.188 1.013.024.13.094.231.204.285.36.172.62.463.821.847.123.231.38.261.584.091.543-.45.568-.96.218-1.646-.311-.225-.406-.487-.14-.84.04-.064.007-.2.023-.292.046-.236.153-.353.366-.36.159-.01.313.017.464.05.155.03.302.086.456.136a6.218 6.218 0 0 0 2.577.255c.39-.039.725.052 1.072.298.484.35 1.015.62 1.534.917.376.22.743.462 1.032.822.243.307.538.527.862.7.246.124.442.3.6.567.19.331.507.549.802.765.282.206.56.405.72.76.065.143.19.21.318.257.155.044.2.17.213.337.006.122.076.18.17.082.16-.158.296-.08.408.057.153.18.283.386.426.571.1.128.087.274.1.423.028.426.134.834.276 1.228.03.072.094.12.164.077a.226.226 0 0 0 .078-.12c.066-.213-.025-.38-.136-.549-.077-.115-.005-.26.119-.26.264 0 .54-.058.767.173.14.14.311.176.499.12.403-.12.696.031.914.425.326.582.797 1.003 1.264 1.435.182.164.182.229-.036.377-.194.14-.366.28-.426.549-.077.36-.341.5-.618.62-.076.036-.177.015-.26.036-.277.065-.425.195-.407.5.012.347-.088.569-.324.763-.155.122-.14.298-.036.464.076.124.183.287.083.408-.146.174-.282.396-.52.449a.321.321 0 0 1-.188-.043c-.253-.159-.541-.239-.729-.525-.138-.206-.35-.303-.568-.372-.484-.153-.756-.514-.83-1.055-.06-.418-.266-.675-.631-.785a.61.61 0 0 0-.52.05c-.184.112-.377.119-.585.049-.175-.06-.322-.149-.4-.356-.13-.333-.424-.599-.295-1.03.023-.073-.214-.198-.276-.147-.1.09-.2.196-.302.292-.123.108-.123.254-.064.4.017.046.04.09.064.132.117.18.248.36.225.608-.037.303-.123.595-.319.81-.33.37-.608.786-1.05 1.028-.212.119-.396.211-.622.136a2.655 2.655 0 0 0-.397-.082c-.094-.015-.171.041-.22.139a.324.324 0 0 0 .012.285c.107.217.277.337.49.348.195.023.272.145.312.329.084.34.164.67.249 1.006.064.266.117.54.265.766.105.172.182.336.1.554-.053.134.07.219.112.332.14.344-.035.846-.36.99-.071.033-.179.02-.253-.012-.123-.044-.244-.132-.354-.207-.414-.262-.827-.231-1.21.042a37.597 37.597 0 0 1-2.5 1.589c-.342.21-.63.572-.883.91-.314.402-.691.726-1.068 1.02-.331.258-.573.526-.697.952-.06.212-.24.238-.36.066-.093-.14-.17-.292-.253-.441a.865.865 0 0 0-.656-.462c-.57-.096-1.06.1-1.484.517-.102.094-.184.224-.29.313-.13.116-.224.394-.412.292-.16-.086.007-.318-.018-.488-.023-.167-.142-.238-.296-.167a1.11 1.11 0 0 0-.577.593c-.053.128-.16.196-.278.13-.176-.106-.347-.03-.518-.015-.347.013-.567.214-.6.574-.068.634-.374 1.12-.674 1.612-.2.335-.37.68-.442 1.08-.03.205.072.304.276.265.091-.02.172-.067.26-.06.347.018.51.321.366.68-.036.09-.094.171-.135.262-.179.361-.196.712.058 1.04.223.297.244.633.152.99-.03.095-.087.174-.189.188-.1.016-.169-.044-.21-.136-.052-.108-.088-.225-.142-.354-.137.181-.27.345-.383.525-.284.458-.419.94-.16 1.476a.91.91 0 0 1 .059.13c.187.497.035.804-.435.791-.318-.007-.555.076-.785.321-.341.363-.579.755-.456 1.317.044.199-.034.332-.21.406a2.329 2.329 0 0 0-.415.243c-.27.205-.465.476-.486.85-.061.913-.615 1.465-1.164 2.02-.137.14-.3.074-.371-.131a2.63 2.63 0 0 1-.124-.884c.005-.38-.018-.745-.164-1.099-.065-.15-.078-.334-.109-.507-.047-.296-.063-.6-.135-.885-.225-.901-.265-1.827-.37-2.739-.089-.785.041-1.543.23-2.293.065-.252.199-.45.39-.59.37-.285.537-.654.493-1.154-.016-.166.049-.3.201-.337.808-.18 1.29-.835 1.788-1.483.136-.17.259-.35.323-.563.131-.418.378-.743.667-1.015.4-.379.719-.825.972-1.325.108-.21.231-.364.426-.452.141-.068.275-.155.418-.242.577-.351.584-.351.733-1.037.105-.506.199-1.018.289-1.529.053-.34.187-.607.465-.774.058-.04.111-.103.088-.181a.195.195 0 0 0-.2-.163c-.409.017-.744.196-.926.619a1.87 1.87 0 0 0-.141 1.093c.046.247-.006.327-.237.335-.246.002-.425.108-.584.299-.295.344-.597.676-.886 1.028-.135.171-.275.32-.463.414-.16.08-.266.03-.295-.156-.014-.07.022-.174-.014-.216-.353-.455-.193-.927-.05-1.4.004-.016-.014-.05-.02-.073-.051-.1-.148-.103-.23-.107-.233-.028-.335-.37-.59-.32-.219.04-.43.118-.648.174-.111.025-.225.025-.336.045-.377.052-.69.272-.85.651-.169.416-.46.73-.649 1.135-.129.288-.353.511-.595.7-.372.286-.49.767-.707 1.167-.054.11.005.248.106.33.126.104.258.187.385.297.123.113.093.375-.055.444-.248.117-.494.26-.772.172a.561.561 0 0 0-.572.096c-.343.287-.771.195-1.145.366-.165.072-.346-.022-.483-.184a.244.244 0 0 1 .071-.366c.13-.073.377.045.377-.203.005-.245-.372-.525-.593-.459-.192.057-.344.053-.516-.056-.068-.048-.166-.066-.247-.104a1.476 1.476 0 0 1-.188-.085c-.36-.185-.591-.123-.743.32-.023.066-.066.13-.096.197-.082.147-.199.218-.342.134-.19-.11-.37-.151-.572-.029-.194.123-.395.05-.582-.027-.225-.084-.426-.1-.607.127-.125.162-.29.128-.42-.015-.19-.215-.424-.245-.678-.25-.472-.016-.937.068-1.398.156-.418.078-.755.348-.996.714-.243.368-.52.68-.814.985-.101.104-.207.213-.253.349-.196.561-.616.917-.98 1.312-.43.474-.843.958-1.164 1.54a4.154 4.154 0 0 1-.937 1.167c-.407.343-.779.748-1.162 1.128-.165.17-.14.354.043.5.112.082.23.156.372.136.11-.017.217-.048.332-.054.158-.01.263.088.28.25.01.122.008.25.01.377.015.132-.08.337.095.37.126.019.108-.193.167-.287a.896.896 0 0 1 .142-.153c.058-.053.205 0 .229.08.065.286.072.58.023.91.368-.05.544-.393.814-.531.018-.009.03-.043.03-.066-.03-.511.296-.372.55-.372.387-.008.7.155.867.57.093.24.241.422.429.561.273.199.406.422.282.814-.082.254-.016.546.036.814.005.034.065.071.1.078a.156.156 0 0 0 .12-.044c.118-.194.14-.417.175-.639.03-.17.037-.35.043-.522.003-.28.081-.482.363-.534.188-.039.237-.209.208-.4-.024-.173-.077-.342-.107-.514-.016-.109.025-.192.114-.24.088-.062.235 0 .275.122.041.115.088.232.094.354.02.402.107.789.201 1.177.102.39.131.796.056 1.19-.085.458-.008.885.098 1.326.261 1.06.508 2.12.76 3.181.015.047-.005.104-.005.17-.182.113-.335-.073-.5-.083-.272-.016-.448.068-.525.351-.123.454-.219.913-.309 1.379a.948.948 0 0 0 .114.646c.171.294.253.646.49.896.117.129.164.291.164.474 0 .07-.013.172-.054.205-.093.08-.152-.02-.204-.102-.043-.056-.073-.13-.12-.177-.212-.212-.39-.171-.542.111-.013.02-.02.043-.03.066-.07.143-.088.348-.289.37-.123.01-.217-.186-.236-.48-.006-.1 0-.199.012-.3.045-.47.09-.947.166-1.411.066-.354.075-.692-.042-1.029-.117-.318-.1-.635-.023-.957a5.076 5.076 0 0 0 .108-1.711 2.131 2.131 0 0 1-.008-.445c.053-.487.023-.94-.266-1.35-.1-.142-.123-.353-.188-.566-.36.519-.638 1.015-.732 1.622-.053.323-.087.631-.03.96.094.498.079.994-.08 1.477-.037.117-.078.24-.085.365-.006.533-.27.923-.56 1.32-.417.58-.831 1.164-1.05 1.897-.145.502-.459.906-.76 1.31-.43.57-.862 1.15-1.285 1.73a.993.993 0 0 0-.146.25c-.225.545-.62.906-1.052 1.236-.561.443-1.133.541-1.751.143-.335-.224-.354-.195-.637.083-.245.247-.511.471-.76.716a5.294 5.294 0 0 0-.38.427c-.187.228-.317.48-.286.81.035.3-.096.507-.31.695-.388.335-.717.739-1.188.957-.385.173-.437.583-.12.91.427.43.675.992 1.01 1.485.253.366.384.785.377 1.261 0 .242.035.498.048.743.016.535-.149.786-.596 1.044-.396.225-.832.333-1.21.617-.176.127-.426.134-.644.177-.144.032-.259-.092-.265-.26-.003-.332.048-.66.178-.947.171-.391.107-.721-.124-1.04-.04-.059-.088-.112-.118-.179-.047-.093-.047-.195.036-.27.064-.066.149-.109.213-.173.117-.113.135-.248.08-.403-.135-.402-.282-.52-.647-.507-.088 0-.176.05-.266.05-.322.014-.588-.404-.437-.729.167-.338.262-.688.295-1.06.02-.17-.047-.286-.199-.34-.885-.328-1.668-.138-2.354.564-.164.18-.345.314-.572.36a.134.134 0 0 1-.116-.046c-.024-.029-.036-.109-.02-.134.13-.186.226-.359.1-.608-.076-.144.018-.29.094-.413.119-.18.257-.353.36-.545a.495.495 0 0 0-.097-.606c-.126-.114-.361-.146-.497.015a9.83 9.83 0 0 1-1.369 1.303.276.276 0 0 0-.077.118c-.18.444-.5.622-.92.613-.171-.003-.306.026-.382.219-.094.222-.088.437.06.627.028.04.05.09.086.112.383.239.663.575.874 1.007.087.196.36.212.542.074.14-.114.272-.26.413-.382.189-.166.394-.238.618-.094.285.164.579.256.903.238.189-.014.313.138.335.303.024.206-.082.426-.27.44-.229.02-.417.161-.637.223-.205.052-.389.16-.483.365-.138.29-.45.327-.596.59-.082.145-.22.252-.314.394-.323.52-.447.706.155 1.036.253.141.402.385.501.67.059.16.116.327.153.495.09.456.26.85.538 1.191.104.129.197.274.276.42.054.096.023.197-.079.24-.126.058-.18.145-.087.279.072.1.156.188.209.295.065.115.065.245-.037.334-.158.132-.318.262-.467.386-.007.236.172.243.266.333.309.282.382.51.259.903-.087.28-.192.556-.3.83a.817.817 0 0 1-.134.253c-.609.712-1.01 1.57-1.393 2.446-.223.51-.542.968-.972 1.296-.02.016-.048.016-.066.032-.341.5-.844.794-1.244 1.207-.302.3-.614.49-.997.557-.242.044-.483.105-.726.169a.795.795 0 0 0-.4.246c-.149.166-.164.15-.301-.116-.041-.066-.11-.16-.143-.104-.13.26-.482.129-.576.447-.054.181-.23.222-.384.267-.347.106-.687.205-1.038.308-.13.036-.26.085-.383.13-.21.078-.352.222-.318.5.023.175.064.356-.124.452-.154.076-.343-.072-.46-.341a5.067 5.067 0 0 1-.07-.208c-.05-.152.065-.39-.16-.443-.246-.056-.45-.259-.763-.154-.642.222-1.19.547-1.553 1.198-.062.104-.156.178-.237.265-.266.242-.331.583-.389.928a.535.535 0 0 0 .1.426c.464.63.815 1.377 1.4 1.89.344.295.653.612.881 1.012.07.13.16.254.201.393.208.793.418 1.581.273 2.426a2.287 2.287 0 0 1-.02.072c-.028 1.094-.205 1.007-.82 1.478-.258.198-.53.372-.838.452-.18.05-.352.125-.434.319-.159.354-.42.575-.702.779-.078.053-.136.13-.213.183-.137.112-.248.36-.45.221-.163-.116-.117-.356-.121-.552-.007-.127.01-.252.016-.375 0-.28-.218-.567-.476-.611-.03-.011-.072.047-.095.086-.072.113-.143.101-.217.01-.172-.222-.302-.483-.568-.613-.085-.045-.147-.191-.179-.304-.14-.46-.457-.724-.765-1.016a.731.731 0 0 0-.494-.205c-.255-.006-.425-.125-.466-.427-.012-.067-.055-.139-.089-.197-.106-.156-.389-.124-.459.044-.02.047-.048.094-.048.14.007.777-.384 1.428-.555 2.145-.046.193-.116.381-.14.578-.037.312 0 .601.33.724.188.064.275.229.336.428.105.332.241.645.343.977.103.36.298.601.616.738.619.266 1.063.813 1.533 1.298.219.224.319.54.326.882 0 .174.006.346-.007.526-.016.459.024.897.35 1.241.034.034.046.083.076.125.207.355.3.722.07 1.115-.04.08-.03.197-.136.238-.388-.417-.878-.65-1.32-.969a3.472 3.472 0 0 1-.937-1.031c-.42-.666-.6-1.385-.673-2.164-.024-.26-.077-.5-.212-.703a46.46 46.46 0 0 0-.896-1.312c-.078-.119-.179-.226-.312-.262-.091-.024-.213-.014-.25-.071a.634.634 0 0 1-.058-.354c.02-.222.065-.44.1-.664.046-.321.13-.63.083-.964-.04-.28.088-.536.148-.803.03-.146-.013-.239-.16-.257-.135-.017-.22-.12-.13-.253.32-.467.237-.95.036-1.416-.354-.82-.589-1.67-.63-2.577-.019-.284-.149-.464-.349-.608-.147-.1-.282-.126-.43.005-.262.239-.527.462-.793.696a.781.781 0 0 1-1.048-.022.369.369 0 0 1-.13-.33c.03-.188.06-.39.107-.582.177-.719.046-1.333-.46-1.833-.087-.083-.201-.169-.195-.295.04-.433-.243-.589-.496-.797-.494-.423-.837-.966-.895-1.691-.023-.281-.094-.533-.272-.745-.141-.165-.347-.19-.466 0-.343.577-.862.742-1.422.85-.307.06-.602.126-.92.024-.383-.113-.842.219-.915.653-.1.603-.382.985-.9 1.188a1.97 1.97 0 0 0-.997.844c-.343.543-.866.862-1.28 1.32-.047.048-.1.1-.157.133-.32.18-.421.594-.699.8-.27.2-.636.228-.842.575-.078.129-.23.137-.353.198-.332.171-.425.358-.39.768.039.4.07.801.14 1.19.06.335.054.66-.07.96-.212.506-.288 1.045-.299 1.6 0 .238-.044.444-.266.551-.044.017-.094.042-.108.082-.225.56-.724.865-1.002 1.37-.058.106-.123.21-.206.292-.212.222-.436.224-.655 0a2.149 2.149 0 0 1-.54-.93 41.952 41.952 0 0 0-.608-1.823 1.143 1.143 0 0 0-.206-.384c-.286-.312-.42-.707-.504-1.122-.181-.918-.624-1.706-1.008-2.529-.2-.42-.371-.845-.39-1.336-.003-.172-.065-.34-.094-.509-.117-.664-.234-1.32-.347-1.984-.013-.074-.025-.161 0-.222.166-.479.042-.933-.071-1.39-.052-.243-.073-.487-.119-.785-.181.179-.175.394-.228.563-.196.632-.908 1-1.41.68-.453-.285-.76-.76-1.073-1.218-.063-.09.017-.25.13-.282.176-.048.347-.08.519-.14.053-.02.103-.103.117-.167.013-.083-.064-.115-.13-.125-.049-.002-.095-.006-.136 0-.47.092-.83-.096-1.107-.523-.026-.034-.061-.068-.084-.11-.181-.3-.571-.33-.7-.677-.124-.331-.355-.575-.513-.87-.148-.276-.357-.366-.625-.32-.225.034-.443.057-.67.09-.263.037-.522.05-.794.032-.44-.028-.897-.024-1.328.083-.453.115-.885.062-1.326-.015-.243-.04-.484-.081-.727-.124-.586-.116-1.184-.231-1.773-.358-.29-.059-.478-.258-.578-.561-.064-.187-.117-.382-.202-.553-.128-.28-.341-.343-.54-.127-.42.484-.952.39-1.451.348-.538-.052-1.029-.337-1.445-.731-.226-.213-.443-.415-.725-.508-.238-.075-.374-.261-.468-.507-.21-.556-.57-1.008-.825-1.538-.088-.188-.206-.32-.424-.288-.266.041-.379-.222-.532-.377-.194 0-.194.204-.27.31-.544.697-.548.61-.19 1.5.25.607.597 1.123 1.027 1.566.277.288.466.604.442 1.041a.59.59 0 0 0 .124.413c.094.128.26.139.344.002.08-.12.133-.254.217-.374.078-.115.266-.073.343.055a.731.731 0 0 1 .087.355c.01.3 0 .596-.036.895-.035.314.219.635.484.576.396-.095.796-.067 1.192-.108.348-.032.619-.217.852-.523.36-.48.756-.922 1.14-1.373.024-.035.09-.061.118-.044.053.031.124.084.13.143.017.219.03.448.017.675-.034.534.196.896.568 1.19.241.187.507.31.796.386.36.095.666.27.86.647.064.13.165.239.26.344.306.362.33.48.147.915a1.786 1.786 0 0 1-.253.44c-.178.227-.343.447-.318.783.011.177-.131.234-.283.25-.474.046-.597.175-.645.639-.003.098.007.2.02.3.017.203-.059.35-.237.4-.37.104-.636.333-.767.744-.047.146-.177.23-.313.263-.328.074-.564.264-.71.613a.447.447 0 0 1-.445.288c-.46-.02-.866.201-1.29.345-.266.095-.52.25-.628.533-.146.394-.44.563-.742.709-.412.191-.837.357-1.267.49-.265.083-.508.174-.69.41a.92.92 0 0 1-.706.377.588.588 0 0 0-.375.14c-.3.263-.647.329-1.007.377-.36.044-.689.135-.99.4-.289.258-.663.283-1.022.268-.418-.013-.607-.192-.72-.639-.08-.361-.156-.724-.248-1.087-.047-.192-.094-.384-.18-.561a.809.809 0 0 1-.07-.574c.203-.744-.119-1.336-.522-1.835a4.05 4.05 0 0 1-.742-1.312c-.177-.531-.453-.974-.938-1.212-.412-.204-.625-.547-.661-1.041-.004-.174-.075-.351-.058-.522.054-.528-.165-.968-.341-1.428-.137-.35-.33-.655-.656-.82-.336-.177-.502-.48-.584-.865-.057-.295-.2-.546-.352-.796-.368-.597-.71-1.215-1.062-1.82-.084-.146-.156-.326-.279-.41-.24-.17-.246-.385-.2-.646.065-.382 0-.743-.113-1.106-.124-.4-.234-.81-.364-1.209-.089-.273-.1-.533.081-.77.201-.25.29-.558.35-.879a5.242 5.242 0 0 1 .626-1.728c.298-.523.47-1.062.357-1.702-.069-.389.096-.786.025-1.178-.155-.12-.32.039-.46-.038-.383-.189-.665-.045-.961.256-.295.296-.703.31-1.079.338-.19.015-.339-.128-.467-.267a2.342 2.342 0 0 0-.802-.532c-.201-.087-.342-.05-.448.182-.148.33-.38.478-.69.495-.16.011-.33-.006-.437-.145-.32-.396-.719-.466-1.163-.42-.174.015-.252-.06-.128-.251-.355-.262-.5-.663-.584-1.103-.03-.165-.182-.204-.288-.285-.326-.228-.343-.323-.133-.632.29-.409.264-.69-.116-1.049-.188-.177-.229-.278-.142-.506.084-.2.19-.395.302-.585.065-.115.184-.179.29-.107.406.256.83.001 1.243.083.195.036.331-.129.473-.255.053-.046.07-.101.082-.185.036-.41.036-.418.312-.423.265 0 .538-.02.802.062.323.114.61.058.86-.223.145-.154.326-.262.49-.399.354-.288.755-.417 1.193-.445.223-.017.44-.021.665-.034.32-.02.602.013.88.249.275.235.612.376.919.579.513.35 1.097.528 1.734.396.277-.059.577-.046.866-.033.61.026.993-.385 1.361-.83.044-.047.085-.136.072-.198-.08-.488-.121-1.011-.578-1.29-.23-.14-.495-.237-.683-.46-.06-.074-.137-.154-.073-.26.03-.052.108-.09.167-.099.222-.033.447.016.655.113.395.179.796.33 1.233.309.311-.017.56.177.797.362.265.203.523.31.866.258.46-.071.896.047 1.107.61.058.14.184.222.307.278.342.148.62.39.857.7.164.22.34.202.516.007.049-.056.097-.107.133-.171.282-.551.4-.336.647.041.064.107.13.21.176.324.171.396.39.726.793.855.05.022.104.097.124.16.027.083-.043.128-.109.135-.234.042-.34.226-.401.45-.052.195-.088.386-.13.582-.036.176-.065.351-.23.438-.223.109-.264.311-.223.554.035.222.048.45.09.669.052.326.21.568.512.613.33.05.561.228.796.487.366.424.85.538 1.362.414.284-.078.566-.151.85-.235.165-.056.376.107.49-.126.087-.193-.03-.389-.06-.58-.054-.343-.129-.689-.095-1.04.04-.327.088-.638-.141-.916-.124-.155.041-.38-.058-.575-.084-.156-.107-.294-.326-.28-.2.01-.272-.113-.295-.316-.03-.28.046-.54.154-.828.207.073.418.137.626.203a.493.493 0 0 0 .392-.014c.214-.102.286-.337.156-.549-.136-.228-.29-.441-.42-.674-.176-.333-.447-.222-.619-.047-.105.109-.123.26-.151.41-.014.057-.066.147-.109.155-.106.023-.152-.084-.187-.172-.114-.257-.16-.539-.094-.804.117-.466.017-.744-.408-.918a.951.951 0 0 1-.595-.835c-.036-.308-.26-.516-.443-.735-.096-.106-.198-.199-.295-.307-.075-.09-.018-.279.089-.302a.872.872 0 0 1 .201-.02c.147.012.306.134.448-.006.112-.11.039-.284.075-.423.037-.14.108-.232.224-.248.184-.023.338-.127.497-.213.077-.041.187-.079.259-.048.466.195.992-.031 1.44.244.017.017.047.01.064.01.134.02.264-.154.218-.295-.03-.092-.064-.202-.124-.254a3.17 3.17 0 0 1-.76-1.129c-.054-.131-.153-.24-.23-.362-.207-.303-.466-.48-.815-.416-.227.042-.442-.009-.654-.096-.183-.083-.36-.062-.495.099-.242.301-.561.384-.89.461-.255.057-.55.062-.638.45-.03.123-.171.151-.282.102a2.368 2.368 0 0 1-.303-.167c-.134-.095-.146-.258-.034-.382.048-.046.112-.075.16-.13a.547.547 0 0 0 .123-.165c.107-.33-.235-1.006-.547-1.08a1.08 1.08 0 0 0-.272-.004c-.182 0-.283-.112-.36-.285-.06-.133-.095-.312-.188-.387-.348-.269-.279-.593-.131-.923.108-.232.154-.453.108-.715-.048-.252.027-.494.152-.709.075-.125.14-.254.195-.389.195-.49.324-.506.62-.072.064.098.117.21.182.312.053.088.123.141.224.106.095-.032.148-.12.136-.23-.012-.148-.041-.295-.065-.444-.023-.162.016-.298.147-.384a1.41 1.41 0 0 0 .437-.457.663.663 0 0 1 .311-.272c.253-.115.473-.285.649-.52.16-.21.372-.257.606-.205.114.023.249.09.325.04.509-.318.952.137 1.421.146.094 0 .19.125.273.208.148.146.288.308.438.464.046.046.11.142.145.132.37-.106.562.236.828.391.169.102.352.095.499-.06.338-.345.706-.499 1.168-.378.1.024.217-.033.33-.052.283-.052.532-.019.69.302.107.229.32.238.514.304.195.073.341.033.487-.123.144-.153.286-.036.438.007.432.116.744-.136.809-.629.017-.109-.017-.205-.102-.255-.197-.112-.4-.214-.6-.328-.242-.14-.454-.333-.555-.62-.117-.328-.318-.444-.618-.468-.335-.027-.36-.073-.437-.443-.03-.172-.042-.35-.094-.509-.178-.533-.048-.984.253-1.4.17-.23.355-.45.425-.755.011-.047.024-.098.029-.148.017-.096.04-.202-.035-.278-.077-.077-.17-.038-.249.019-.094.065-.177.15-.265.224-.313.252-.778.252-1.044-.034a1.723 1.723 0 0 1-.44-1.067c-.02-.224.198-.436.393-.387.13.033.25.112.378.163.418.151.707-.051.767-.534a1.71 1.71 0 0 0 0-.3c-.013-.2-.114-.328-.282-.358-.138-.02-.273-.01-.404-.033-.369-.057-.56-.245-.63-.658a2.394 2.394 0 0 1 .059-1.112c.195-.615.378-1.243.873-1.652a.186.186 0 0 0 .046-.052c.562-.703.579-1.21.026-1.907-.22-.278-.367-.54-.325-.936.024-.243.045-.434.217-.597a2.11 2.11 0 0 0 .266-.333c.284-.412.365-.849.105-1.315a1.863 1.863 0 0 1-.146-.343c-.059-.205-.059-.4.141-.517.177-.103.184-.27.16-.449-.029-.198-.072-.393-.106-.589-.054-.32-.095-.641-.023-.967.04-.171.04-.355-.048-.506-.147-.244-.111-.482-.014-.716.18-.419.273-.842.138-1.304-.06-.203.024-.396.089-.58.2-.556.389-1.112.358-1.734-.017-.298.142-.5.408-.49.482.014.738-.288.938-.708.123-.27.312-.483.528-.664.196-.163.384-.345.568-.526.29-.283.526-.597.642-1.027.117-.45.39-.787.773-.983.366-.183.655-.422.771-.88.025-.108.12-.21.208-.279.266-.227.314-.53.29-.873-.013-.191-.094-.304-.261-.39-.535-.281-.63-.487-.424-1.105.125-.36.13-.66-.065-.986-.247-.422-.2-.906-.146-1.384a.176.176 0 0 1 .266-.132c.194.12.382.249.577.377.053.04.094.11.147.15.685.477 1.32 1.005 1.868 1.672.226.274.35.217.467-.153.064-.208.117-.431.165-.646.023-.101.007-.213-.07-.274-.367-.316-.465-.782-.615-1.225-.128-.395-.376-.606-.76-.557-.148.017-.225-.056-.218-.193.024-.383-.082-.806.225-1.126.053-.057.053-.189.053-.285-.02-.403.041-.798.081-1.193.036-.29.02-.308-.272-.36-.27-.054-.34-.13-.264-.375.06-.188.124-.359.072-.576-.054-.262.052-.48.252-.644a6.23 6.23 0 0 0 .414-.378c.376-.382.613-.853.719-1.41.107-.589.241-1.17.335-1.76.055-.355.195-.66.337-.976.084-.203.237-.309.438-.245.37.11.753.092 1.13.09.231 0 .437.056.65.155.39.177.56.46.614.952.1.973-.143 1.836-.525 2.663-.137.3-.131.52.046.745.68.89.696 1.898.424 2.951a1.161 1.161 0 0 0-.023.446c.11.64.124 1.286.053 1.937-.024.195-.004.398-.016.596-.024.37.058.696.304.951.049.056.09.115.137.17.249.274.318.614.164.96-.164.378-.204.755-.193 1.162.005.254-.065.48-.207.69-.259.407-.518.812-.684 1.276a.496.496 0 0 1-.216.274c-.108.061-.178.155-.163.299.026.278-.152.392-.318.52-.217.167-.436.278-.666.036-.058-.057-.13-.055-.164.028a.28.28 0 0 0 .017.286c.07.112.188.148.295.123.343-.076.667-.027.992.1.228.09.335.03.392-.238.062-.271.203-.434.383-.582.132-.105.25-.215.38-.321.243-.202.413-.464.447-.802.036-.345.172-.617.383-.852.41-.443.45-.957.225-1.509-.107-.283-.196-.553-.164-.866.03-.33.14-.567.406-.725.5-.301 1.024-.482 1.602-.456a.956.956 0 0 0-.323-.368zm.403.87c.311.417.471.874.466 1.415 0 .072.07.13.148.093.2-.09.33-.271.295-.439-.078-.338-.153-.67-.254-1-.03-.11-.12-.209-.196-.287a1.102 1.102 0 0 0-.536-.281c.025.171-.003.386.077.499zm.602 2.655a2.781 2.781 0 0 0-.005-.01.672.672 0 0 1-.01-.005l.002.01.013.005zm-.124-.421c-.019-.055-.065-.074-.089-.04a.214.214 0 0 0-.023.137c.006.161.1.249.22.31-.034-.136-.068-.272-.108-.407zm.417.785c.102.041.25.077.303-.022.094-.172-.083-.172-.166-.2-.14-.062-.286-.095-.43-.142.08.143.145.302.293.364zm-34.95 53.956c.175-.274.175-.517.193-.75.004-.073-.048-.143-.118-.149-.07-.01-.118.048-.143.12a.49.49 0 0 0-.018.141l.085.638zm84.147-63.655c-.024-.037-.036-.088-.066-.106a4.384 4.384 0 0 0-.336-.233c-.053-.033-.13-.038-.163.04-.013.033 0 .096.022.129.101.159.206.314.413.297.064-.005.118-.042.13-.127zm-17.81 97.279c-.37-.12-.655-.054-.943.104-.26.15-.326.12-.497-.156-.124-.2-.253-.33-.478-.36-.129-.012-.254-.07-.376-.127a.71.71 0 0 0-.527-.012c-.187.068-.387.106-.584.147-.11.022-.228.009-.299-.103-.17-.26-.406-.283-.661-.267-.087.006-.176-.008-.265-.02a.427.427 0 0 1-.354-.306c-.08-.255-.187-.512-.223-.776-.055-.445-.196-.8-.484-1.121-.395-.446-.46-1.506-.177-2.044.158-.304.293-.356.603-.25.123.042.252.095.383.119.376.07.513.202.7-.409.143-.445.432-.688.85-.73.33-.04.579-.215.767-.523.1-.16.265-.284.352-.45.25-.462.633-.688 1.075-.815a.584.584 0 0 0 .33-.217c.23-.306.49-.578.665-.927.078-.15.195-.278.308-.396.136-.149.338-.178.495-.072.094.062.212.127.265.223.285.528.749.76 1.21 1.027.036.02.071.052.1.09.07.087.078.193-.006.26-.225.192-.531.266-.625.625-.017.062-.155.093-.235.117-.154.052-.232.146-.218.326.016.215-.259.274-.213.517.035.206.151.359.245.53.037.061.085.125.094.193.049.484.31.807.633 1.09a.325.325 0 0 1 .107.186.289.289 0 0 1-.047.196.245.245 0 0 1-.177.085c-.508-.01-.713.343-.79.836-.083.512-.283.94-.685 1.235-.172.13-.218.3-.159.524.037.112.078.261.037.36-.154.39-.202.803-.197 1.29zm-8.574-1.321c-.023-.278-.278-.291-.406-.446a.186.186 0 0 1-.026-.206c.143-.241.51-.278.633-.049.146.28.24.582.464.813.13.14.07.312-.14.371-.183.06-.26.162-.307.348-.108.418-.1.84-.108 1.264-.004 1.03-.016.876-.873.925a.553.553 0 0 1-.483-.19c-.392-.449-.844-.815-1.298-1.18-.07-.062-.152-.122-.2-.202-.27-.466-.65-.827-.977-1.23a2.033 2.033 0 0 1-.372-.703c-.195-.614-.449-1.2-.89-1.647-.295-.302-.467-.663-.59-1.067-.147-.467-.384-.852-.796-1.057-.155-.075-.242-.214-.325-.364-.243-.43-.517-.795-.914-1.075-.3-.207-.531-.528-.783-.81a.852.852 0 0 1-.209-.464c-.023-.188.13-.4.272-.32.477.244.99.281 1.499.337.21.019.366.182.476.378.29.526.679.916 1.17 1.211.17.104.335.256.446.439.272.437.665.645 1.098.798.172.06.353.057.415.3.022.106.14.097.215.151.318.193.653.386.809.79.04.098.1.155.194.185.273.074.348.279.303.566-.008.024-.014.05-.02.074-.135.478-.01.659.372.787.166.05.271.167.335.336.02.05.036.097.056.139.187.458.463.776.96.798zM58.838 7.587c.176-.148.128-.294.176-.403.11-.285.39-.384.608-.198.116.104.225.24.312.379.278.469.42.986.43 1.549a.681.681 0 0 1-.052.284c-.165.39-.214.807-.2 1.241.005.285-.03.556-.367.603-.07.01-.089.113-.053.184.036.09.094.162.136.251.076.154.16.306.206.468.243.82-.335 1.588-1.102 1.465-.177-.032-.379-.064-.509-.171-.43-.369-.924-.608-1.374-.934-.074-.051-.164-.102-.211-.174-.117-.19-.237-.193-.394-.064-.131.1-.265.066-.356-.067-.275-.419-.584-.803-.57-1.394.007-.481-.131-.604-.544-.695-.09-.022-.183-.006-.265-.033-.12-.031-.206-.292-.12-.373.357-.313.504-.82.863-1.126a.382.382 0 0 0 .143-.39c-.085-.37.076-.643.306-.852.347-.312.707-.618 1.202-.516.255.049.477-.08.709-.19.483-.238.82-.063.943.51.041.186.046.382.083.646zm28.86 128.526c-.171-.096-.336.033-.502.043-.351.013-.67-.031-.872-.416-.102-.183-.246-.28-.44-.282a.527.527 0 0 1-.414-.222c-.094-.122-.077-.302.065-.367.325-.16.655-.309.983-.464a.72.72 0 0 1 .46-.066c.38.073.715.285 1.055.46.168.082.22.307.232.513 0 .149-.03.297-.03.446-.007.155.03.328.14.406.237.173.375.425.54.664.147.201.348.21.523.026.118-.116.22-.254.325-.38.177-.222.344-.46.637-.524.136-.03.23-.145.313-.268.276-.41.612-.446.995-.189.154.097.337.141.497.243.353.224.714.399 1.133.389.087-.003.174.044.259.078.158.06.272.168.274.377.007.1.03.198.03.297.031 1.394.049 2.793.079 4.187.006.303.036.6.047.9.006.098-.006.199-.107.25-.095.046-.177.012-.246-.06a6.188 6.188 0 0 1-.45-.445c-.17-.193-.366-.267-.607-.203-.282.073-.572.125-.86.179-.106.017-.22.007-.33 0-.143-.016-.219-.18-.179-.337a.964.964 0 0 1 .453-.62c.18-.102.185-.236.16-.428-.116-.858-.471-1.496-1.271-1.727-.498-.14-.965-.386-1.476-.5-.354-.079-.684-.338-1.013-.543-.166-.101-.289-.09-.42.05a.684.684 0 0 1-.226.155c-.117.045-.245.002-.292-.117-.124-.354-.288-.667-.573-.9-.074-.056-.041-.218.047-.241.302-.077.607-.146.913-.223.067-.013.136-.023.148-.141zm4.939-107.132c-.02.018-.045.024-.055.042-.136.211-.13.605-.454.565-.37-.05-.786-.122-.95-.58-.112-.29-.253-.516-.49-.684-.24-.17-.347-.447-.407-.751-.017-.099-.03-.214.048-.278.195-.172.195-.37.118-.602a1 1 0 0 1 .136-.913c.1-.15.1-.258.057-.41-.046-.154-.027-.321.108-.395.288-.157.507-.401.737-.64.058-.068.146-.113.223-.153.119-.065.23-.038.303.079.312.52.712.944 1.137 1.348.113.112.096.275.13.415.024.075.09.126.154.086.054-.021.124-.099.124-.15.004-.224-.02-.45-.02-.673-.004-.523.09-.655.55-.769.124-.032.218-.008.3.09.137.165.278.325.413.493.177.221.379.354.65.255.341-.127.593-.021.83.281.173.218.414.374.62.56.107.09.218.181.312.292.084.094.119.23-.016.308-.28.15-.384.373-.367.72.023.327-.179.549-.383.752-.195.18-.403.182-.632.107-.189-.065-.235.043-.205.239.023.148-.066.239-.191.254-.192.015-.394-.005-.581.096-.115.065-.225-.018-.302-.106-.236-.278-.496-.18-.743-.05-.158.075-.305.198-.467.296-.32.179-.352.17-.687-.124zm2.01-3.635c-.049.01-.077.04-.06.097.035.165.093.317.243.395.016.012.046.012.063.005.014-.01.036-.033.036-.055-.012-.157-.171-.409-.282-.442zm.081 1.763c-.03.273.024.471.124.65a.063.063 0 0 0 .06.022c.017-.006.048-.029.048-.045-.007-.22-.048-.423-.232-.627zm-6.116 73.873c.044-.087.102-.176.053-.276-.045-.099-.14-.094-.229-.073-.277.073-.56.136-.832.234-.336.115-.703.138-.972.435-.083.083-.201.075-.315.075-.221-.008-.441-.006-.665-.008.065.066.124.186.194.195.33.047.397.358.52.613.122.255.052.483-.036.721-.08.229-.165.462-.227.7-.072.276-.24.48-.396.685-.207.27-.642.053-.685-.242a1.734 1.734 0 0 1 .03-.668c.116-.466.116-.472-.278-.675-.17-.086-.225-.234-.242-.412-.018-.13.006-.27.1-.337.312-.235.56-.58.966-.63-.05-.179-.063-.353.109-.465.451-.28.855-.63 1.214-1.05a.713.713 0 0 1 .602-.272c.358.007.712-.032 1.061-.128.218-.06.437-.052.658.023.287.092.432 0 .505-.314.057-.278.172-.51.34-.717.136-.167.208-.379.26-.594a.89.89 0 0 1 .166-.323c.034-.043.118-.07.175-.06.077.011.09.099.066.174-.013.05-.036.096-.054.136-.036.095-.07.2-.007.281.109.13.202.01.302-.035.44-.21.744-.602 1.074-.979.425-.487.637-1.066.842-1.673.053-.162.102-.341.047-.513-.158-.517.043-.969.185-1.432.07-.226.135-.235.417-.169.177.042.177.042.167-.213-.007-.079-.02-.154.04-.206.078-.066.165-.047.249-.012.142.07.2.203.206.358.007.363.123.678.27.992.057.137.095.283.142.425.124.37.124.735-.077 1.072-.188.33-.241.754-.564 1-.122.082-.148.267-.115.409.124.516.02.983-.194 1.44a.89.89 0 0 0-.051.59c.087.356-.073.626-.254.888-.179.245-.26.261-.568.127-.246-.118-.26-.113-.417.16-.06.104-.13.309-.208.233-.276-.285-.436.029-.649.095-.26.083-.53.073-.796.007-.1-.026-.21-.155-.306-.035-.04.052 0 .191-.017.283-.013.066-.053.15-.1.183-.202.14-.306.364-.443.559-.222.304-.514.288-.726-.033a1.117 1.117 0 0 1-.128-.264c-.077-.26-.261-.233-.443-.219.014-.024.023-.043.034-.066zM56.637-.038c.2-.002.33.13.438.296.219.355.36.748.464 1.159.12.45.336.806.69 1.072.053.037.114.076.16.127.065.071.13.14.179.22.151.304.151.602-.155.758-.058.036-.118.075-.178.103-.188.088-.266.263-.251.48.005.197.034.393.075.588.031.173.089.333.126.503.08.452-.085.711-.49.804a.593.593 0 0 1-.135.014c-.544-.04-.994.238-1.435.543-.208.151-.413.295-.615.452-.212.16-.417.145-.625-.008-.282-.205-.561-.41-.83-.627a.705.705 0 0 1-.225-.266.95.95 0 0 0-.33-.446c-.194-.161-.207-.28-.106-.516.148-.316.313-.629.632-.743.47-.157.477-.6.531-1.01.01-.091-.025-.229-.078-.269-.36-.27-.228-.591-.118-.926.183-.532.466-.9.985-1.008.272-.055.506-.205.727-.378.18-.153.327-.308.253-.626-.036-.167.135-.296.311-.296zm6.075 11.741c.07-.023.094-.023.109-.04.103-.095.074-.331.22-.347.141-.018.302.054.45.105.053.021.128.09.135.147.04.414.436.605.49 1.015.025.199.194.326.347.44.266.202.356.494.356.84 0 .446.039.9-.215 1.299-.094.142-.181.28-.34.336-.514.163-1.021.339-1.535.498a.474.474 0 0 1-.266.005c-.266-.082-.528.016-.794.012-.243-.012-.432.099-.572.313-.195.29-.478.452-.733.655-.235.192-.476.073-.564-.242a1.076 1.076 0 0 1 .052-.732c.33-.744.454-1.557.72-2.32.166-.484.294-.964.425-1.461.134-.517.395-.995.6-1.494.052-.116.135-.115.212-.027.07.078.13.141.178-.022.006-.023.006-.048.011-.067.106-.358.2-.464.371-.422.273.072.506.358.498.621-.014.154-.053.3-.079.444-.023.139-.052.283-.076.444zm15.774 123.828c-.157.087-.348.108-.47.274.011.228.182.335.289.49.158.238.317.469.3.802-.01.298.208.5.383.674.295.296.272.661.212 1.033a.304.304 0 0 1-.217.259c-.123.048-.217-.025-.295-.12-.06-.068-.13-.147-.147-.24-.06-.237-.188-.311-.396-.311-.152 0-.252-.108-.282-.268a1.697 1.697 0 0 0-.308-.733c-.14-.184-.107-.429-.146-.644-.014-.074-.048-.147-.124-.158-.1-.016-.172.036-.226.119-.08.138-.046.292-.04.443.03.522.036 1.047-.022 1.57-.041.317-.16.442-.432.432-.295-.014-.445-.198-.412-.536.016-.249.06-.493.069-.74.019-.288-.04-.51-.276-.713-.284-.235-.325-.506-.159-.858.16-.332.223-.697.325-1.049.151-.536.36-1.058.424-1.63.01-.085.057-.208.124-.254.375-.242.701-.632 1.21-.491.476.13.959.212 1.453.246.38.027.702-.052.968-.385.09-.106.207-.184.326-.256.045-.024.14-.006.181.033.047.04.084.136.077.19-.063.462-.54.981-.955 1.03-.176.026-.36.033-.529-.01-.692-.18-1.381-.077-2.067-.042-.4.02-.654.521-.486.927.097.23.282.379.477.51.08.05.181.027.251-.035.455-.434 1.053-.358 1.568-.573.02-.006.05 0 .066 0 .097.024.177.074.191.18a.227.227 0 0 1-.085.181c-.11.075-.24.124-.366.182.107.02.214.03.32.059.083.029.17.087.131.201-.037.107-.142.083-.224.077-.156-.012-.227-.127-.285-.266-.112.157-.23.306-.396.4zm18.803-46.206c.022.04.063.083.059.122-.042.34-.018.642.286.84.09.059.06.181-.009.254-.206.21-.454.356-.727.351-.564-.011-.856.337-1.043.867a.784.784 0 0 1-.088.2c-.065.089-.156.114-.243.068-.24-.128-.477-.26-.718-.4-.225-.13-.454-.197-.71-.096-.039.017-.087.017-.129.037-.153.067-.387-.167-.457.111-.056.197.18.25.274.375.087.116.07.225-.047.307-.104.084-.225.162-.336.243-.217.141-.336.09-.382-.174-.006-.05-.014-.103-.014-.151-.004-.275-.174-.522-.11-.805.077-.343.372-.556.453-.905.024-.093.141-.133.232-.112.359.099.487-.111.53-.465.01-.118.071-.238.106-.354.13-.433.217-.862.123-1.319a1.046 1.046 0 0 1-.018-.296c.012-.225.228-.35.394-.225a.943.943 0 0 1 .202.196c.09.11.159.238.243.353.341.48.742.848 1.268 1.068.253.104.458.172.675-.047.049-.05.114-.082.186-.043zm-32.49 50.819c.179-.252.295-.432.42-.606a.405.405 0 0 1 .349-.189c.654-.017 1.279.095 1.797.598a.79.79 0 0 0 .555.218c.2 0 .4.012.6.012.136 0 .283-.004.377-.12.2-.245.413-.248.668-.116.158.082.346.087.518.148.302.106.603.165.919.106.194-.032.403-.047.591.057.035.019.07.08.07.116 0 .042-.029.096-.058.124-.166.156-.383.111-.572.163-.03.014-.064.078-.06.11 0 .039.036.092.072.109.058.034.128.064.19.052.587-.1 1.054.359 1.615.41.11.012.189.13.189.27 0 .111-.061.184-.136.25-.077.065-.166.08-.247.024a.453.453 0 0 0-.508-.036c-.195.098-.397-.003-.584-.067a2.494 2.494 0 0 0-.796-.106c-.466 0-.932-.068-1.398-.125a1.641 1.641 0 0 1-.743-.312c-.302-.22-.62-.296-.96-.206a1.55 1.55 0 0 1-.928-.069c-.187-.066-.389-.102-.59-.139-.152-.021-.329-.043-.43-.172-.225-.273-.518-.37-.92-.504zm12.639-18.545h-.006.006zm-.932-2.031c-.028-.15-.028-.311.117-.383.202-.1.24-.278.248-.487l.053-.818c.011-.148.008-.304.037-.442.082-.415.246-.545.62-.49.217.033.429.121.658.09.177-.025.247.071.224.267-.035.276-.06.539.07.8.209.414.03.768-.158 1.11-.046.084-.136.134-.193.207-.266.314-.368.674-.219 1.096.058.163.1.327.171.483.033.093.127.168.219.09.27-.246.507-.212.778.012.246.205.548.171.845.106.093-.024.175.025.191.145.019.107-.033.187-.127.225-.044.02-.092.023-.133.033-.14.034-.177.13-.116.273.06.132.147.254.177.393.04.19-.048.283-.224.241-.006.211.134.36.176.554a.162.162 0 0 1-.03.134c-.022.026-.086.055-.117.04a3.048 3.048 0 0 1-.473-.256c-.133-.098-.087-.345.077-.413.108-.042.212-.065.325-.1-.065-.06-.123-.166-.194-.18-.211-.034-.484.04-.348-.377-.13-.132-.177-.526-.466-.187-.025.028-.136 0-.17-.037-.255-.29-.52-.319-.833-.123-.063.044-.166.018-.253.025-.419-.615-.785-1.26-.932-2.031zm3.401 7.974c0-.078.007-.15 0-.224-.01-.146-.169-.297-.282-.249-.27.126-.543.192-.843.194-.163 0-.202.252-.326.351-.057.047-.127.065-.18.01a.275.275 0 0 1-.06-.127c-.005-.267.045-.533.224-.69.272-.242.59-.44.896-.635.129-.083.272-.016.366.106.136.181.253.113.407.014.243-.162.447-.406.736-.5.178-.049.172-.266.219-.433.036-.14.153-.179.255-.088.266.234.506.477.512.91.005.272.099.54.143.806.046.255.05.503-.066.73-.058.108-.12.251-.207.28-.133.041-.133-.149-.194-.246-.047-.09-.118-.177-.205-.096-.067.055-.13.165-.125.247.011.195.081.39.098.585.02.226-.145.37-.339.313-.107-.032-.212-.08-.32-.113-.576-.197-.738-.457-.709-1.145zm20.872-98.034c-.507-.036-.931-.316-1.355-.584-.12-.075-.214-.198-.333-.26-.265-.134-.417-.333-.482-.665-.072-.34-.241-.634-.424-.925-.06-.104-.124-.213-.108-.342.013-.082.1-.149.137-.105.384.429.872.43 1.362.472a.436.436 0 0 1 .336.214c.075.138.184.225.33.213.566-.026 1.02.322 1.493.594.11.061.148.167.153.299.03.627-.353.928-.844 1.073-.082.023-.176.014-.265.016zm25.246 9.958c.609-.059.956.204 1.295.567.386.416.386.753-.173.983-.438.17-.869.406-1.356.213-.149-.057-.31.01-.45.108a.735.735 0 0 1-.436.156c-.402.014-.673-.436-.46-.823.385-.705.855-1.292 1.58-1.204zm-80.545 87.92c-.006.669-.414 1.172-.937 1.252-.28.042-.525-.107-.642-.42-.202-.523-.224-1.064-.13-1.619.064-.39.14-.778.204-1.167.06-.323.194-.41.38-.2.494.553.9 1.17 1.1 1.933.025.096.02.195.025.221zm47.892-93.465c-.16.016-.314.039-.467.034-.052 0-.11-.068-.145-.129-.037-.07-.013-.165.051-.188.366-.119.527-.437.637-.798.084-.263.185-.506.467-.589.314-.084.632-.14.9.073.505.394.922.877.988 1.614.028.354-.12.538-.426.489a7.076 7.076 0 0 1-1.427-.398c-.182-.074-.37-.168-.578-.108zM53.652 9.006a.682.682 0 0 1-.187-.05c-.088-.033-.166-.095-.16-.207.007-.082.083-.097.143-.125.26-.123.283-.18.104-.31-.224-.163-.293-.425-.422-.652-.097-.16-.077-.33-.062-.502.02-.207.108-.303.303-.311.087-.002.181-.015.266.02.395.154.794.305 1.172.511.336.176.362.438.17.794-.304.554-.736.845-1.326.832zM78.135 110.92a9.746 9.746 0 0 1-.372 1.547c-.106.302-.237.585-.353.88-.077.175-.186.175-.314.027-.4-.47-.653-1.226-.207-1.963.131-.203.242-.417.366-.625a1 1 0 0 1 .344-.343c.274-.166.54.016.536.477zm1.805 14.383c-.282-.21-.454 0-.633.264-.134.213-.265.195-.44.023-.244-.24-.266-.497-.084-.795.084-.133.011-.23-.118-.273a.776.776 0 0 0-.2-.04c-.159-.017-.237-.12-.241-.295-.008-.25-.012-.497-.008-.75 0-.181.114-.258.278-.182.3.146.641.21.78.638.04.151.192.288.376.205.081-.033.134-.155.229-.109.13.055.118.201.107.322-.03.223.024.383.22.49.105.059.147.184.098.313-.059.166-.188.195-.364.189zm-12.604-8.904c-.011-.161.066-.278.153-.401.395-.565.939-.62 1.515-.566.22.017.326.29.22.51-.142.279-.284.57-.453.833-.279.43-.626.526-1.052.334-.289-.135-.401-.341-.383-.71zm14.955 25.198c.053.046.12.074.147.13.044.071.013.146-.046.196-.23.197-.483.344-.76.44-.39.133-.744.316-1.014.674-.184.236-.431.343-.703.401-.17.036-.306-.087-.313-.284-.012-.239.03-.475.22-.585.43-.251.805-.627 1.28-.754.389-.106.788-.146 1.19-.218zm6.294-39.92c-.143.21-.302.354-.56.304-.219-.047-.384.067-.507.274a2.191 2.191 0 0 1-.155.242c-.101.131-.24.135-.347.028-.147-.157-.232-.36-.308-.564a.277.277 0 0 1 .019-.206c.136-.23.282-.466.555-.5.174-.016.352-.042.495-.176.257-.243.53-.186.802-.031.08.207.147.42.006.629zM70.437 30.176c.13.02.307.036.478.086.237.071.35.293.307.572-.049.283-.165.508-.383.662a.488.488 0 0 1-.569.026c-.18-.126-.345-.293-.51-.462-.071-.064-.071-.185-.013-.265.113-.143.249-.27.313-.467.053-.16.195-.183.377-.152zm12.28 102.984a1.195 1.195 0 0 1 .086-.867c.055-.104.131-.217.26-.188.113.028.088.153.107.249.03.162.123.23.272.278.319.099.313.116.272.455-.015.096-.054.2-.044.292.03.264-.094.352-.298.39-.221.044-.225.23-.18.403.031.117.078.226.118.345.025.074.041.158-.04.18-.058.019-.129-.022-.188-.037-.09.072-.177.121-.288.064-.114-.05-.172-.207-.095-.28.075-.08.153.008.228.041-.01-.452-.104-.893-.21-1.325zm-8.27 9.14c-.31-.051-.626-.212-.961-.202-.035 0-.106-.1-.112-.158-.023-.328.266-.56.518-.401.124.075.214.146.365.092.145-.05.343.012.45-.075.36-.286.678-.013 1.008.041.049.015.107.105.113.164.005.057-.035.169-.078.179-.424.129-.86.24-1.302.36zm9.501-5.711c.406-.056.743.084 1.092.167.188.048.313.195.382.386a.358.358 0 0 1-.011.21c-.03.088-.105.082-.172.064a.693.693 0 0 1-.188-.073c-.508-.304-1.025-.242-1.545-.062-.142.047-.258.114-.343-.062-.106-.224-.03-.48.167-.56a.94.94 0 0 1 .259-.067c.128-.01.265-.003.36-.003zM52.604.27c.253 0 .449.043.625.155.148.098.23.329.19.517-.037.19-.19.368-.36.387a1.293 1.293 0 0 1-.773-.163.42.42 0 0 1-.22-.346c-.01-.192.061-.348.207-.435.118-.064.247-.089.331-.115zm23.73 123.807c.014.331-.035.51-.158.616-.354.279-.56.698-.866 1.018-.213.22-.425.432-.691.568-.065.03-.143.035-.178-.035-.03-.057-.039-.153-.018-.198a.668.668 0 0 1 .202-.287c.376-.276.654-.66.967-1.012.177-.187.335-.389.412-.66.03-.105.071-.268.225-.187.105.058.105.204.105.177zM5.55 100.6c-.048-.018-.138-.035-.213-.077-.213-.113-.249-.409-.053-.538.148-.101.306-.215.477-.255.33-.08.655-.156.962-.303.036-.017.094-.007.117.018.03.024.042.094.03.13-.243.625-.679.95-1.32 1.025zm30.876-66.9c.143-.006.273.034.344.18.094.19.182.387.26.59.038.106-.02.199-.09.256-.235.213-.522.242-.809.302-.047.01-.145-.057-.151-.1-.071-.378-.047-.744.157-1.067a.333.333 0 0 1 .29-.16zm41.129 108.443c-.276-.062-.577-.124-.88-.196-.075-.022-.1-.182-.046-.255a.557.557 0 0 1 .53-.238c.13.016.26.062.385.101.477.154.949.263 1.39-.113.026-.018.107 0 .113.028.026.057.042.144.018.199-.082.196-.258.267-.43.301-.349.074-.701.116-1.08.173zm2.884-18.951a1.546 1.546 0 0 1-.218-.282c-.077-.123-.007-.315.123-.358.402-.142.71.055.786.516.042.219.058.443.08.662.02.163-.057.22-.262.19-.042-.003-.084-.03-.126-.05.012.244.03.49.023.73 0 .057-.063.122-.11.156-.06.037-.142.021-.172-.052a18.43 18.43 0 0 1-.359-.86c-.037-.088-.04-.204.053-.255.046-.03.116 0 .182.01.065.011.124.033.187.049a.66.66 0 0 0-.187-.456zM93 31.62c.018-.124.035-.27.071-.414a.345.345 0 0 1 .37-.241c.147.024.242.12.285.27.11.382.005.679-.261.925-.152.14-.371.067-.417-.149-.024-.12-.03-.243-.048-.391zM76.287 142.448c.396-.023.669.187.903.467a.272.272 0 0 1 .04.285c-.064.125-.17.156-.282.125-.11-.026-.211-.083-.313-.134-.184-.095-.36-.188-.544-.286-.081-.041-.164-.102-.151-.218.011-.106.087-.165.177-.199.065-.018.13-.03.17-.04zm1.592-19.932c-.01.13-.058.246-.17.29-.12.047-.223-.012-.283-.123a16.28 16.28 0 0 1-.367-.779c-.077-.162-.024-.238.178-.292.062-.012.126-.01.195-.013.307.213.476.508.447.917zm34.257-54.306c-.016-.031-.057-.077-.05-.106.05-.212.1-.434.18-.625.12-.266.353-.353.602-.39.108-.011.219.136.184.25-.023.086-.046.202-.107.256-.241.214-.49.412-.737.615-.018.014-.045 0-.072 0zm-55.34-46.73c-.059-.019-.14-.051-.224-.084-.11-.054-.165-.216-.074-.3.216-.198.433-.398.67-.582.089-.066.176.029.201.128.094.367-.219.843-.572.839zm43.377 66.249c-.007.05 0 .107-.026.132a.858.858 0 0 1-.192.203c-.32.224-.639.446-.909.747-.036.04-.126.057-.172.036-.072-.034-.064-.126-.029-.191.201-.39.413-.765.86-.858.125-.026.244-.101.367-.144.024-.004.065.05.101.075zm-18.27 49.027a.57.57 0 0 1 .495.184c.14.15.1.403-.072.5-.224.116-.43.075-.613-.11-.094-.1-.177-.23-.128-.387.051-.171.2-.165.318-.187zM43.6 35.775c.006.278-.178.406-.4.278-.333-.19-.338-.658.004-.888.084-.064.172-.017.23.066a.87.87 0 0 1 .166.544zm45.103 103.624a.985.985 0 0 1-.14.589c-.078.11-.138.257-.297.249-.106-.002-.164-.183-.106-.442.046-.213.117-.417.195-.61.022-.056.112-.102.164-.094.053.003.106.074.138.136.033.056.04.138.046.172zm.57-113.768c.438.532.345 1.019.227 1.501-.013.04-.071.094-.095.087a.288.288 0 0 1-.162-.098.372.372 0 0 1-.046-.21c.02-.394.046-.788.077-1.28zm-43.575 2.064c-.106-.056-.164-.082-.223-.115-.088-.057-.23-.03-.253-.192-.023-.15-.013-.306.094-.411.104-.106.194-.307.376-.217.16.077.185.267.154.446-.023.143-.083.278-.148.49zm45.4 46.914c-.118-.003-.225-.05-.278-.172-.084-.215.117-.595.33-.632.124-.019.229.037.27.165.085.246-.106.605-.322.639zm15.226 5.923c-.123.407-.318.735-.697.892-.034.017-.088.008-.118-.015-.027-.027-.056-.102-.048-.123.213-.297.367-.66.727-.794.03-.013.078.02.136.04zm-40.12-64.519c.16 0 .325.01.397.204a.323.323 0 0 1-.025.208c-.106.179-.265.158-.42.096-.14-.056-.323-.05-.376-.26-.03-.131.172-.247.424-.248zM54.61 122.2c-.036.206-.085.496-.148.777-.03.124-.019.345-.196.294-.1-.038-.012-.22.008-.337.041-.312.082-.622.128-.938.013-.068.06-.158.13-.132.034.016.055.116.078.18.005.023 0 .048 0 .156zm2.293-100.008c.1 0 .213-.002.318.009.077 0 .13.064.106.146a.277.277 0 0 1-.106.164c-.152.082-.3 0-.454-.024-.147-.019-.299-.033-.454-.059-.03-.007-.077-.058-.077-.097 0-.032.042-.093.077-.106.188-.058.382-.073.59-.033zm-10.598 9.242c.188 0 .354-.033.484.094.026.026.041.09.041.127-.007.04-.04.106-.071.113-.266.066-.519-.01-.773-.077-.021-.007-.053-.085-.045-.122.006-.041.045-.098.076-.104.105-.02.22-.024.288-.031zm12.39 101.823c-.027.032-.053.075-.088.087a.163.163 0 0 1-.124-.028c-.27-.222-.376-.43-.298-.59.009-.032.073-.07.102-.06.237.072.368.264.42.522.007.017-.006.045-.011.069zm31.18-101.136c-.012.018-.018.052-.034.057-.037.017-.094.046-.12.029-.247-.212-.384-.516-.501-.84 0-.01.014-.04.03-.058.013-.015.041-.03.054-.018.257.187.452.442.578.76.006.019-.007.05-.007.07zM40.274 33.84c-.085-.03-.126-.093-.101-.163.1-.28.295-.39.591-.336a.184.184 0 0 1 .104.074c.048.082-.006.137-.065.178-.17.107-.332.25-.53.247zm26.79 102.752c-.01.163-.082.242-.205.251-.149.01-.266-.112-.26-.268.01-.14.08-.228.205-.238.142-.016.254.113.26.255zm34.445-49.754c0 .024.007.054-.004.073a1.131 1.131 0 0 1-.467.508c-.028.018-.087 0-.118-.025-.024-.028-.035-.096-.024-.131a.92.92 0 0 1 .46-.503c.02-.012.055-.02.067-.012.034.032.057.064.087.09zm12.63-13.245c.045.008.103-.003.122.026.148.186.253.4.294.645.006.04-.034.095-.07.106a.128.128 0 0 1-.12-.025.953.953 0 0 1-.293-.639c0-.033.042-.073.066-.113zm-32.52 67.698c-.078-.006-.149-.04-.149-.115 0-.057.05-.146.091-.163.14-.058.29-.1.436-.132.058-.009.128.052.121.127a.275.275 0 0 1-.074.178c-.13.107-.285.096-.425.105zM39.316 35.221c-.01-.135.043-.25.166-.268.119-.024.224.05.237.188.01.165-.007.337-.013.507-.2-.064-.366-.17-.39-.427zM59.77 135.418c-.042.062-.061.115-.095.135-.036.014-.1.014-.124-.005-.083-.087-.165-.17-.225-.276-.087-.158-.041-.361.071-.377.143-.026.195.097.247.203.048.108.084.224.126.32zm-5.68-125.04c-.048 0-.088.004-.137 0-.145-.008-.264-.104-.23-.187.049-.1.137-.146.225-.136.148.016.303.06.447.105.03.008.06.088.055.119a.158.158 0 0 1-.094.09c-.09.013-.179.004-.266.004zm44.028 78.697c.006.028.02.057.013.073a1.09 1.09 0 0 1-.513.632c-.01.012-.04-.003-.052-.018-.018-.016-.037-.048-.03-.057.098-.274.223-.536.472-.686.017-.012.07.04.11.056zM65.375 15.884c-.07-.024-.122-.081-.11-.161.03-.177.16-.28.282-.372.037-.031.126-.01.172.018.06.033.072.12.037.186-.083.175-.185.324-.38.329zm-13.597 4.26c-.007.13-.047.243-.177.262-.095.013-.195-.133-.177-.262.012-.13.058-.261.184-.263.134-.008.16.138.17.263zm12.278 113.751c.184.074.218.376.06.535-.023.024-.095.034-.118.015-.13-.098-.16-.354-.053-.51.017-.033.07-.03.11-.04zm21.862 7.323a.147.147 0 0 1-.124-.14c-.018-.185.023-.344.176-.432.065-.04.135-.017.166.056.063.179.005.335-.105.462-.025.035-.071.04-.113.054zm4.174-5.47c-.123-.012-.23-.026-.336-.04-.14-.021-.257-.141-.204-.198.073-.083.158-.05.24-.035.107.018.213.034.317.058.055.02.15.057.15.098.005.141-.107.09-.167.117zM58.336 22.456c-.04.057-.064.113-.101.121-.029.002-.094-.031-.099-.06a7.66 7.66 0 0 1-.113-.555c-.005-.026.054-.074.089-.077.036-.01.105.01.112.037.048.186.078.366.112.534zm8.257-2.713c0 .146-.085.222-.201.243-.102.012-.17-.054-.175-.169-.007-.135.057-.238.187-.241.094-.007.165.052.189.167zm63.614 58.319c.042.018.093.029.112.06.071.133.014.238-.077.328-.065.073-.152.104-.242.057a.081.081 0 0 1-.047-.057c-.017-.148.106-.344.254-.388zM46.194 24.91c.115.036.253.04.334.167.013.014.013.047.006.066-.006.021-.016.046-.034.054-.176.076-.335-.024-.497-.083-.023-.005-.046-.079-.032-.108.01-.037.052-.073.093-.087.036-.014.081-.007.13-.009zm37.1 84.05a.399.399 0 0 1-.273.361c-.023.008-.094-.034-.1-.056-.023-.203.095-.31.23-.387.028-.017.084.004.119.02.01.006.017.038.023.062zm-1.687 26.804c-.02.1-.039.198-.153.178-.065-.015-.117-.057-.179-.096-.028-.023-.074-.059-.08-.098-.014-.09.06-.109.117-.13.2-.053.29-.005.295.146zm8.203-.796c-.018.026-.021.048-.041.059-.13.063-.324-.064-.355-.236-.005-.026.041-.094.067-.094.144-.022.259.052.323.2.014.02.006.048.006.07zm-4.51-.877a.321.321 0 0 1 .288.108c.023.026.035.092.023.127a.163.163 0 0 1-.1.08c-.106.024-.205-.018-.283-.107-.024-.028-.036-.09-.024-.127.012-.036.058-.057.095-.081zm41.781-55.353c.053.016.117.021.17.061.09.058.197.111.179.257 0 .026-.065.066-.102.064-.187 0-.301-.097-.318-.263-.007-.036.043-.07.071-.12zm-45.137 23.427c-.085-.022-.142-.075-.125-.15.034-.133.142-.182.26-.17.07.009.131.072.107.153-.038.134-.135.179-.242.167zm37.918-24.84c-.01.041-.017.107-.047.124a.295.295 0 0 1-.4-.122c-.006-.023-.006-.059 0-.067.058-.026.118-.073.177-.073.106-.006.22 0 .27.138zm-59.431 59.1c.145.065.216.209.229.379 0 .033-.037.08-.06.106-.012.014-.05.007-.058-.01a3.711 3.711 0 0 1-.213-.349c-.011-.02.018-.077.041-.117.008-.01.037-.01.06-.01zM40.986 34.452c.09.01.189.033.189.148.006.125-.1.14-.19.125-.088-.017-.175-.06-.163-.184.011-.08.094-.09.164-.09zm6.386-2.659c.029.008.077.008.113.025.065.031.103.103.071.176-.017.034-.071.059-.112.065a.184.184 0 0 1-.123-.024c-.036-.025-.085-.066-.085-.106-.009-.083.049-.128.136-.136zm19.592 98.489c.1.01.149.074.153.18.005.1-.035.189-.141.173-.094-.017-.13-.109-.13-.208a.149.149 0 0 1 .118-.145zm16.602 1.427c.07.022.116.074.11.156-.006.103-.06.177-.158.167-.073-.005-.119-.064-.111-.144.004-.112.058-.17.16-.18zm-.396 3.693c.006.106-.048.145-.118.154-.111.01-.23.01-.265-.143-.018-.082.045-.139.118-.149.116-.016.217.016.265.138zm-2.643.121c.077.02.12.024.16.04.017.009.048.033.048.045-.011.043-.018.099-.042.122-.113.08-.23.115-.358.041-.02-.008-.037-.036-.037-.056.005-.044.005-.11.03-.12.072-.04.152-.055.199-.072zm4.554.195c0 .118-.07.166-.158.177-.13.024-.254-.073-.225-.172.023-.106.1-.148.188-.151.095 0 .165.034.195.146zM51.207 20.596c.004.079 0 .154-.071.187-.083.031-.124-.04-.137-.112-.01-.08.007-.157.077-.185.082-.033.117.028.131.11zM128.25 78.72c.08.03.124.113.11.214-.01.083-.07.14-.14.13-.119-.002-.142-.103-.126-.211.014-.081.055-.135.156-.133zm-47.576 62.85c-.04.102-.118.124-.212.095-.07-.026-.11-.094-.062-.16.029-.055.104-.078.163-.08.07-.004.119.048.111.146zm-23.363-9.91c-.054.026-.095.064-.125.06-.105-.029-.208-.076-.19-.23 0-.024.066-.06.101-.055.107.026.177.102.214.224zM43.428 30.136c-.072-.019-.118-.074-.094-.155.016-.083.083-.116.148-.083.032.017.076.069.076.109.005.094-.052.13-.13.13zm34.27 98.533c-.042.074-.1.088-.16.056-.065-.032-.1-.108-.042-.162.036-.029.11-.018.165-.006.024.006.024.077.036.112zm12.807-54.736c.078.033.094.097.061.166-.053.092-.143.122-.23.092-.055-.02-.065-.074-.041-.125.04-.09.11-.14.21-.133zm12.439 11.681c.005.11-.048.173-.123.215-.03.01-.09 0-.109-.024-.039-.061-.016-.134.036-.179.042-.035.107-.05.16-.065.006-.003.024.032.036.053zm-23.295 56.016c-.03.078-.077.13-.147.118-.078-.012-.105-.08-.078-.157.03-.072.094-.104.165-.072.03.009.043.068.06.111zm12.078-45.046c.065.04.076.108.06.179-.02.075-.065.131-.136.105-.073-.029-.082-.103-.066-.176.023-.073.066-.116.142-.108zM80.25 32.183c.03.024.085.044.088.077.014.081-.035.138-.11.123-.024-.005-.06-.072-.055-.108 0-.035.048-.064.077-.092zm29.45 9.334c-.069-.034-.104-.09-.074-.167.01-.03.064-.067.094-.062.071.013.107.087.078.161-.014.031-.061.044-.097.068zM79.36 143.73c.006.108-.14.224-.229.176-.05-.018-.058-.077-.02-.115a.542.542 0 0 1 .155-.124c.047-.031.081 0 .094.063zm45.427-64.225c-.094 0-.158-.063-.206-.15-.014-.017-.016-.068-.014-.068.044-.022.091-.05.115-.034a.57.57 0 0 1 .148.139c.033.05.01.097-.043.113zM65.85 19.274c-.022.076-.07.132-.14.122-.083-.009-.102-.087-.072-.159.028-.076.09-.11.159-.083.03.014.036.08.053.12zm-1.81 113.671c.071.003.124.043.118.121 0 .033-.047.09-.078.092-.07.007-.117-.04-.11-.123 0-.033.046-.058.07-.09zm14.247-4.8c-.027-.033-.075-.066-.075-.097.004-.086.065-.117.128-.082.03.013.053.082.047.113-.01.033-.063.05-.1.066z"/></g></g></svg>