<svg xmlns="http://www.w3.org/2000/svg" width="166" height="140" viewBox="0 0 166 140"><g><g><path fill="#ef5b5b" d="M36.073 31.855c-.202-1.663-.18-1.887.658-3.046.378-.527.655-1.049.89-1.685.45-1.222 1.552-1.598 2.643-1.811.346-.066.725.031 1.083.031a1.763 1.763 0 0 0 1.027-.357c.339-.25.39-.75.06-1.013-.29-.236-.62-.414-.908-.651-.067-.059-.085-.26-.046-.366a.403.403 0 0 1 .238-.246c.652-.17 1.209.179 1.711.506 1.226.807 2.606 1.026 3.934 1.424.642.191 1.297.34 1.968.108.354-.115.735-.115 1.026.19.308.338.518.14.778-.06.372-.282.69-.054.98.221.311.295.382.68.235 1.093-.235.688-.43 1.403-1.037 1.849-.307.22-.577.502-.602.952-.04.822-.343 1.56-.598 2.319-.14.432-.032.802.266 1.085.467.434.957.824 1.326 1.372.137.197.367.396.586.44 1.113.238 1.98.957 2.86 1.687.189.16.4.318.625.394.943.323 1.775.793 2.412 1.69.382.542.99.757 1.627.764.726.015 1.25-.277 1.567-1.084.65-1.61.987-3.314 1.374-5.01.094-.437.029-.939-.046-1.398a8.122 8.122 0 0 1 .042-3.201c.04-.198.093-.407.07-.6-.25-2.048.884-3.573 1.6-5.25.049-.119.135-.224.217-.318.18-.202.409-.326.646-.225.154.066.347.262.354.413.08 1.74.967 3.16 1.458 4.74.235.758.37 1.557.541 2.34.209.94.278 1.007 1.199 1.169 1.171.202 2.145 1.15 2.398 2.375.136.66.234 1.32.33 1.987.106.742.287 1.437.72 2.04.548.764.719 1.682.796 2.64.151 1.795.8 3.149 2.454 3.862 1.047.456 1.99 1.254 2.963 1.914.202.139.433.348.492.574.416 1.613 1.757 2.769 1.786 4.566.004.374.283.601.65.478.457-.159.811.163 1.208.288.458.147.788.482.798.979.032 1.743.851 2.812 2.111 3.732.734.533 1.228 1.463 1.835 2.214.298.364.565.342.937.053.32-.258.618-.065.614.294-.006.33-.006.678-.076.994-.277 1.266-.185 2.542-.154 3.825.006.265-.031.623.108.785 1.07 1.274.346 2.937.789 4.348.085.286 0 .678-.096.986-.45 1.404-.383 2.938-.937 4.309-.076.185-.122.4-.1.593.236 1.804-.666 3.238-1.27 4.763-.164.416-.475.784-.788 1.08-.773.723-1.214 1.664-1.59 2.666a39.735 39.735 0 0 0-.793 2.256c-.353 1.152-.67 2.296-1.342 3.289-.324.483-.433 1.098-.496 1.713-.125 1.132-.3 2.264-.4 3.399-.077.856-.506 1.336-1.18 1.613-.511.206-1.042.392-1.597.33-1.046-.12-1.887.368-2.66 1.057a36.575 36.575 0 0 0-2.2 2.096c-.325.329-.601.41-.955.16-.451-.33-.99-.592-1.332-1.035-.407-.54-.922-.54-1.439-.697-.714-.221-1.307-.113-1.821.487-.869 1.007-1.806.947-2.78.217-.564-.426-1.2-.66-1.86-.762-.914-.144-1.73-.593-2.578-.945-1.604-.661-2.389-1.998-2.498-3.827a6.27 6.27 0 0 0-.673-2.475c-.452-.918-.944-1.51-1.993-1.14-.413.145-.673-.247-.54-.752.2-.78.444-1.553.121-2.354-.06-.145-.254-.258-.406-.307-.07-.023-.241.099-.283.201-.12.307-.175.637-.294.95-.327.848-.843 1.158-1.741 1.067-.234-.024-.429-.39-.309-.61.126-.22.266-.442.437-.62.273-.296.484-.622.505-1.044.038-1.112.417-2.087.923-3.026.113-.199.07-.508.084-.773 0-.043-.071-.112-.12-.14-.052-.02-.158-.025-.168-.003-.649 1.527-2.106 2.179-2.997 3.434a6.61 6.61 0 0 0-.594 1.003c-.162.337-.095.88-.584.901-.59.023-1.328-.702-1.35-1.375-.017-.545-.015-1.084-.232-1.572-.317-.725-.642-1.465-1.226-1.983-.437-.381-.843-.764-.978-1.4-.125-.581-.543-.875-.975-1.127-.318-.194-.657-.327-.99-.506-1.232-.655-2.686-.678-3.801-1.711-.359-.334-.927-.269-1.417-.222-1.142.112-2.292.201-3.43.361-.471.07-.96.232-1.373.486-1.362.842-2.838 1.12-4.363 1.143-.869.01-1.669.14-2.417.688-.454.323-.98.528-1.474.774-.95.479-1.823 1.01-2.271 2.17-.313.815-.985 1.155-1.777 1.155-1.271.01-2.538 0-3.812.01-.725.001-1.45.047-2.175.063-.631.016-1.199.182-1.605.774-.225.32-.495.613-.854.718-.731.2-1.303.662-1.854 1.218-.61.627-1.342.864-2.186.653-.466-.115-.953-.138-1.437-.205-1.557-.217-2.565-1.427-3.615-2.535-.365-.374-.325-1.192.053-1.678.436-.566.967-1.062.942-1.882-.04-1.456.43-2.95-.24-4.376-.26-.532-.425-1.116-.672-1.655-.508-1.092-.884-2.222-.827-3.47.03-.715-.253-1.305-.511-1.906-.554-1.274-1.155-2.522-1.403-3.932a3.223 3.223 0 0 0-.767-1.582c-.208-.239-.395-.506-.584-.774-.402-.578-.63-1.157-.007-1.756.124-.121.149-.358.213-.527.473-.139.55.497.91.527.094.003.268-.105.268-.162 0-.187-.033-.391-.111-.569-.376-.915-.755-1.835-1.156-2.74-.406-.9-.5-1.79-.03-2.695.353-.667.421-1.394.39-2.143-.023-.61-.059-1.23.155-1.795.182-.49.36-1.102 1.025-.547.181.148.342-.007.482-.135 1.21-1.12 2.69-1.791 3.857-2.986.395-.409.937-.704 1.492-.652 1.52.147 2.819-.675 4.18-1.167.636-.228 1.249-.437 1.91-.57.767-.15 1.516-.444 2.27-.695.66-.223 1.165-.714 1.586-1.3.567-.781 1.078-1.612 1.617-2.421.27-.415.264-.89.182-1.354-.176-.987.23-1.688.836-2.315.632-.652.891-.63 1.42.177.107.158.18.353.29.509.125.162.306.247.478.109.087-.071.176-.226.17-.336-.015-.336-.1-.662-.124-.99-.057-.686.138-1.11.772-1.003.12.019.243.029.36.049.437.056.762-.225.828-.618.2-1.224 1.005-1.994 1.667-2.834.991-1.279 2.328-2.063 3.79-2.452.661-.174 1.306.214 1.795.774.246.296.463.62.7.925.335.43.72.737 1.261.624.666-.131 1.297.134 1.966.272zM83.94 20.177l.005-.006.011-.006.013.022a4.552 4.552 0 0 0-.029-.01zm-.572.761c-.33.355-.759.508-1.171.304-1.347-.69-2.796-.818-4.224-1.062a2.575 2.575 0 0 1-1.574-.902c-.983-1.181-2.224-2.087-2.983-3.5a1.598 1.598 0 0 0-.666-.651c-.832-.402-1.68-.745-2.528-1.102-.354-.155-.743-.166-1.057.034-.913.593-1.97 1.015-2.045 2.526-.043.839-.739 1.345-1.564 1.325a20.024 20.024 0 0 1-2.168-.19c-.726-.108-1.062-.482-1.145-1.32-.076-.8-.03-1.614-.1-2.415a29.77 29.77 0 0 1-.058-4.814c.065-.93-.03-1.88-.136-2.813-.155-1.344-.158-2.682-.09-4.021.037-.701.384-.944.985-.74.402.138.79.317 1.19.477 1.422.565 2.838 1.15 4.264 1.685 1.34.515 2.382 1.572 3.553 2.377.298.204.578.548.71.9.519 1.4 1.633 1.909 2.765 2.399.397.176.825.241 1.205.44.888.473.924 1.308.092 1.973-.092.081-.218.115-.31.197-.357.297-.426.68-.201 1.032.062.108.129.228.224.313.881.816 1.739 1.656 2.204 2.876.066.179.212.399.356.442.973.273 1.512 1.23 2.314 1.769.207.14.501.206.603.409.464.952 1.34 1.016 2.127 1.291-.192.255-.362.53-.572.761zm48.86 93.584c-.508.401-1.161.234-1.722.49-.897.409-1.61.994-1.743 2.12-.131 1.086-.633 2.037-.858 3.076-.465 2.152-2.03 3.068-3.58 3.997-.324.194-.7.178-1.065.096-.654-.153-1.301-.318-1.891-.685-.641-.4-1.28-.749-2.043-.749-.227 0-.48-.109-.696-.211a1.065 1.065 0 0 1-.512-1.331c.548-1.405.884-2.962 2.12-3.915a.474.474 0 0 0 .12-.143c.766-1.319 1.634-2.499 3.132-2.814 1.32-1.173 2.66-2.33 3.957-3.53.475-.444.7-1.093.832-1.766.145-.744.429-1.398.99-1.873.449-.382.719-.894.84-1.508a6.09 6.09 0 0 1 .295-.95c.438-1.048.887-1.144 1.623-.37.133.147.284.275.373.44.323.605.712.648 1.207.272.143-.108.337-.158.512-.188.432-.075.897.277.928.75.086 1.278.135 2.535-.727 3.612-.6.756-1.042 1.662-1.65 2.399-.613.74-.825 1.457-.409 2.372.05.097-.015.256-.033.409zm-.138-29.411c.64.538 1.327 1.028 2.096 1.39.89.425 1.307 1.37 1.597 2.343.21.702.336 1.437.518 2.146.078.319.164.656.336.91.178.26.472.505.772.412.297-.088.111-.457.172-.693.023-.112.135-.245.225-.259.097-.017.244.064.322.147.281.294.33.71.383 1.107.201 1.5 1.145 2.123 2.336 2.46.367.104.713.094 1.05-.116.32-.193.622-.42.953-.58.787-.361 1.35.014 1.4.928.036.883.007 1.752-.531 2.498-.183.251-.307.58-.407.887-.125.368-.306.458-.667.495-1.174.115-1.365.314-1.43 1.542-.038.615-.143 1.202-.38 1.745-.615 1.394-1.344 2.716-2.274 3.87-.61.755-1.875.52-2.337-.368-.076-.15-.078-.4-.03-.573.097-.316.265-.6.397-.906.614-1.45.478-2.02-.68-2.866-.452-.336-.924-.641-1.343-1.028-.561-.517-.636-1.306-.042-1.722 1.27-.877 1.263-2.37 1.639-3.678.178-.592-.019-1.19-.288-1.741-.56-1.187-1.065-2.405-1.807-3.48a16.534 16.534 0 0 1-2.113-4.22c-.066-.194-.102-.388.133-.65zm-53.904 22.195c.094 1.685-.65 2.935-1.622 4.08-.42.484-.855.956-1.232 1.476-.26.37-.422.867-.926.843-.677-.03-1.337-.13-1.77-.82-.688-1.112-1.355-2.22-1.642-3.567-.196-.915-.486-1.804-.727-2.71-.088-.313-.18-.642-.21-.969-.103-1.183.422-1.666 1.405-1.313.225.084.475.173.657.337 1.026.928 2.135.754 3.26.31.403-.155.778-.37 1.178-.509.68-.23 1.228.084 1.393.852.142.65.158 1.328.236 1.99zm3.536-96.61c-1.132-.154-2.22-.49-3.135-1.32-.153-.13-.189-.349-.096-.544.059-.103.161-.239.254-.255.353-.064.712-.08 1.071-.12.42-.051.906.02 1.242-.19.64-.408 1.188-.909 1.869-.076.087.116.504.06.666-.08.702-.598 1.586-1.018 1.844-2.114.043-.178.179-.346.313-.47.248-.226.561-.259.854-.154.309.104.51.366.54.73.075.915-.156 1.804-.72 2.407-1.287 1.385-2.802 2.307-4.702 2.186zm31.03 34.835c.159.032.354.018.51.096.706.393 1.389.841 1.867 1.55.597.876 1.274 1.61 2.174 2.073.109.056.215.128.31.206.79.62 1.195 1.342.872 1.52-.575.306-1.037-.122-1.498-.394-1.614-.948-3.109-2.068-4.138-3.802-.166-.279-.347-.558-.307-.914.01-.11.125-.203.21-.335zm30.27-5.091c-.33-.077-.624-.12-.9-.226a.84.84 0 0 1-.568-.694.958.958 0 0 1 .313-.88c.43-.393.957-.523 1.498-.5.57.02 1.066.709 1.024 1.383-.01.288-.16.527-.371.625-.323.142-.675.205-.997.292zM39.254 22.89c.2-.034.376-.068.56-.08a.563.563 0 0 1 .59.342c.164.347.04.655-.171.905-.26.304-.596.454-.972.392a20.824 20.824 0 0 1-1.416-.262c-.265-.063-.393-.286-.366-.587a.805.805 0 0 1 .39-.627c.46-.28.943.008 1.385-.083zm55.057-11.038c-.082-.038-.376-.061-.496-.242a38.623 38.623 0 0 1-1.475-2.456c-.06-.104.056-.366.149-.514.04-.067.248-.082.33-.024.867.598 1.574 1.396 2.12 2.352.193.33-.114.861-.628.884zm10.28 5.422c.404.552.78 1.048 1.14 1.56.139.192-.04.596-.258.598-.662.016-1.31-.032-1.916-.336-.29-.145-.493-.384-.493-.755-.002-.313.208-.451.433-.557.376-.18.75-.348 1.095-.51zM144.98 37.14c-.201-.195-.363-.296-.446-.448-.144-.282.01-.523.205-.68.545-.449 1.185-.63 1.828-.792.314-.08.6-.005.702.402.083.345.03.75-.266.874-.66.273-1.36.438-2.023.644zM53.138 89.7c-.134-.028-.488-.061-.817-.185-.132-.04-.273-.28-.277-.442-.006-.159.105-.38.223-.481a1.675 1.675 0 0 1 1.155-.429c.55.014 1.062.16 1.346.748.167.352-.443.742-1.232.784-.06.007-.117.005-.398.005zM86.906 3.533c.598.207 1.063.639 1.512 1.09.32.319.522.732.481 1.245-.023.28-.134.528-.382.622-.261.105-.48-.033-.597-.293-.229-.542-.424-1.105-.66-1.652-.13-.3-.304-.578-.46-.87-1.115-.162-1.933-.96-2.814-1.631-.056-.05-.095-.268-.05-.336.046-.08.235-.148.3-.106.907.61 1.935 1.03 2.67 1.933zm9.665 10.262c.057-.009.122-.049.166-.025.765.378 1.554.72 2.22 1.306.485.43.759 1.044.518 1.115-.414.118-.633-.274-.923-.476-.66-.467-1.324-.934-1.97-1.42-.077-.056-.09-.232-.106-.359-.007-.035.066-.094.095-.141zm6.713 1.505c-.093.063-.205.195-.281.176-.772-.209-1.455-.613-1.993-1.283a.476.476 0 0 1-.06-.37c.069-.225.285-.254.436-.158.63.377 1.31.68 1.829 1.259.065.08.053.25.07.376zM166 29.52c-.09.08-.171.219-.261.223-.69.054-1.3-.255-1.879-.614-.123-.08-.252-.341-.229-.486.059-.325.353-.369.57-.272.568.237 1.109.524 1.653.816.083.043.1.221.146.334zm-58.757-11.378c-.171.115-.267.22-.363.22-.108.01-.24-.053-.324-.131-.56-.554-.885-1.26-1.012-2.069-.017-.093.09-.226.159-.32.023-.031.14-.028.171.012.577.673 1.003 1.464 1.369 2.288zm12.097 14.79c-.016.308-.154.529-.4.591-.16.04-.382.03-.498-.062-.405-.361-.487-.884-.441-1.422.006-.078.177-.202.254-.193.62.089 1.07.568 1.085 1.087zm2.225 92.281c.063.646-.48 1.28-.975 1.173-.082-.02-.2-.159-.22-.26-.093-.497.102-.897.409-1.237.136-.146.33-.197.481-.068.139.113.225.287.305.392zm-13.992-104.94c.519.016.924.25 1.156.788a.492.492 0 0 1-.024.369c-.053.096-.201.189-.297.18-.518-.056-.888-.373-1.103-.904-.022-.056-.029-.154 0-.191.074-.09.171-.16.268-.242zm-30.282 81.03c.6.26.982 1.114.785 1.79-.026.074-.24.155-.29.111-.51-.42-.743-1.024-.78-1.708 0-.057.183-.127.285-.193zm20.803-88.85c-.12.177-.18.342-.252.347-.707.059-1.509-.62-1.532-1.295 0-.075.17-.236.232-.218.66.167 1.089.69 1.552 1.166zM51.89 29.16c.34-.046.678.32.664.751-.003.291-.152.515-.418.554-.335.042-.554-.187-.642-.537-.088-.329.13-.727.396-.768zm31.164-10.693c-.029-.064.073-.266.156-.321a.355.355 0 0 1 .33-.005c.501.328.637.947.834 1.485.1.272-.207.42-.418.538-.302-.564-.615-1.125-.902-1.697zm38.473 13.834c.115.073.277.124.308.217.045.177.069.397.022.573a2.184 2.184 0 0 1-.323.678c-.033.036-.32-.114-.446-.24-.266-.283-.228-.597.024-.872.132-.136.286-.242.415-.356zm34.493 82.405c-.007.273-.086.514-.357.582-.293.082-.547-.31-.537-.816.013-.31.171-.484.449-.465.382.033.438.352.445.7zm-35.644-79.2c-.064.075-.138.214-.228.23-.403.07-.787-.467-.666-.938.016-.092.2-.203.279-.18.38.097.628.48.615.887zm-51.732 65.792c0 .116-.003.436-.287.469-.3.04-.346-.28-.346-.542 0-.27.05-.56.376-.522.184.026.247.248.257.595zm20.046-78.645c.436.033.747.303.964.695.026.053-.077.284-.126.284-.45.047-.764-.223-.949-.66-.031-.068.071-.206.111-.319zm70.145 25.525c-.053.09-.093.253-.162.27-.237.06-.483.003-.604-.254-.1-.21.014-.375.218-.397.247-.017.443.113.548.38zM58.274 36.51c-.08-.083-.22-.165-.227-.255-.024-.326.177-.476.434-.494.208-.017.38.128.341.351-.047.308-.284.392-.548.398zm58.496 103.035c.059-.102.118-.31.238-.378.194-.11.332.073.32.271-.01.161-.092.386-.205.45-.172.103-.307-.06-.353-.343zM75.126.405c-.116.192-.28.267-.465.192-.195-.078-.258-.272-.119-.452.132-.156.32-.156.495-.065.132.07.156.194.09.325zm7.17 1.197c-.184-.057-.307-.186-.26-.399.052-.21.218-.296.395-.214.09.04.189.177.196.277.016.23-.136.322-.33.336zm61.783 40.513c.053.087.172.199.152.254-.08.272-.27.37-.515.284-.043-.012-.102-.097-.095-.139.026-.303.204-.408.458-.399z"/></g></g></svg>