<svg xmlns="http://www.w3.org/2000/svg" width="118" height="157" viewBox="0 0 118 157"><g><g><path fill="#ef5b5b" d="M43.116 115.285c.344-.03.65-.23 1.006-.244.253-.01.34.09.413.303.087.269.201.532.253.814.067.363.298.463.564.557.102.036.225.061.262-.072.034-.142.02-.312-.117-.4-.072-.047-.17-.04-.248-.073-.149-.074-.288-.207-.296-.37-.025-.31-.03-.6-.237-.851-.059-.07-.012-.204.085-.232.259-.073.492-.16.551-.51.014-.083.102-.097.171-.099.712-.061.992-.694 1.343-1.242.07-.115.007-.22-.073-.3-.411-.436-.642-.967-.849-1.552-.147-.411-.296-.771-.247-1.24.023-.23-.16-.513-.26-.745-.102-.238-.182-.493-.308-.726-.325-.602-.401-1.246-.364-1.93.005-.184.031-.372-.156-.43-.393-.128-.44-.492-.512-.869 0 .341-.1.635-.213.931-.094.267-.236.437-.494.417-.343-.025-.55.188-.697.487-.263.515-.717.83-.996 1.316a.712.712 0 0 1-.329.27 2.182 2.182 0 0 0-.752.46c-.117.108-.285.168-.439.089-.236-.11-.46-.224-.725-.186-.033 0-.086-.005-.1-.021-.328-.537-.958-.642-1.306-1.16-.182-.275-.344-.53-.243-.887.063-.225.037-.523.384-.484.1.01.403-.582.383-.702-.017-.11-.113-.208-.176-.165-.247.158-.655-.024-.767.433-.018.084-.094.107-.166.084-.077-.023-.109-.105-.109-.181.003-.346.052-.688.226-.987.116-.195.192-.339.014-.548-.15-.174-.1-.389.02-.582.067-.112.145-.213.21-.312-.005-.179-.152-.138-.224-.21-.25-.237-.285-.41-.094-.73.105-.177.146-.26-.043-.41-.3-.243-.338-.614-.229-.987.08-.283.129-.543.016-.833-.1-.262-.036-.53.107-.768.106-.162.088-.277-.035-.45-.249-.342-.225-.53.006-.9.035-.065.084-.129.094-.202.094-.472.093-.472.493-.531.103-.019.205-.04.31-.055.077-.103-.043-.166-.043-.254-.018-.364.074-.448.387-.347.305.095.317.095.311-.266 0-.233.089-.345.278-.418.2-.082.399-.106.608-.08.144.016.303.106.435-.042-.016-.195-.152-.137-.238-.153-.238-.052-.29-.264-.31-.471-.018-.226.123-.387.301-.407.255-.018.407-.12.484-.4.048-.152.209-.196.326-.272.135-.08.137-.176.065-.324-.162-.334-.143-.45.062-.538.21-.097.327 0 .42.332.013.052.013.108.02.17a.312.312 0 0 0 .277-.3c-.006-.233.017-.506-.165-.664-.172-.154-.146-.226.02-.323.107-.064.21-.126.312-.199.116-.082.234-.131.304.025.11.247.426.18.508.457.037.11.138.09.225.045.14-.068.276-.133.457-.224-.262-.331-.21-.62.128-.848.05-.035.088-.123.099-.19.128-.768.68-1.23 1.057-1.814.101-.152.222-.107.367-.032.276.145.364.058.317-.278-.012-.09-.05-.178-.08-.27-.04-.16-.042-.353.052-.442.37-.372.47-1.127 1.25-.994-.4-.337-.377-.33-.23-.734.148-.416.308-.803.554-1.154.108-.15.209-.359-.016-.556-.188-.16-.088-.395.06-.481.328-.184.265-.722.654-.843.052-.016.03-.092.024-.148-.11-.63.048-1.16.46-1.603.06-.066.147-.118.147-.221-.017-.34.185-.477.413-.585a.703.703 0 0 0 .42-.67c-.029-.445.245-.701.384-1.037.088-.212.282-.412.552-.221.056.039.12.112.162 0 .104-.27.385-.451.312-.845-.223.04-.3.29-.462.4-.14.089-.288.188-.41-.004-.1-.156.076-.673.246-.71.408-.09.757-.247.887-.747.011-.047.064-.081.1-.123.308-.39.37-.381.572.105.025.051.042.106.155.106-.084-.273.04-.543-.09-.826-.11-.232.036-.404.201-.52.213-.15.182-.294.024-.45-.296.1-.491.379-.724.581-.165.138-.23.361-.479.187-.063-.04-.137.03-.185.085-.377.456-.872.515-1.393.499-.06 0-.153.023-.187.072-.333.526-1.046.53-1.295 1.174-.023.065-.094.121-.151.148-.124.052-.237-.01-.202-.153.117-.419.094-.94.571-1.14a.243.243 0 0 0 .124-.101c.242-.382.524-.619.967-.427.038.021.116-.001.144-.035.311-.386.773-.49 1.146-.761.076-.056.117-.136.117-.269-.295.14-.543-.203-.86-.065-.098.035-.144-.177-.124-.32a.952.952 0 0 1 .624-.806c.183-.076.094-.394.283-.294.201.097.26.34.32.557.01.04.023.073.053.188.102-.336.221-.592.118-.9a.63.63 0 0 1 .135-.638c.137-.15.236-.321.307-.522.045-.115.142-.164.26-.134.133.033.214.127.21.283-.01.272-.026.575-.2.757-.307.317-.224.613-.066 1.006.136-.206.255-.362.262-.588.006-.197.094-.288.266-.23.16.05.366.185.272.334-.22.342-.008.663-.047.983-.007.072 0 .154 0 .23.093-.124.252-.198.206-.428-.083-.362.19-.553.348-.785.124-.198.323-.042.496-.088.046-.214.096-.432.166-.775-.26.284-.48.416-.74.447-.211.023-.328-.083-.247-.28.078-.172.023-.327.048-.486.036-.315.066-.646.348-.854.154-.12.248-.323.377-.47.165-.182.396-.173.539.032.137.18.188.473.507.3.064-.035.135.092.178.183.065.155.104.323.322.396-.14-.343-.226-.674-.557-.806-.181-.073-.216-.174-.102-.393.142-.27.367-.44.548-.655.205-.259.283-.49.182-.831-.102-.327-.016-.412.286-.388.289.022.5.24.76.34.142.056.107.21.07.347-.111.426-.105.426.25.67.177-.138.22-.383.352-.554.066-.095.155-.163.266-.139.124.023.146.148.172.255.051.19.064.376.023.57-.031.178-.065.362.013.571.165-.169.075-.357.11-.51.066-.287.19-.54.361-.758.066-.084.189-.204.26-.11.224.287.218.047.242-.112.018-.095.01-.194.124-.264.273.075.383.39.587.589.207-.516.21-.522-.126-.824a.609.609 0 0 1-.221-.494c.001-.226.001-.341.3-.364.356-.026.607-.038.717.416.078-.144.266-.124.202-.37-.1-.394-.078-.407.29-.408.235-.003.302-.099.235-.324-.03-.11-.084-.145-.188-.125-.136.03-.273.032-.408.066-.16.03-.248-.02-.326-.195-.188-.438-.196-.445.195-.707.118-.074.237-.145.377-.17.495-.1.669.042.714.672.29-.076.563-.042.699.348.04-.282-.065-.487-.088-.717-.014-.13-.04-.286.1-.35.135-.066.223.053.32.128.134.107.125.313.239.443.26-.149.398-.313.192-.624-.092-.138-.078-.299.074-.398.114-.074.137-.215.208-.319.176-.28.519-.28.709-.008.145.21.269.405.542.202.11-.088.24-.04.325.074.076.101.043.217.003.327-.086.236-.234.426-.37.62-.2.305-.342.622-.342 1.005.002.296-.06.569-.226.812-.053.071-.1.163-.005.289a.93.93 0 0 0 .266-.468c.271-1.016.909-1.801 1.341-2.716.063-.137.17-.266.327-.226.162.038.19.21.216.364.017.122.042.29-.012.389-.196.396-.008.763-.008 1.135.12.017.186-.023.209-.1.207-.751.659-1.398.743-2.197.017-.191.088-.287.275-.202.063.024.139.053.196.03.166-.064.337-.147.474.043.118.154.296.274.324.498.053.357-.152.643-.573.798-.025.094.025.154.084.188.283.148.337.359.165.646a.493.493 0 0 0-.07.155c-.024.13.057.17.142.19.1.028.194-.02.181-.134-.03-.314.016-.617.06-.919.064-.459.282-.63.667-.616.206.008.355.109.383.304.053.333.233.351.466.333.272-.026.502.097.674.32.248.313.601.491.843.812.262.333.262.55-.053.806-.058.047-.13.063-.176.114-.571.624-1.217.918-2.031.542.213.339.465.576.78.698.2.085.308.197.34.445.038.324.302.409.515.17.117-.129.234-.129.377-.121.396.016.715.245 1.088.552-.03-.448.388-.588.364-.988-.004-.121.107-.145.193-.112.116.042.232.088.334.159.252.184.487.415.8.499.215.06.295.25.232.499-.068.28-.242.427-.477.427-.218.008-.379-.18-.602-.218.266.457.753.483 1.11.754.105.086.265.079.306.276.042.192.188.258.322.194.538-.253 1.004.114 1.497.213.182.033.337.122.542.047.272-.107.555.011.796.148.295.162.59.341.84.57.572.523 1.169 1.017 1.685 1.612.265.302.559.578.715.98.043.115.133.28.267.146.188-.21.284-.04.367.094.142.223.29.438.495.583.162.118.302.487.573.12.05-.065.165.024.218.102.113.142.213.297.318.452.222.296.35.676.746.806.228.077.324.358.378.64.106.545.122 1.102.365 1.609.101.198.034.457-.03.677-.59 1.996-2.272 3.475-4.35 3.104a1.249 1.249 0 0 1-.613-.274 1.445 1.445 0 0 0-.764-.342c-.802-.101-1.523-.435-2.203-.89-.14-.09-.274-.185-.438-.128-.25.084-.396-.021-.484-.277-.023-.067-.079-.172-.139-.144-.361.183-.602-.184-.901-.263-.423-.11-.757-.45-.945-.915-.116-.293-.3-.452-.638-.357.256.53.484 1.043.743 1.528.143.266.36.46.625.585.107.049.279.065.31.187.164.582.68.691 1.048 1 .325.273.474.704.537 1.08.079.522.131 1.124-.295 1.552-.15.152-.142.31-.052.465.206.36.217.798.394 1.18.12.259.05.567.065.852.013.245.07.45.208.632.142.184.294.341.534.235.216-.089.363.018.498.19.049.057.095.114.13.18.354.66.98.88 1.56 1.15.461.206.985-.305.909-.848-.013-.09-.036-.187-.053-.278-.098-.467-.1-.49-.505-.353-.243.079-.405.011-.538-.193-.234-.36-.472-.706-.681-1.082-.136-.238-.196-.498.082-.703.159-.113.19-.315.237-.496.07-.263.224-.322.44-.234.258.11.534.234.704.469.314.427.745.578 1.18.738.21.08.432.127.62.282.301.255.597.473 1.033.313.243-.084.517.186.865.144-.161-.595-.351-1.141-.661-1.625a2.957 2.957 0 0 1-.486-1.374c-.023-.29.03-.519.296-.662.282-.16.507-.398.655-.722.075-.176.208-.33.384-.36.766-.11 1.09-.802 1.496-1.385.048-.077.078-.176.126-.254.177-.275.27-.31.496-.096.189.174.39.224.612.263.36.057.679.228.807.628.104.324.52.28.497.718.186-.186.168-.34.123-.483a1.396 1.396 0 0 1 .127-1.11c.278-.49.202-1.036.246-1.563.019-.275-.099-.543-.377-.617-.394-.11-.454-.43-.43-.8.013-.224.053-.457.117-.677.225-.798.261-1.62.28-2.444.008-.355-.078-.617-.34-.841-.257-.224-.511-.462-.707-.758-.051-.078-.086-.171-.016-.259.053-.067.13-.051.195-.032a.484.484 0 0 1 .14.065c.546.434 1.17.408 1.79.392.279-.006.547.034.814.13.277.102.476.27.561.611.07.27.174.542.46.642.135.045.155.196.173.332.033.188.056.379.093.564.117.584.117.584-.377.713-.117.033-.24.075-.359.075-.576.007-.819.496-1.086.931a.478.478 0 0 0 .074.581c.403.414.695.894.921 1.444.091.23.258.359.501.22.096-.051.209-.092.29.017.09.119.17.047.275.032.7-.128 1.213-.418 1.08-1.369-.021-.119.063-.254.08-.386.07-.654.319-1.122.968-1.197a.264.264 0 0 0 .252-.245c.035-.293.225-.374.425-.512.667-.473 1.375-.888 1.944-1.522.035-.04.07-.09.113-.115.525-.277 1.049-.555 1.58-.82.232-.11.394.023.508.25.043.083.1.178.201.091.071-.066.088-.158.065-.264-.038-.156-.276-.244-.148-.447.113-.166.242-.327.385-.465.194-.188.306-.132.313.164.003.048.051.09.073.128.14.002.146-.104.15-.197.021-.488.279-.773.662-.927.37-.151.773-.071 1.227-.259-.188.498-.542.388-.812.543.157.309.14.626.046.94-.107.391.058.76.087 1.141.007.118.11.195.225.183.154-.017.253.066.367.173.211.203.329.161.347-.169.02-.49.273-.782.608-.995.266-.166.591-.206.85-.4.4.174.844-.021 1.244.164.367.174.357.164.604-.197.39-.573.857-1.04 1.471-1.298.435-.182.441-.182.66.278.047.102.1.204.165.29.218.282.288.557-.006.842-.089.085-.123.23-.13.37-.01.228.048.41.236.538.13.085.26.094.384-.013.154-.14.266-.305.207-.55-.023-.09-.047-.18-.053-.276-.012-.24.053-.394.295-.449.833-.212 1.087-.717.85-1.642a4.273 4.273 0 0 0-.34-.959c-.211-.414-.229-.536-.257-1.084-.423.096-.767.005-.944-.5-.041-.13-.2-.172-.259.046-.048.177-.172.238-.25.07-.196-.42-.477-.784-.649-1.235-.218-.572.043-.988.26-1.423.107-.214.302-.235.42-.034.43.727 1.132 1.177 1.544 1.92.114.214.25.412.4.655.126-.089.211-.28.393-.29.16-.011.318.02.449.111.324.214.69.292 1.044.28.685-.016 1.26.322 1.862.595.363.17.743.285 1.02.646.19.253.308.499.295.823 0 .139.013.278-.002.407-.063.616.038 1.188.352 1.71.276.46.246.938.064 1.422-.089.23-.178.465-.178.72-.007.45.231.705.626.677.49-.033.566.043.601.599.014.25.025.499.015.752-.017.445-.173.826-.527 1.06a.76.76 0 0 0-.355.526 1.75 1.75 0 0 1-.726 1.078c-.266.186-.532.368-.797.538-.426.262-.743.631-.826 1.184-.076.528-.343.894-.716 1.218-.824.73-1.562 1.555-2.161 2.54-.323.519-.747.973-1.42.827-.201-.042-.366.073-.361.303.043 1.11-.425 2.086-.64 3.13-.074.343-.1.68-.011 1.023.109.43.061.837-.12 1.225-.1.204-.161.425-.249.633-.07.18-.07.32.08.46.21.186.226.46.196.736-.017.171-.041.35-.08.507-.172.619-.12 1.219.069 1.815.1.309.153.63.135.96-.016.263-.04.498-.347.537-.201.023-.19.208-.137.354.053.158.142.306.229.454.372.649.487 1.29.037 1.976-.236.352-.395.766-.737 1.022-.142.106-.188.269-.165.456.023.15.041.31-.013.457-.071.19.005.328.11.468.15.187.273.394.433.573.396.438.519.984.56 1.568.032.43-.158.786-.376 1.105-.22.324-.448.642-.709.92-.315.346-.555.73-.707 1.192a23.16 23.16 0 0 0-.39 1.312c-.1.37-.107.76-.061 1.14.1.794.441 1.072 1.14.935.918-.176 1.127.056.986 1.087-.02.133-.041.26-.064.393-.155.895-.899 1.262-1.608.804l-.04-.033c-.19-.123-.378-.355-.602-.134-.218.204-.064.465-.002.699.056.215.126.435.214.64.19.433.726.756 1.154.726.187-.015.329-.12.444-.27.245-.325.602-.44.94-.574.282-.114.445.034.408.364-.074.67-.165 1.324-.684 1.806-.289.267-.444.681-.64 1.04a.649.649 0 0 0-.071.446c.112.545.227 1.083.338 1.623.055.274.172.394.438.34.165-.035.342-.022.513-.003.273.024.475.179.49.49.036.704.55.957.974 1.274.266.2.549.375.89.42.267.034.36.266.326.555-.094.784-.555 1.273-1.264 1.345-.138.016-.289.029-.396-.08-.253-.257-.398-.122-.58.124-.228.3-.42.315-.727.118a1.31 1.31 0 0 0-.434-.17c-.236-.064-.389-.218-.493-.467-.208-.51-.45-.632-.892-.358-.332.213-.57.246-.94.043-.366-.195-.765.064-1.075.365-.074.075-.127.18-.2.262-.23.262-.49.325-.801.166-.314-.159-.586-.391-.838-.657-.18.139-.095.335-.132.485-.023.12-.054.237-.171.254-.124.024-.206-.074-.225-.191-.117-.78-.778-1.1-1.135-1.676-.118-.188-.34-.146-.53-.15-.342 0-.682.033-.945-.33-.146-.206-.359-.146-.547.026-.421.384-.424.381-.884.082-.29-.19-.556-.18-.725.115-.274.488-.699.734-1.13.977-.166.082-.295.166-.348.378-.085.308-.35.406-.562.562-.362.273-.368.28-.258.747.029.114.063.224.086.34.078.41-.228.845-.613.874-.206.012-.313-.137-.38-.324a2.282 2.282 0 0 0-.446-.77c-.213-.235-.325-.223-.38.092-.05.335-.18.585-.376.856-.23.308-.32.738-.159 1.133.132.32.088.545-.137.764-.165.163-.205.39-.246.619-.05.25-.02.46.236.554.265.1.338.34.383.626.06.409.134.466.509.499.14.007.274.007.417.012.122.004.247.036.333.134.491.531.786 1.151.677 1.95-.043.302-.217.358-.437.38-.095.006-.164.062-.169.183-.002.086.063.127.13.157.194.092.424.187.397.459a1.38 1.38 0 0 1-.324.773c-.19.22-.44.165-.594-.11-.042-.083-.072-.179-.113-.256-.03-.07-.036-.155-.117-.178a7.25 7.25 0 0 1-.907 2.395c-.09.146-.13.315-.2.466-.122.258-.11.437.146.618.227.164.34.474.477.743.058.125.035.36.294.237.094-.04.147.148.14.257-.01.192-.05.38-.093.564-.1.454-.047.863.178 1.267.295.52.548 1.066.826 1.6.155.3-.022.521-.17.711-.15.19-.308.36-.461.541a.582.582 0 0 1-.98-.1c-.272-.506-.674-.812-1.121-1.068-.354-.193-.727-.345-.805-.884-.032-.252-.313-.269-.487-.371-.411-.243-.836-.361-1.28-.096-.227.137-.429.115-.61-.098a.503.503 0 0 0-.076-.08c-.58-.575-1.194-.996-2.031-.911-.556.053-1.085-.21-1.595-.455-.307-.146-.613-.263-.945-.06-.135.084-.263.032-.382-.069-.198-.18-.42-.326-.566-.576-.207-.349-.504-.581-.828-.766-.383-.215-.814-.337-1.116-.706-.04-.054-.124-.084-.189-.084-.327 0-.484-.243-.629-.519-.05-.096-.1-.21-.18-.271-.18-.134-.324-.45-.601-.052-.126.178-.473.242-.734.105-.338-.17-.54.04-.82.226-.445.3-.884.606-1.318.925-.17.128-.37.105-.553.063-.277-.07-.383-.252-.365-.579.01-.155.023-.31.023-.458-.006-.188-.06-.348-.227-.423-.257-.109-.452-.336-.74-.386-.267-.042-.296-.236-.08-.433.362-.34.687-.752 1.307-.817-.387-.285-.684-.31-.973-.18-.514.224-.874-.247-1.32-.33-.028-.26-.174-.443-.31-.635-.04-.065-.078-.163-.141-.146-.307.089-.662.065-.885.393-.133.194-.28.392-.374.613-.13.31-.276.55-.587.678-.25.104-.388.367-.381.694.007.15 0 .309 0 .459.013.416-.094.745-.478.924-.272.13-.438.423-.657.642-.138.139-.122.345-.129.541-.01.327.02.648-.063.973-.059.254-.16.466-.408.546-.307.1-.434.353-.434.694.004.22-.02.42-.205.558-.198.15-.181.333-.08.549.18.383.406.748.43 1.213.012.214.205.348.384.444.2.109.406.196.62.28.14.056.254.13.247.322 0 .194-.101.315-.26.386a.66.66 0 0 1-.454.026c-.614-.148-1.146-.016-1.605.499-.306.34-.71.546-.987.928-.094.125-.244.27-.4.125-.141-.125-.082-.318-.02-.48.038-.101.101-.19.145-.266a2.655 2.655 0 0 0-1.342-.7c-.305-.064-.416-.007-.484.325-.038.192-.079.348-.28.321-.217-.032-.204-.214-.167-.395.003-.03-.02-.065-.045-.145-.216.188-.505.201-.729.433.17.272.536.337.574.737-.197.123-.313-.141-.488-.11-.07.134.09.213.085.339 0 .08-.019.214-.053.197-.219-.132-.38.155-.578.094-.123-.04-.202-.153-.255-.275-.14-.312-.39-.474-.66-.653-.18.168-.144.39-.096.578.082.312.19.628.371.876.201.29.385.547.447.944.049.318.368.55.678.648.293.09.47.26.549.605.082.352.435.468.654.7.188.199.282.477.5.647.056.043.048.146-.015.195a.174.174 0 0 1-.139.045.237.237 0 0 1-.142-.066c-.323-.395-.766-.6-1.15-.902a1.226 1.226 0 0 0-.023.127c-.024.66-.02.66-.508.326-.071-.052-.15-.108-.231-.117-.114-.017-.26-.055-.318.098-.05.124.033.218.106.303.047.05.109.097.154.154.133.174.081.28-.078.419-.14.12-.413.064-.436.312-.016.184.06.376.107.561.082.328.025.652 0 .972-.013.122-.047.237-.184.227-.124-.007-.182-.112-.196-.227-.03-.22.072-.48-.194-.611-.105-.015-.117.098-.152.177-.047.106-.09.23-.219.19-.09-.021-.116-.125-.148-.22-.046-.145-.087-.289-.147-.425-.044-.096-.116-.112-.218-.059-.344.178-.532.073-.578-.32a.732.732 0 0 1 .011-.284c.073-.263-.024-.423-.21-.584-.44-.387-.44-.827-.028-1.253.061-.055.18-.033.185-.216-.425.111-.6-.162-.75-.548-.243-.632-.614-1.189-.967-1.751-.072.093.016.179 0 .273-.029.13-.102.199-.225.17-.253-.06-.441-.587-.278-.824.083-.12.18-.235.025-.318-.715-.376-.646-1.046-.52-1.717.087-.472-.065-.963.117-1.421.028-.072-.012-.149-.058-.212-.52-.703-1.132-1.304-1.842-1.74-.353-.211-.76-.466-1.224-.292a.348.348 0 0 1-.152.005c-.108-.014-.218-.039-.221-.185-.003-.122.097-.142.183-.163.05-.01.103-.004.155-.013.12-.015.284-.049.273-.197-.023-.193-.183-.276-.359-.215-.531.192-.81-.313-1.143-.572-.207-.16-.395-.41-.604-.61-.232-.232-.494-.44-.375-.864.031-.106-.033-.18-.098-.244a1.16 1.16 0 0 1-.309-.655c-.027-.21-.141-.326-.312-.309-.206.023-.12.228-.128.361-.008.064-.014.114-.072.146-.128.015-.16-.112-.214-.2-.052-.08-.098-.168-.205-.102-.319.213-.428-.053-.548-.295-.255-.513-.286-.785-.13-1.27-.246-.103-.463-.03-.68.094a3.657 3.657 0 0 1-.566.277c-.303.114-.379.283-.207.554.147.244.13.428.06.69-.164.602-.102 1.313.548 1.6.296.131.546.399.808.61.194.157.266.396.341.632.101.325.215.646.315.974.226.725.802 1.081 1.293 1.53.158.146.367.02.555.03.152.004.305-.035.463-.04.345-.01.528.266.345.597-.172.298-.083.438.147.515.702.235 1.255.79 1.926 1.103.458.215.659.752.89 1.218.078.155-.018.338-.1.486-.085.138-.2.148-.318.061-.07-.05-.155-.103-.183-.188-.19-.475-.648-.548-.975-.81a.237.237 0 0 0-.142-.058c-.296.055-.428.327-.53.578-.094.231-.236.502.03.734.117.104.246.21.353.337.319.376.253.95-.149 1.209-.203.125-.305.278-.305.536a.55.55 0 0 1-.2.454c-.16.116-.256.3-.35.489-.2.363-.347.418-.668.198-.146-.104-.217-.081-.285.05-.205.4-.44.798-.228 1.292a.68.68 0 0 1 .036.284c-.036.59-.368.81-.85.554-.125-.065-.229-.17-.34-.263-.08-.07-.151-.194-.239-.216-.695-.157-1.155-.832-1.842-1.016-.319-.083-.46-.57-.323-.907.034-.09.093-.221.158-.21.398.097.791-.31 1.188-.008.243.185.517.208.796.154a14.661 14.661 0 0 0 1.76-.448c.123-.04.247-.123.254-.252.005-.3.11-.504.342-.654.064-.036.053-.128.04-.208-.093-.616-.437-1.125-.553-1.73-.008-.056-.067-.077-.119-.09-.455-.083-.785-.32-.88-.867-.023-.14-.1-.262-.236-.256-.43.026-.638-.342-.84-.643-.236-.359-.495-.582-.9-.525-.244.033-.439-.064-.61-.237-.206-.21-.439-.394-.595-.643-.266-.433-.715-.66-.962-1.11-.023-.049-.084-.11-.12-.1-.5.075-.513-.474-.75-.722-.247-.268-.478-.527-.536-.953-.059-.393-.224-.762-.348-1.145-.018-.051-.03-.13-.064-.149-.475-.313-.904-.718-1.459-.833-.33-.07-.573.183-.714.468-.213.409-.514.596-.913.67-.484.079-.759.507-1.08.843-.527.553-.742.654-1.412.307-.586-.319-1.244-.245-1.832-.523-.117-.054-.231.01-.335.09-.191.13-.381.263-.578.385-.245.14-.357.362-.302.66.053.297.031.597.172.892.163.35-.055 1.042-.36 1.26-.67.468-1.264 1.073-2.063 1.284-.265.065-.429.278-.584.529-.346.597-.72 1.171-1.092 1.75-.41.63-.383 1.003.147 1.511.192.188.179.36.037.55a.744.744 0 0 1-.189.195c-.449.293-.672.765-.803 1.295-.07.287-.218.41-.467.45-.447.078-.74.355-.89.844-.113.378-.347.517-.735.573-.572.083-1.134-.023-1.697.016-.367.023-.702.083-1.037.293-.339.211-.695.362-.97.71-.236.296-.712.158-1-.216-.195-.25-.312-.55-.43-.851-.249-.624-.678-.934-1.22-.677-.532.249-1.052.15-1.577.152-.397.007-.52-.152-.39-.564.165-.513.087-1.027.112-1.543.005-.124.005-.247-.142-.325-.831-.437-.831-.958-.437-1.77.48-.985.508-2.066.74-3.1.085-.372-.103-.826-.173-1.238-.03-.169-.102-.336-.059-.508.147-.559-.083-1.012-.317-1.454-.255-.488-.178-.81.294-.997.112-.04.236-.05.355-.063.172-.011.276-.1.363-.269.267-.511.569-.64 1.07-.444.396.155.797.256 1.217.244.07 0 .147.017.205-.007.575-.269 1.123-.015 1.67.1.533.1 1.047.145 1.59.091.54-.05 1.095.072 1.64.148.26.032.513.044.776.023.286-.016.447-.181.5-.476.08-.49.172-.982.23-1.478.071-.668.124-1.337.165-2.003.023-.375-.083-.742.003-1.129a.488.488 0 0 0-.31-.542c-.494-.168-.673-.682-.955-1.082-.066-.097-.108-.209-.06-.324.124-.298-.094-.353-.23-.527-.39-.51-1-.554-1.451-.92-.202-.16-.452-.25-.74-.157-.27.087-.708-.334-.68-.651.02-.19-.003-.328-.124-.462-.206-.235-.08-.423.085-.579.233-.213.52-.309.811-.352.204-.03.392-.087.583-.197.278-.16.6-.204.863.073.234.249.487.295.805.22.225-.053.468-.12.73-.07.012-.491-.003-.942-.255-1.342a.33.33 0 0 1-.025-.047c-.147-.343-.137-.647.025-.738.195-.118.697.02.826.232.218.35.917.644 1.275.52.144-.047.32-.096.329-.315.04-.538.4-.722.78-.882.259-.103.531-.176.75-.38.165-.157.294-.318.243-.594-.024-.105-.006-.227.002-.337.078-.803.25-1.054.944-1.23.556-.142.96-.593 1.467-.828.106-.052.134-.263.314-.255.18.015.21-.072.1-.234-.067-.101-.005-.167.065-.24.702-.75 1.062-1.657 1.075-2.751.003-.28.182-.51.408-.661.123.146.033.245.015.355-.012.09-.076.238-.04.266.366.364.167.798.148 1.213-.007.05.042.1.105.216.07-.237.101-.425.195-.6.087-.154.087-.333.013-.54-.266-.682.063-1.296.744-1.319.343-.012.671-.184 1.02-.1.136.03.212-.093.295-.196.43-.532.832-.614 1.346-.247.236.167.337.09.418-.17.036-.1.07-.246.148-.293.405-.24.306-.6.154-.927-.107-.225-.114-.383.034-.562.095-.115.09-.237.016-.366-.265-.44-.258-.943-.274-1.442-.016-.348-.048-.665-.425-.75-.172-.033-.213-.173-.203-.343.013-.402-.068-.8-.093-1.202-.04-.742.164-1.444.408-2.118a.813.813 0 0 1 .696-.533c.444-.052.773-.25.997-.706.172-.346.511-.502.822-.673.148-.087.25-.01.224.168-.03.258.005.497.058.74.05.222-.016.419-.118.605-.186.347-.171.735-.188 1.119-.018.264.088.403.33.387.2-.016.39 0 .459.26.066.271-.039.481-.233.647-.115.09-.225.185-.368.203-.047.01-.127.034-.13.064-.076.58-.593.837-.793 1.326-.145.324.002.687-.132 1.03.081.01.152.01.213.04.388.157.431.272.278.722-.055.155.063.79.151.787.313-.028.538.315.89.204.267-.087.398.182.274.47-.064.14-.243.212-.225.415.332.035.601-.027.83-.28a.546.546 0 0 1 .268-.162c.276-.083.5-.237.68-.496.135-.197.33-.301.541-.134.29.223.413.1.498-.236.027-.136.11-.312.289-.262.181.048.36.126.412.378.073.366.006.528-.442.806.405-.004.49.277.62.525.188.35.288.325.606.106.414-.298.822-.631 1.33-.737.467-.097.86-.33 1.233-.67.643-.592 1.423-.848 2.237-.955a.894.894 0 0 1 .812.29c.113.134.209.299-.009.422-.152.09-.124.193-.071.333.063.148.158.17.295.157.633-.06 1.173-.402 1.234-1.08.025-.262.166-.424.408-.43.296-.001.472-.204.631-.432a1.94 1.94 0 0 0 .354-1.398c-.04-.36-.081-.73-.1-1.088-.035-.664-.024-1.349.313-1.946.124-.222.163-.464.225-.703.18-.799.666-1.277 1.374-1.357.113-.009.206.012.268.123.257.455.654.792.85 1.3.131.326.369.44.625.386.337-.075.508-.273.551-.661.015-.11.015-.233.009-.346-.03-.635.048-1.261.126-1.895.01-.117.11-.252-.047-.379-.165.116-.32.195-.552.078-.37-.181-.535-.503-.561-.891-.026-.375-.05-.755-.094-1.136-.028-.255 0-.564.238-.646.46-.165.822-.532 1.298-.689.417-.139.938.045 1.274-.417.024-.032.1-.026.148-.02.436.105.897.15 1.292.376.312.183.621.212.945.202.477-.007.477-.007.56-.558.025-.187.07-.331.294-.286.337.068.676-.127.87-.317.326-.318.615-.37.985-.252.113.03.266.073.302-.107.042-.18-.089-.286-.224-.328a.453.453 0 0 0-.304 0c-.417.158-.677-.158-.99-.353-.368-.233-.436-.555-.262-1.009-.263.123-.38.384-.61.344-.41-.071-.809.216-1.217 0-.058-.034-.165.03-.248.055-.727.243-1.44.52-2.15.824-.659.279-1.338.517-2.018.75-.164.052-.326.085-.457.217-.073.072-.18.138-.281.049-.088-.083-.005-.172.014-.257.035-.16.029-.323-.094-.418-.115-.094-.166.082-.25.131a.347.347 0 0 1-.435-.036c-.126-.123-.005-.25.038-.36.1-.245.084-.527-.104-.617-.344-.152-.599-.475-.939-.587-.28-.096-.304-.288-.373-.538-.19-.702.16-1.34.16-2.029-.003-.455-.036-.867-.19-1.266-.072-.203-.14-.386-.11-.604.04-.316-.019-.602-.116-.898-.188-.574-.14-1.11.263-1.604.175-.221.467-.371.483-.752.012-.193.202-.235.372-.233.195.014.378-.036.514-.212.235-.304.514-.57.692-.928.33-.707.767-1.315 1.227-1.924.307-.402.68-.787.805-1.319.109-.456.301-.741.722-.864.35-.108.373-.187.31-.583a1.48 1.48 0 0 1 0-.455c.05-.322-.054-.595-.21-.865-.196-.346-.512-.56-.75-.868-.094-.125-.34-.328-.483-.219-.218.177-.365.111-.559.005-.158-.087-.355-.097-.497.017-.197.157-.354.141-.57.042-.28-.13-.499-.006-.58.252-.142.465-.384.825-.797 1.037a.36.36 0 0 0-.188.47c.15.437 0 .82-.247 1.116-.274.335-.157.63-.031.948.039.105.13.181.182.278.2.376.176.59-.138.834-.15.12-.257.254-.347.417-.371.733-.72 1.487-1.493 1.814-.028.01-.042.072-.064.09-.438.197-.77.564-1.147.867-.181.153-.33.295-.47.49-.296.401-.344 1.027-.893 1.2-.075.02-.069.164-.075.263-.027.408-.22.654-.643.71.234.377.198.731.094 1.085-.07.245-.064.492-.018.738.035.193.056.4-.177.466-.178.054-.195.205-.183.36.041.635.048 1.264.15 1.893.073.45.289.686.65.769a.458.458 0 0 1 .374.338c.048.127.15.209.236.294.329.332.47.806.71 1.206.1.167.027.38-.054.548-.172.353-.337.71-.697.884.081.09.152.047.218.048.162.016.23.114.149.272-.23.423-.506.921-.889 1.076-.375.146-.634.427-.966.605-.218.115-.365.263-.36.638.006.678-.132 1.361-.182 2.04-.03.38-.054.747-.142 1.125-.077.319-.165.667-.116 1.1.24-.286.265-.562.352-.808.083-.222.094-.515.437-.59-.135.9-.43 1.682-.623 2.488-.002.019-.015.04-.022.052-.064.11-.105.283-.246.254-.155-.038-.124-.204-.116-.34.009-.125.088-.255-.021-.424-.076.219-.149.41-.214.604-.17.531-.17.538-.701.529-.205-.007-.413-.022-.62-.017-.514.01-.918.469-.92 1.02 0 .798 0 .798-.727.828-.272.007-.527.172-.814.109-.223-.05-.427-.086-.334-.427.021-.082.009-.153-.069-.19-.088-.047-.164.008-.235.07-.096.088-.087.2-.032.307.069.135.173.305.062.426-.359.352-.383.825-.443 1.293-.012.095-.056.183-.096.265-.026.073-.075.148-.151.116-.36-.155-.802.027-1.109-.342-.068-.072-.162-.154-.266-.039-.179.188-.253.028-.286-.127-.026-.147-.005-.299-.005-.482-.66-.014-1.044-.405-1.18-1.11a5.325 5.325 0 0 0-.042-.222zm37.062 18.733c-.054-.123-.139-.123-.225-.082-.338.143-.697.202-1.053.26-.26.047-.488.133-.724.26-.294.16-.591.294-.84.531-.36-.172-.597.24-.92.246-.31.008-.503.23-.693.443-.186.208-.251.568-.606.552-.065-.007-.053.066-.058.123-.045.36-.09.705.159 1.022.096.125.173.24.33.221.183-.013.362-.01.55-.08.312-.112.651-.253.991-.079a.838.838 0 0 0 1.097-.29c.201-.309.353-.65.625-.907.32-.303.307-.354-.04-.628-.03-.024-.061-.033-.087-.056-.125-.103-.272-.199-.232-.41.048-.23.225-.267.397-.295.12-.015.295.023.351-.055.244-.32.598-.427.897-.646.036-.026.056-.082.081-.13zm-22.747-18.264c-.099.192-.206.382-.307.577-.046.093-.015.182.076.232.103.058.228.054.25-.076.034-.235.135-.457-.019-.733zm-5.463-10.811c.256.137.51.294.773.421.103.051.263.117.311-.05.053-.176-.107-.225-.223-.24-.284-.021-.563-.104-.86-.131zm55.316-64.053c.41-.204.425-.211.3-.61-.095-.313-.017-.566.132-.812.14-.245.34-.341.57-.212.18.097.351.148.545.157.335.022.614.116.613.532.584.08.961-.298 1.369-.606.13-.096.289-.238.426-.146.45.317.707-.092.996-.306.223-.169.342-.489.678-.465.11.007.155-.136.2-.243.062-.149.135-.254.315-.223.25.04.307-.178.266-.37-.136-.604.172-.947.571-1.222.194-.128.382-.251.489-.483a.272.272 0 0 1 .255-.168c.166-.005.292-.098.426-.19.867-.612 2.09-.05 2.33 1.067.043.188.092.376.145.553.057.21.087.416-.052.601-.11.156-.143.273.008.44.13.139.018.295-.087.396-.243.224-.413.512-.555.822-.117.249-.282.491-.13.786-.075.033-.111.075-.132.063-.425-.212-.759-.078-1.055.306-.534.7-1.276.928-2.048 1.076-.158.029-.324.058-.424.191-.473.69-1.227.938-1.812 1.439-.072.062-.18.146-.232.115-.398-.174-.512.176-.714.421-.248.31-.499.605-.88.762-.302.13-.555.44-.75.76-.144.237-.306.465-.45.705-.333.547-.824.683-1.379.632-.07.11.012.172.071.238.2.205.154.411-.005.6-.19.23-.38.448-.403.782-.006.115-.08.228-.194.254-.362.073-.405.336-.3.718-.417.028-.585-.442-.958-.488-.058.298.114.576-.011.88-.185.452-.237.499-.581.141-.025-.026-.057-.04-.092-.063-.088.12.018.208.051.294.257.624.209 1.086-.227 1.55-.113.121-.213.182-.233.382-.01.207-.164.231-.306.125-.14-.11-.273-.238-.336-.424-.047-.142-.088-.296-.19-.412-.137.364-.14.37.035.622.218.31.355.646.31 1.054-.019.17-.016.361-.196.434-.2.076-.272-.113-.36-.247-.036-.06-.077-.129-.2-.098.093.287.336.498.336.813-.007.298-.213.454-.613.432.34.506.028.85-.202 1.23-.208.347-.46.336-.794.214.345.3.46.616.22 1.053-.08.151-.105.363-.095.558.009.18-.05.375-.181.458-.491.3-.425.908-.643 1.356a2.334 2.334 0 0 0-.165 1.567c.018.075.041.166.018.23-.273.665.058 1.31.061 1.973.002.36.096.717.286 1.035.137.22.235.474.284.737.117.598.441 1.035.844 1.406.29.27.535.594.909.756.211.093.24.327.1.527-.158.225-.344.425-.525.63-.089.096-.195.082-.284-.005-.099-.104-.195-.216-.296-.318-.064-.077-.122-.082-.213-.005-.305.26-.601.294-.86.034-.254-.265-.431-.267-.633.04-.118.186-.264.139-.4.016a2.287 2.287 0 0 1-.153-.158c-.243-.277-.425-.587-.894-.434-.358.117-.64-.295-.701-.726-.056-.447-.006-.793.42-.93.007-.1-.03-.14-.077-.156-.454-.112-.661-.458-.73-.926-.037-.278-.121-.408-.41-.333-.365.09-.328-.277-.39-.532-.208.009-.182.257-.312.339-.347.24-.865.103-1.074-.339-.326-.68-.312-1.411-.14-2.13.064-.287.253-.498.571-.467.377.024.608-.126.65-.598.03-.294.146-.588.258-.862.148-.345.093-.61-.135-.878-.375-.441-.355-.683.071-1.077a.893.893 0 0 1 .26-.188c.282-.108.318-.383.328-.646.038-.819.562-1.34 1.317-1.282-.005-.432.05-.853.203-1.3-.36-.115-.614-.386-.793-.738-.099-.2-.132-.389.144-.499.37-.15.571-.595.965-.74.053-.017.079-.162.098-.255.055-.23.176-.411.34-.564.054-.049.149-.106.143-.153-.025-.392.23-.481.489-.53-.017-.078-.017-.118-.035-.151-.089-.145-.341-.198-.246-.442.086-.221.297-.144.466-.17.08-.019.167-.03.269-.147-.242-.156-.424-.377-.47-.688-.034-.227-.01-.432.27-.432.251-.003.438-.196.682-.275-.115-.28-.292-.172-.452-.167-.288.019-.37-.132-.253-.423.048-.118.118-.23.164-.353.054-.16.16-.364-.148-.327-.105.012-.146-.073-.176-.17a1.313 1.313 0 0 1 .018-.898c.112-.31.425-.347.62-.081.071.104.084.275.243.244a.456.456 0 0 0 .335-.244c.078-.125.135-.264.188-.403.179-.425.367-.563.757-.529.518.05.69-.132.737-.724.036-.477.148-.922.617-1.087.139-.044.204-.118.227-.265.098-.656.545-.95 1.028-1.187.366-.181.732-.324.839-.841.036-.182.224-.286.371-.382.148-.105.289-.22.479-.115.22.12.07.326.06.512zM51.935 14.677c.483-.363.491-.363.828.013.26.287.49.59.684.937.119.202.195.425.106.653-.135.358-.13.758-.265 1.11-.119.31-.003.536.134.773.1-.244.025-.51.114-.764.166-.467.348-.526.675-.179a.437.437 0 0 1 .121.185c.192.67.526 1.307.346 2.054-.017.07-.032.15-.037.225-.018.351.043.502.339.527.534.057.786.407.91.938.061.254.216.403.397.572.431.413.885.717 1.463.766.06.008.13.06.172.113.241.288.112 1.3-.19 1.484-.07.04-.176.08-.248.056-.531-.179-.901.162-1.298.456-.273.203-.568.33-.58.769-.007.158-.176.23-.292.318-.192.14-.275.321-.261.577.03.65-.139 1.294-.111 1.948.01.378-.03.41-.396.406-.257-.004-.273.12-.267.353.024.882-.016 1.76-.156 2.631-.076.488-.073.488-.509.592-.15.04-.286.097-.225.307.07.232-.048.338-.186.475a.802.802 0 0 0-.242.557c-.023.514-.046 1.03-.059 1.544-.01.254.001.515-.159.71-.218.273-.223.598-.193.927.025.233.025.463-.051.682-.154.451-.635.638-.983.386a.29.29 0 0 1-.104-.248c.031-.465-.227-.766-.516-1.008-.6-.499-.53-.902.258-1.129.063-.016.139 0 .167-.098-.136-.199-.312-.114-.471-.08-.416.083-.798.133-.947-.468-.05-.202-.264-.236-.423-.306-.301-.137-.488-.372-.63-.707a4.037 4.037 0 0 1-.327-1.718c.006-.26.149-.427.343-.533.172-.093.34-.033.454.148.039.06.065.135.154.094.417-.19.808-.009 1.204.101.049.011.094.01.186.016-.078-.226-.245-.208-.379-.25-.243-.075-.515-.074-.728-.264-.235-.21-.222-.437.054-.56.367-.15.679-.46 1.104-.451.177.007.295-.164.442-.377-.289-.002-.522.125-.75-.018-.117-.078-.224.035-.314.127-.27.276-.594.377-.95.398-.217.018-.435.032-.655.124-.275.12-.47 0-.507-.285-.065-.47-.124-.947-.152-1.422-.03-.442.094-.592.484-.628.366-.033.679-.28 1.044-.287.095 0 .142-.092.19-.176.175-.324.305-.694.649-.863.071-.033.065-.122.081-.195.12-.557.603-.694 1.023-.557.2.065.39.181.585-.052-.113-.388-.734-.292-.616-.906-.243.18-.423.313-.604.443-.173.123-.297.095-.446-.087-.241-.29-.31-.63-.296-1.025-.14-.115-.342.118-.465-.092-.09-.154-.092-.328-.178-.506-.13.078-.121.217-.117.337.004.529-.155 1.063.117 1.575.095.187.012.415-.217.395-.28-.019-.302.153-.355.373-.166.744-1.088 1.066-1.606.572-.094-.094-.155-.232-.118-.36.075-.289-.047-.42-.254-.544-.229-.138-.262-.44-.36-.681-.065-.16.023-.301.174-.357.104-.035.217-.05.334-.075-.058-.13-.153-.126-.234-.149-.634-.203-.978-.742-1.242-1.364a.574.574 0 0 1 .023-.497c.137-.259.046-.424-.112-.61-.1-.1-.178-.23-.255-.36-.05-.093-.104-.208 0-.31.091-.092.202-.07.286.005.164.139.34.256.548.303.063.017.135.033.206-.034-.052-.164-.237-.114-.313-.246-.206-.364-.592-.65-.282-1.191.082-.148.082-.4.16-.598-.178-.057-.186.085-.224.18-.064.133-.108.28-.173.418-.07.14-.178.253-.331.237-.165-.024-.212-.18-.237-.336-.04-.301-.08-.604-.217-.882a2.258 2.258 0 0 1-.23-1.161 1.29 1.29 0 0 0-.095-.563c-.082-.195-.078-.373.114-.49.169-.1.13-.248.066-.394a1.185 1.185 0 0 1-.099-.557c.013-.097.02-.2.12-.233.097-.027.171.017.217.104.053.09.101.178.172.31.053-.227-.034-.364-.058-.513-.03-.164-.013-.356.124-.4.188-.06.266-.203.37-.352.15-.205.256-.174.397.067.106.192.135.434.337.597.125-.208.016-.389.021-.567.002-.139.018-.286.15-.337.149-.064.202.075.265.193.183.358.3.397.603.194.165-.112.297-.27.468-.365.205-.125.458-.282.665-.052.205.228.248.545.177.865-.066.289-.255.444-.507.507-.083.02-.172-.018-.255-.013-.149.004-.272.056-.353.2-.156.254-.312.498-.626.616.206.147.322.03.438-.023.146-.067.295-.124.453-.111.272.02.376.141.254.402-.126.271-.078.371.136.539.27.216.296.62.442.947-.048-.357-.106-.715-.146-1.067-.031-.269-.072-.551.046-.8.237-.468.466-.935.607-1.451.066-.228.193-.261.405-.152.52.267.783.724.871 1.324.052.378.123.761.127 1.142.002.64.257 1.237.21 1.88-.006.056-.006.138.024.166.414.448.479 1.093.745 1.623.008.018.028.025.07.05.045-.138-.012-.26-.062-.362-.47-1.024-.496-2.147-.578-3.25a82.275 82.275 0 0 0-.166-2.002c-.045-.468-.032-.954.232-1.38.129-.208.112-.472.126-.722.01-.283.097-.522.288-.715.166-.16.3-.155.435.047.124.189.225.385.231.628.007.166.017.339.023.574zM23.98 128.051c-.029-.238.13-.347.247-.476.446-.481.904-.947 1.234-1.55.255-.45.618-.708 1.125-.636.405.063.71-.069.846-.54-.1-.069-.152.037-.212.086-.39.323-.453.323-.83-.05-.091-.088-.165-.22-.302-.178-.263.085-.462.028-.648-.21-.103-.126-.215.022-.317.07-.352.19-.653-.005-.693-.435-.016-.191.085-.28.21-.356.284-.188.573-.35.845-.554.423-.318.525-.828.289-1.308-.081-.172-.196-.099-.306-.048-.101.051-.212.09-.28-.034-.063-.123.037-.212.101-.3.065-.086.138-.167.208-.258.143-.176.283-.347.072-.585-.048-.049-.078-.139-.023-.207.064-.087.158-.066.228-.005.402.34.834.012 1.252.073.112.014.13-.117.153-.244.08-.388-.021-.804.142-1.18.045-.105-.024-.169-.119-.21-.725-.303-.923-.834-.601-1.6.041-.1.081-.205.166-.406-.384.21-.723.307-1.058.417-.183.058-.328.176-.523.058-.037-.023-.115-.016-.144.012-.118.119-.237.284-.373.062-.137-.221-.253-.466-.13-.751.078-.174.132-.359.237-.508.347-.495.19-1 .072-1.512-.03-.11-.089-.17-.19-.132-.112.036-.188.128-.15.258.028.078.122.135.157.218.14.346 0 .6-.352.57-.132-.012-.132.07-.174.145-.059.12-.134.249-.273.192-.174-.075-.127-.254-.095-.396.043-.184.096-.373.174-.544.094-.22.023-.36-.142-.487-.154.11-.232.285-.312.447-.071.146-.164.28-.32.23-.14-.051-.321-.101-.33-.317-.01-.157.081-.327.218-.353.354-.066.504-.433.785-.613.273-.174.195-.589.396-.866-.208-.04-.264.073-.318.194-.149.303-.408.392-.693.394-.098.002-.252-.085-.2-.197.172-.38.059-.862.409-1.19.362-.345.295-.655-.172-.83-.353-.133-.425-.531-.69-.74-.066-.048-.037-.181.005-.271.113-.239.297-.482.497-.53.244-.06.241.295.327.49.094.214.137.475.416.578-.378-.41-.054-.841-.07-1.255 0-.022 0-.046.008-.056.569-.414.438-1.228.82-1.76.25-.349.368-.477.772-.4.42.084.82-.043 1.227-.117.205-.042.43-.129.557.118a.665.665 0 0 1-.092.75c-.247.287-.42.663-.76.851-.107.059-.244.205-.166.314.177.244-.006.405-.136.714.817-.487 1.575-.264 2.325-.264.466.003.708.402.474.854-.396.76-.484 1.688-1.022 2.368-.06.077-.108.161-.06.262.19.37 0 .476-.282.53-.086.01-.173.042-.222.138.008.139.11.135.188.116.564-.12.93.214 1.292.632.38.44.585.922.6 1.53.013.414.266.74.427 1.102.034.094.104.16.19.177.587.16.772.728.995 1.242.066.152.09.33.2.464.205.248.36.51.226.876-.047.12.04.219.104.309.238.337.257.656-.016.98-.065.082-.149.197-.027.296.081.07.164.008.23-.056.258-.24.563-.286.876-.245.396.055.748.414.804.86.071.546.043 1.082-.347 1.499-.185.192-.258.508-.555.576-.061.014-.107.138-.152.22-.208.382-.18.455.199.511.034.002.07.002.103.002.156.019.327.01.38.223.058.216-.065.363-.198.494-.469.47-1.036.704-1.65.7-.398-.004-.782.191-1.18.063-.094-.034-.1.08-.125.145-.116.287-.306.28-.514.149-.213-.138-.4-.088-.629-.003-.312.115-.656.343-.988-.06-.183-.231-.737.003-.86.314-.236.589-.236.583-.804.458-.348-.072-.707-.129-.95.237-.287.44-.637.42-1.033.255zM2.327 91.435c.302.072.552-.085.803-.257a.397.397 0 0 0 .167-.204c.086-.26-.346-.155-.235-.422.061-.15.185-.277-.027-.424-.21-.15-.327-.378-.366-.663-.03-.215-.152-.285-.365-.297-.397-.02-.786-.106-1.162.132-.146.092-.315.066-.386-.139-.071-.195-.04-.418.165-.467.474-.12.91-.349 1.364-.51.214-.076.442-.034.684-.017-.034-.057-.047-.094-.07-.106-.461-.223-.484-.392-.11-.739.118-.105.27-.169.382-.373-.228.016-.344-.135-.477-.27-.237-.248-.486-.273-.748-.057-.204.162-.434.235-.65.348-.147.078-.297.094-.446.003a.65.65 0 0 0-.548-.069c-.137.045-.29.052-.296-.183-.006-.233.148-.435.32-.43.1 0 .189.103.306.049.095-.178-.077-.273-.117-.4-.084-.287-.064-.322.218-.298.05.007.096.011.147.013.058-.153.105-.327.047-.456-.1-.244.01-.378.13-.55.247-.366.528-.449.721-.082.189.37.495.353.739.534.07-.156.005-.277-.075-.32-.323-.164-.381-.565-.614-.809-.157-.162-.086-.37-.012-.536.073-.158.222-.114.365-.086.53.09.854.526 1.215.892.096.1.158.248.27.342.49.42.577.752.365 1.406-.034.115-.073.216.014.318a.708.708 0 0 1 .166.41c.016.106.052.191.158.191.127 0 .17-.104.188-.224.007-.059.007-.12.018-.174.104-.437.184-.47.603-.225.162-.303.11-.621.064-.941-.035-.251-.173-.58.09-.737.307-.174.425.213.603.397.168.183.195.482.399.644.038-.05.081-.086.078-.102-.165-.702.33-.898.726-1.167.148-.102.25-.063.343.1.122.231.274.433.378.774.129-.238.02-.368.006-.496-.02-.139-.024-.27.08-.367.126-.113.264-.074.39-.003.13.068.226.18.306.303.138.213.279.17.351-.03.13-.331.281-.428.602-.266.282.14.447-.015.477-.371a1.48 1.48 0 0 0-.005-.294c-.036-.24-.03-.435.24-.541.244-.096.424-.118.568.164.084.17.254.249.325.44.159.419.167.407.526.212.11-.065.195-.155.282-.244.1-.114.231-.17.373-.172.088-.002.174.024.22.115.056.11-.021.172-.079.243-.355.401-.355.401-.473.778.5.103.538.155.485.74-.019.19-.049.356.194.353.14-.007.232.066.256.223.033.171.1.245.245.107.137-.125.224-.027.286.103.158.322.312.647.196 1.034-.034.12-.056.226.084.278.315.119.257.404.156.61-.195.398-.307.88-.744 1.06-.119.053-.123.15-.138.274-.066.579-.421.938-.795 1.296-.094.089-.188.094-.276.024-.098-.078-.185-.177-.286-.276-.363.41-.705.893-1.156 1.244-.142.112-.275.27-.448.277-.741.024-1.199.57-1.671 1.087-.451.492-1.15.638-1.758.373-.273-.12-.539-.265-.84-.287a.852.852 0 0 1-.588-.323c-.48-.645-1.124-.697-1.783-.645-.273.021-.552-.05-.821.05-.208.077-.337-.057-.349-.295-.006-.188-.07-.378.03-.597zm54.626-74.24c-.3-.583-.196-.833.366-.908.272-.04.553-.04.828-.065.124-.015.267-.073.26-.23-.012-.154-.12-.26-.29-.248-.828.058-1.649.15-2.4.583-.13.07-.251.139-.385.04-.141-.106-.296-.108-.451-.09-.326.044-.539-.187-.694-.419-.19-.285-.295-.643-.428-.977-.048-.117.013-.224.09-.312.142-.17.277-.341.42-.506.268-.304.265-.433-.064-.654-.173-.115-.373-.197-.558-.297-.147-.087-.372-.119-.347-.363.022-.27.19-.461.43-.511.188-.037.377-.037.566-.037.256 0 .384-.113.39-.41 0-.19.014-.382.048-.57.066-.327.246-.396.497-.212.168.126.23.326.306.52.044.115.06.265.236.321.117-.256.06-.555.117-.825.03-.157-.058-.261-.205-.257-.249 0-.336-.147-.345-.397-.008-.289.09-.526.298-.696.111-.09.236-.008.33.075.447.398.844.85 1.18 1.363.092.138.083.278.083.436-.006.41.094.464.432.258.117-.074.228-.17.36-.227.343-.147.53-.039.578.38.036.363.11.715.218 1.058.017.071.044.146.193.18.009-.59.103-1.166.06-1.752-.028-.499-.035-1.008.296-1.41.327-.403.89-.325 1.004.194.114.529.206 1.11-.19 1.58-.099.122-.165.245-.159.414.009.196-.07.451.197.516.225.052.348-.106.428-.325.119-.32.243-.634.366-.953l.084-.21c.247-.59.3-.603.784-.271.06.035.132.093.185.085.204-.04.241.09.23.267-.015.295.138.388.37.442.536.125 1.075.277 1.614.41.3.07.531.241.747.481.214.243.285.49.23.833-.066.439-.218.877-.034 1.346.09.221-.037.466-.248.572-.206.103-.33.263-.41.487a1.83 1.83 0 0 1-.725.94c-.21.151-.309.3-.22.612.157.562-.327 1.55-.82 1.772a.671.671 0 0 1-.303.05c-.552-.04-.812.136-1 .678-.181.515-.854.792-1.357.562-.496-.236-.714-.695-.824-1.235-.085-.397-.303-.571-.615-.4-.213.125-.38.084-.585.027-.19-.048-.381-.081-.588.072-.263.195-.415.138-.529-.179-.081-.22-.182-.32-.385-.393-.454-.162-.695-.597-.913-1.04-.064-.129-.03-.26.07-.364.118-.117.252-.197.42-.14.125.042.212.132.296.227.118.135.26.18.465.102zM19.599 120.967c-.426.01-.723-.075-.981-.294-.3-.244-.317-.423-.094-.755.074-.113.147-.217.225-.323-.017-.199-.197-.114-.276-.203-.073-.085-.185-.182-.101-.288.147-.195.175-.451.306-.656.082-.137.188-.22.343-.204.119.007.241.002.36.028.66.138.66.146 1.143-.428-.016-.13-.125-.104-.198-.136-.342-.155-.357-.192-.127-.51.075-.099.153-.194.185-.334.09-.48.416-.673.791-.81.207-.075.432-.075.631-.22.162-.13.339 0 .456.145.111.125.212.14.364.11.645-.12 1.03.177 1.146.883.033.21.071.376.232.539.266.267.252.742 0 1.026-.184.2-.373.4-.585.559-.184.137-.232.286-.138.481.314.65.078 1.359.195 2.027.03.174-.08.329-.129.496-.094.306-.194.613-.205.943-.007.297-.143.396-.402.377-.474-.034-.881.102-1.287.424-.483.388-1 .741-1.581.945-.31.109-.61.109-.915.131-.231.018-.433-.179-.544-.352-.085-.129-.149-.281-.27-.39-.08-.075-.08-.173-.026-.254.106-.174.106-.254-.078-.4-.151-.117-.029-.352.131-.39.392-.094.62-.303.585-.78.36-.365.36-.987.844-1.387zm38.472-93.799c.649.158 1.232.09 1.663-.58.17.237.303.428.47.59.297.288.277.627-.016.997-.151.19-.173.37-.043.564.165.247.341.483.516.72.163.227.347.256.517.026.167-.23.31-.174.47.004.247.266.382.63.67.867.112.09.014.28-.123.295-.713.05-.932.63-1.187 1.243-.167.423-.383.876-.867.99-.143.038-.23.15-.306.288-.22.373-.33.437-.553.297-.266-.161-.184-.369-.102-.634.102-.346.24-.72.022-1.152-.241.473-.59.611-1.016.61-.181-.006-.37.084-.553.093-.415.023-.61-.247-.516-.682.014-.061.025-.127.062-.162.514-.473.365-1.244.66-1.823.106-.208.088-.456-.124-.61-.216-.15-.304-.412-.435-.631-.208-.336-.176-.512.11-.778.093-.087.189-.16.354-.298-.474.077-.672-.174-.779-.55-.044-.149-.107-.293-.13-.44-.046-.306-.129-.575-.367-.788-.218-.195-.18-.343.072-.47.358-.18.74-.313.944-.731.007-.017.03-.024.041-.036.108-.075.278-.15.34-.07.288.376.774-.113 1.032.32.058.093.104.204.174.279.23.237.273.449.029.724-.194.217-.15.548-.194.826-.046.312-.158.493-.454.503-.14.011-.276.037-.381.2zm33.272-16.004c-.08-.217-.252-.183-.36-.273-.09-.074-.147-.165-.133-.292.01-.129.092-.198.194-.237.03-.009.067-.009.101-.023.097-.035.3.057.278-.132-.019-.208-.207-.14-.339-.116-.159.032-.353.28-.46.074-.13-.255.148-.383.29-.529a2.33 2.33 0 0 1 .46-.368c.465-.303.473-.296.838.17.184.23.372.252.559-.003a3.31 3.31 0 0 0 .37-.686c.152-.357.11-.432-.24-.582-.34-.144-.455-.42-.275-.759.333-.634.826-1.083 1.399-1.42.288-.169.715.14.776.523.018.107.003.228.02.343.043.346.12.451.423.425.292-.03.498.106.707.285.268.238.332.527.088.785-.497.531-.901 1.244-1.71 1.27-.096 0-.197.056-.298.096-.192.08-.289.19-.277.466.028.654-.202.836-.793.71-.448-.1-.601.025-.637.542-.017.246-.066.495-.075.742-.01.491-.228.778-.62.937-.13.052-.252.132-.38.19-.127.058-.264.126-.383-.008-.117-.13-.068-.287-.03-.437.06-.238.138-.46.367-.59.13-.076.06-.205-.058-.238-.266-.08-.454.074-.633.285-.287.343-.442.316-.664-.09a3.823 3.823 0 0 1-.145-.308c-.2-.465-.181-.609.142-.96.278-.3.348-.298.608.027.238.308.36.333.89.181zm14.081-2.582a3.52 3.52 0 0 1 .473-1.6c.228-.403.686-.47 1.007-.159.134.137.237.12.374.066.383-.148.791-.23 1.133-.528.319-.276.75-.116.885.3.278.847.225 1.66-.277 2.394-.29.43-.606.834-.897 1.265-.185.268-.39.36-.672.214-.078-.035-.164-.064-.243-.096-.296-.117-.585-.229-.896-.037-.143.09-.319.066-.414-.097-.195-.328-.491-.598-.425-1.07.028-.203-.03-.417-.048-.652zm-4.138-1.84c.275.464.267.512-.172.726-.172.085-.36.139-.522.244-.638.433-1.124.012-1.595-.366-.29-.23-.195-.66.168-.803.403-.169.816-.309 1.329-.307-.301-.224-.557-.4-.797-.595-.365-.304-.372-1.042-.018-1.36.114-.107.224-.064.325.034.208.203.422.394.62.611.165.18.332.256.548.106.258-.186.496-.103.716.094.213.195.43.388.69.618-.023-.27-.172-.386-.297-.512a28.99 28.99 0 0 1-.625-.605c-.064-.06-.117-.143-.07-.25.042-.096.118-.142.208-.142.141.008.289-.005.409.046.547.235 1.107.436 1.522.942.153.179.328.336.484.514.217.252.211.382.002.644a1.44 1.44 0 0 1-.267.265c-.173.138-.303.243-.268.546.035.321-.467.87-.756.931-.152.04-.264-.034-.362-.154-.188-.221-.378-.45-.57-.67-.093-.109-.188-.22-.302-.306-.124-.104-.264-.177-.4-.252zm12.183-1.193c.132.971-.979 2.189-1.751 2.377-.368.09-.751.118-1.125.186-.19.034-.33-.033-.453-.2-.713-.98-.684-.926-.112-1.872.228-.371.5-.638.924-.638.244-.003.373-.17.446-.403.1-.308.188-.621.295-.924.228-.642.656-.755 1.14-.332.516.452.61 1.077.636 1.806zm-9.145 6.102c.384.394.445.606.197.943-.45.606-.663.718-1.127.448-.107-.058-.208-.13-.349-.228-.112.626-.508.695-.976.603-.236-.045-.485.018-.718-.083-.307-.134-.382-.316-.195-.612.186-.29.248-.573.17-.915-.036-.145-.016-.306-.01-.457.01-.236.117-.41.325-.463.334-.078.665-.215 1.016-.119.081.023.176.09.24-.01.064-.1.04-.224-.013-.323-.047-.099-.12-.185-.173-.284-.133-.24-.103-.322.14-.42.809-.307 2.18.192 2.667.965.09.145.189.3.095.477-.095.184-.27.134-.42.12-.578-.05-.578-.05-.869.358zM43.063 143.73c-.048.482-.128.931-.319 1.35-.099.219-.082.378.081.562.32.358.417.834.419 1.323a28.25 28.25 0 0 1-.027 1.67c-.017.414 0 .884-.567.89-.112 0-.147.146-.223.226-.304.33-.502.306-.75-.086-.231-.369-.288-.785-.208-1.217.055-.262.047-.526.055-.793.011-.28-.027-.534-.212-.746a.695.695 0 0 1-.155-.529c.013-.165.054-.304.254-.261.455.103.62-.334.874-.593.091-.094.023-.216-.06-.297-.424-.42-.477-1.006-.532-1.577-.022-.29.048-.567.33-.715.249-.129.498-.27.602-.59.025-.076.098-.117.173-.085.07.024.114.098.116.173.013.446.084.879.149 1.295zm47.927-136c-.182.088-.212.28-.23.466-.037.383-.206.683-.43.957-.181.23-.37.455-.538.692-.135.192-.312.292-.507.381-.218.102-.398.116-.505-.176-.068-.189-.218-.286-.362-.392-.215-.158-.435-.313-.644-.483-.15-.121-.394-.185-.382-.422.015-.299.296-.339.494-.429.152-.072.33-.143.496-.138.5.016.88-.28 1.28-.545.22-.14.339-.372.438-.624.145-.375.436-.49.756-.452.306.04.606.143.897.257.23.096.418.28.496.556.095.345.163.705.173 1.071.008.367-.104.447-.408.32-.393-.164-.758-.37-.877-.884-.02-.067-.058-.138-.147-.155zm.561 66.479c-.02-.61.081-1.186.396-1.7.366-.6.838-.653 1.32-.158.226.238.382.578.764.619.173.018.39.771.312.966-.023.073-.064.148-.142.134-.285-.049-.414.177-.517.387-.233.484-.696.598-1.052.878-.088.07-.206.005-.3.02-.225.036-.356-.436-.625-.137-.027.016-.114-.13-.144-.217-.1-.263-.012-.531-.012-.792zM46.263 26.965c0 .163.018.265-.088.311-.09.04-.167-.015-.244-.058-.127-.082-.166-.238-.211-.383-.16-.486-.325-.954-.779-1.225-.26-.153-.348-.465-.397-.774-.078-.492-.147-.98-.407-1.408-.114-.174-.1-.403-.086-.614.01-.149-.005-.332.175-.366.149-.031.296.065.348.195.193.46.526.834.555 1.396.033.576.214 1.129.633 1.529.138.126.242.28.246.484.015.35.286.614.255.913zM104.068 2.09c-.08-.023-.196-.04-.31-.082-.39-.171-.774-.328-1.15-.512-.362-.173-.377-.293-.096-.622.104-.125.22-.245.344-.346.613-.532.814-.52 1.353.085.123.136.252.263.353.414.134.2.283.432.154.686-.124.24-.349.36-.648.377zm-41.67 154.906a.418.418 0 0 1-.331-.133c-.313-.319-.693-.394-1.099-.4-.393-.006-.472-.081-.447-.36.026-.325.21-.487.526-.467.085.008.202-.023.25.026.504.501 1.153.212 1.711.407.31.106.628.318.993.19.084-.028.139.106.116.205-.038.178-.106.36-.286.365-.484.011-.956.101-1.434.167zm8.416-143.625c-.16 0-.276-.062-.314-.24-.034-.19.077-.284.213-.346.19-.08.388-.156.585-.228.456-.171.92-.317 1.313-.652.208-.179.418-.157.616.01.137.123.142.259.015.393-.025.024-.048.054-.086.066-.698.406-1.398.822-2.195.971-.05.009-.102.016-.147.026zm-47.51 94.975c-.157.278-.117.735-.487.97-.03.02-.06.04-.09.063-.176.106-.27.465-.536.281-.167-.112-.154-1.065.012-1.182.206-.153.333-.39.541-.522.133-.084.265-.22.427-.152.201.084.07.298.133.542zm44.92-85.916c-.044.344-.539.583-.81.39-.142-.097-.207-.34-.42-.277-.213.056-.431.126-.589.319-.143.162-.308.313-.474.085-.16-.214.012-.352.155-.51.207-.235.507-.291.708-.545.147-.186.354.032.516.113.25.117.433.448.776.237.078-.048.133.082.138.188zm29.785 43.046c-.076.216-.048.485-.02.748.008.08-.028.149-.102.176-.084.026-.137-.03-.167-.099a18.637 18.637 0 0 1-.256-.686c-.098-.29-.199-.567-.499-.684-.147-.059-.266-.21-.195-.41.07-.193.236-.27.424-.242.474.083.844.61.815 1.197zM22.385 96.9c.107-.012.193-.042.277-.027.19.018.279.14.213.355-.035.11-.078.21-.13.314-.142.242-.316.469-.052.756.076.08.04.23-.067.294-.11.065-.199-.032-.253-.126a.826.826 0 0 1-.095-.266c-.052-.278-.194-.401-.464-.432-.309-.033-.315-.136-.17-.451.166-.367.41-.499.74-.417zm13.021 51.721c-.014.487-.4.717-.766.448a1.298 1.298 0 0 0-.367-.17c-.236-.078-.27-.264-.096-.475.199-.248.465-.386.744-.482.173-.06.494.405.485.679zm-6.05-46.849c.42.506.39 1.093.313 1.683-.03.218-.147.38-.331.45-.141-.092-.095-.214-.095-.327 0-.087.03-.253 0-.27-.535-.26-.094-.744-.197-1.103-.055-.204.133-.365.31-.433zM56.08 21.009c.03-.343.191-.509.46-.466.312.046.664.385.655.627-.015.274-.365.537-.658.5-.264-.034-.48-.352-.458-.66zm-36.53 45.654c-.11-.017-.152-.094-.115-.2a.904.904 0 0 1 .29-.396c.258-.22.523-.433.698-.749a.387.387 0 0 1 .246-.196c.211-.057.34.057.307.301-.038.28-.171.505-.39.639-.313.195-.685.262-.94.572-.016.023-.062.022-.097.029zm44.505-43.348c.015-.059.031-.155.061-.238.07-.18.188-.24.312-.067.159.22.306.453.431.698.106.208.068.416-.125.547-.188.128-.329.024-.43-.155a1.925 1.925 0 0 1-.249-.785zm-9.463-11.937c.012.206-.206.538-.371.569-.177.03-.532-.303-.547-.516-.02-.243.21-.59.388-.596.21-.005.52.317.53.543zm8.612 54.913c-.26.007-.47-.217-.464-.498.005-.107.375-.404.514-.411.17-.008.447.327.46.557.012.192-.215.35-.51.352zm.811 82.625c.235 0 .54.404.5.637-.01.087-.07.119-.135.15-.233.108-.667.002-.847-.212a.21.21 0 0 1-.02-.259c.124-.197.32-.272.502-.316zm-37.272-42.319c.011-.076.03-.15.032-.224.008-.173-.008-.368.152-.453.188-.105.266.103.36.222.087.108.22.096.32.164.063.04.11.091.082.187-.019.075-.082.147-.15.126-.218-.067-.39-.067-.475.229-.024.08-.144.08-.23.039-.116-.062-.116-.172-.091-.29zm30.372 44.828c-.07.145.051.235.146.347.088.101.119.23-.005.336-.124.107-.232.04-.318-.064-.043-.05-.104-.123-.104-.187 0-.249-.066-.45-.234-.632-.145-.162-.005-.321.127-.421.132-.102.218-.012.289.117.08.142.187.277.1.504zm8.86 3.73c-.161-.025-.17-.178-.15-.33.032-.248.38-.59.61-.619.125-.015.189.045.2.187.018.328-.339.763-.66.763zM55.242 49.78v0zm-.04.148c-.042.13-.115.245-.25.257-.177.02-.172-.141-.202-.27-.016-.073-.05-.139-.074-.213-.06-.153-.048-.296.08-.401.1-.09.196-.165.326-.082.151.091.21.242.16.561a1.05 1.05 0 0 1-.04.148zm.802 20.095c-.247-.024-.578-.647-.467-.897.04-.09.124-.091.171-.044.175.174.39.316.504.556.098.198-.02.4-.208.384zm1.198-.441c-.037.149.03.419-.23.393-.195-.019-.332-.188-.332-.44 0-.242.154-.437.337-.418.154.014.232.162.225.465zM76.17 88.184c-.007.155-.02.3-.149.357-.17.079-.24-.08-.317-.205-.096-.157-.196-.325-.08-.517.08-.127.209-.127.328-.085.195.085.213.275.218.45zm-50.466 30.19a.528.528 0 0 1-.12.358c-.133.15-.298.346-.476.191-.169-.153.017-.342.094-.496.042-.082.106-.147.165-.214.06-.065.13-.129.225-.08.087.047.1.144.112.24zm37.114 34.546c.001 0 .001 0 0 0zm.384.146a.38.38 0 0 1-.03.33c-.108.159-.244.1-.374.034a.343.343 0 0 0-.144-.054c-.116-.024-.188-.101-.17-.235.015-.126.095-.197.21-.214.057-.006.116-.007.124-.007.191.027.331-.027.384.146zm.488-2.739c.142.009.238.131.233.336-.002.194-.02.39-.238.44-.043.015-.116-.022-.13-.055a.94.94 0 0 1-.073-.608c.017-.074.086-.118.208-.113zm-2.45-84.003c-.165-.002-.326-.21-.307-.385.012-.152.1-.235.231-.246.167-.011.335.17.325.354-.013.17-.107.265-.249.277zm3.39 89.78c.218-.236.34-.45.395-.708.011-.07.062-.135.146-.123.027.005.075.045.072.056-.018.227.11.466-.035.654-.13.17-.31.187-.578.12zm-28.14-8.096c0 .132-.053.221-.172.244-.187.024-.426-.179-.407-.343.016-.133.111-.183.218-.2a.306.306 0 0 1 .36.3zm-14.59-37.614c-.142-.04-.3-.11-.281-.312.016-.204.2-.215.355-.213.135.003.223.09.205.254-.016.164-.1.27-.278.27zm31.803 1.37c-.114-.475-.209-.872-.166-1.299.048-.524.313-.874.62-1.215.079-.084.182-.093.282-.112.28-.053.431.108.326.373a1.766 1.766 0 0 0-.124.889c0 .057-.002.122-.03.162-.266.433-.624.778-.908 1.202zm4.787-2.636c.118-.408.023-.68-.13-.967-.155-.284-.024-.51.259-.654.288-.157.568-.344.915-.319.16.015.302.035.426.152.26.243.266.396-.022.61-.236.179-.423.456-.751.465-.13 0-.188.144-.256.26-.081.154-.146.343-.441.453zm1.376-2.617c-.009.214-.166.27-.296.364-.367.257-.716.165-.922-.242-.038-.08-.025-.163.03-.207.194-.154.39-.322.605-.425.208-.102.593.263.583.51zm-3.609-3.71c-.07.176-.11.36-.034.578.033.09-.066.198-.154.162-.2-.09-.424-.169-.523-.414-.068-.17.053-.637.173-.737.096-.087.195-.057.291 0 .137.082.255.187.247.411zm-6.587 13.855a.412.412 0 0 1-.436-.394c0-.172.016-.36.226-.365.174-.007.375.23.393.445.017.169-.03.296-.183.314zm12.479-28.595c.123.02.25.053.279.21.03.128-.243.383-.395.373-.157-.014-.268-.12-.254-.29.017-.229.195-.279.37-.293z"/></g></g></svg>