<svg xmlns="http://www.w3.org/2000/svg" width="60" height="60" viewBox="0 0 60 60"><g><g><path fill="#00b1ff" d="M59.999 14.616l-.003 33.915c0 .473-.33.885-.798 1L47.411 52.44l-9.092 2.242-21.373 5.27s-.162.049-.384.022a1.132 1.132 0 0 1-.384-.12L.55 51.487a1.03 1.03 0 0 1-.55-.905V11.945c0-.335.166-.648.445-.842L16.068.22s.2-.142.474-.185c.229-.035.476.04.476.04l21.373 6.86c.433.138.727.533.727.982V26.57l.366.028v-11.55c0-.35.18-.676.479-.866l6.61-4.216s.186-.134.451-.162c.265-.027.453.044.453.044h-.001c.003 0 .004 0 .005.002l11.79 3.784c.434.138.729.533.728.982zM3.188 45.7v-2.917a.35.35 0 0 0-.258-.333l-.912-.248a.36.36 0 0 0-.309.059.347.347 0 0 0-.138.274v2.836c0 .144.093.274.231.324l.913.327c.04.017.08.023.123.023.07 0 .14-.023.2-.063a.343.343 0 0 0 .151-.282zm0-5.834v-2.916a.349.349 0 0 0-.318-.344l-.912-.088a.361.361 0 0 0-.272.088.343.343 0 0 0-.116.256V39.7c0 .165.121.307.288.338l.913.168c.022.003.043.006.065.006.083 0 .161-.028.225-.08a.34.34 0 0 0 .128-.265zm.001-8.749a.341.341 0 0 0-.114-.254.355.355 0 0 0-.267-.09l-.913.075a.347.347 0 0 0-.324.342v2.836a.35.35 0 0 0 .351.346l.913.007h.003a.36.36 0 0 0 .248-.1.338.338 0 0 0 .103-.245zm-.003-2.915v-2.918a.34.34 0 0 0-.135-.272.36.36 0 0 0-.306-.061l-.913.235a.347.347 0 0 0-.262.333v2.836c0 .103.047.2.126.266a.359.359 0 0 0 .288.075l.913-.155a.348.348 0 0 0 .292-.34zm.003-8.748a.348.348 0 0 0-.16-.29.362.362 0 0 0-.335-.027l-.913.396a.346.346 0 0 0-.21.315v2.836c0 .114.056.218.149.283a.359.359 0 0 0 .321.043l.913-.314a.347.347 0 0 0 .235-.326zm-.001-2.916v-2.916c0-.126-.07-.24-.182-.302a.36.36 0 0 0-.358.009l-.912.556a.339.339 0 0 0-.166.292v2.836a.34.34 0 0 0 .17.294c.057.033.12.051.184.051a.367.367 0 0 0 .165-.041l.913-.475a.345.345 0 0 0 .187-.304zm3.078 30.268V43.62a.346.346 0 0 0-.259-.332l-1.086-.295a.364.364 0 0 0-.309.057.345.345 0 0 0-.138.274v3.093c0 .144.093.272.231.322l1.088.391c.04.016.081.023.122.023.07 0 .142-.023.202-.062a.344.344 0 0 0 .15-.283zm.001-9.561a.35.35 0 0 0-.319-.345l-1.087-.103a.368.368 0 0 0-.272.088.336.336 0 0 0-.116.255v3.092c0 .165.121.308.288.339l1.087.199a.365.365 0 0 0 .291-.072.345.345 0 0 0 .128-.266zm0-6.376a.337.337 0 0 0-.113-.252.356.356 0 0 0-.268-.09l-1.088.088a.347.347 0 0 0-.324.344v3.09c0 .19.158.344.351.345l1.087.007h.003a.356.356 0 0 0 .248-.099.335.335 0 0 0 .104-.244zm-.002-3.186v-3.188a.341.341 0 0 0-.138-.273.354.354 0 0 0-.304-.061l-1.088.279a.35.35 0 0 0-.262.335v3.09c0 .102.045.198.125.264a.365.365 0 0 0 .289.077l1.088-.182a.349.349 0 0 0 .292-.341zm.002-9.561a.345.345 0 0 0-.16-.29.372.372 0 0 0-.336-.026l-1.087.472a.34.34 0 0 0-.21.314v3.091a.34.34 0 0 0 .149.282.355.355 0 0 0 .321.043l1.087-.374a.344.344 0 0 0 .236-.325zm0-6.374c0-.126-.07-.24-.181-.302a.36.36 0 0 0-.358.009l-1.088.662a.348.348 0 0 0-.166.293v3.091a.345.345 0 0 0 .354.344.357.357 0 0 0 .166-.04l1.086-.566a.341.341 0 0 0 .187-.304zm3.708 36.39v-3.513a.346.346 0 0 0-.258-.332l-1.319-.358a.362.362 0 0 0-.306.058.345.345 0 0 0-.139.275v3.397c0 .144.093.274.231.324l1.318.472a.361.361 0 0 0 .324-.04.34.34 0 0 0 .15-.284zm0-7.026V37.6a.348.348 0 0 0-.319-.344l-1.318-.126a.369.369 0 0 0-.271.088.342.342 0 0 0-.115.255v3.397c0 .166.12.31.287.34l1.32.24a.363.363 0 0 0 .29-.072.347.347 0 0 0 .127-.265zm.002-7.028V30.57a.337.337 0 0 0-.113-.253.354.354 0 0 0-.268-.09l-1.319.106a.346.346 0 0 0-.323.342v3.4c0 .19.156.343.35.345l1.317.01h.004a.356.356 0 0 0 .246-.1.335.335 0 0 0 .105-.245zm-.002-7.027v-3.511a.344.344 0 0 0-.139-.273.357.357 0 0 0-.304-.062l-1.318.34a.346.346 0 0 0-.262.333v3.397a.345.345 0 0 0 .352.344c.021 0 .04 0 .06-.004l1.32-.224a.347.347 0 0 0 .292-.34zm.001-7.027v-3.513a.342.342 0 0 0-.16-.29.363.363 0 0 0-.336-.025l-1.318.57a.341.341 0 0 0-.209.316v3.397c0 .112.055.216.148.28a.367.367 0 0 0 .203.065.36.36 0 0 0 .118-.02l1.319-.455a.345.345 0 0 0 .235-.325zm0-10.539a.342.342 0 0 0-.182-.301.364.364 0 0 0-.359.007l-1.317.803a.342.342 0 0 0-.166.292v3.398c0 .12.065.233.17.295a.359.359 0 0 0 .348.008l1.32-.685a.343.343 0 0 0 .186-.304zm4.554 40.284v-3.914a.346.346 0 0 0-.259-.332l-1.63-.443a.363.363 0 0 0-.307.057.346.346 0 0 0-.138.275v3.77c0 .144.093.276.231.325l1.63.585a.36.36 0 0 0 .324-.04.34.34 0 0 0 .15-.283zm0-7.83v-3.912a.348.348 0 0 0-.319-.344l-1.63-.155a.352.352 0 0 0-.386.343v3.768c0 .169.121.311.287.34l1.63.3a.36.36 0 0 0 .291-.073.34.34 0 0 0 .128-.266zm.001-7.827v-3.917a.35.35 0 0 0-.383-.342l-1.628.13a.348.348 0 0 0-.324.345v3.771c0 .19.157.344.35.345l1.63.013h.002a.356.356 0 0 0 .249-.1.338.338 0 0 0 .104-.245zm-.001-7.83v-3.912a.347.347 0 0 0-.139-.273.357.357 0 0 0-.304-.06l-1.63.418a.344.344 0 0 0-.262.334v3.77c0 .101.046.199.125.263a.356.356 0 0 0 .289.075l1.628-.275a.348.348 0 0 0 .294-.34zm.001-11.742a.342.342 0 0 0-.16-.29.363.363 0 0 0-.336-.025l-1.63.706a.343.343 0 0 0-.209.315v3.77c0 .112.055.217.149.282a.36.36 0 0 0 .32.044l1.63-.562a.344.344 0 0 0 .236-.325zm-.001-3.914V6.717a.347.347 0 0 0-.182-.3.358.358 0 0 0-.358.008l-1.63.991a.347.347 0 0 0-.165.293v3.773a.35.35 0 0 0 .519.303l1.629-.847a.344.344 0 0 0 .188-.305zm8.657 39.026v-3.883c0-.1-.043-.194-.12-.26a.367.367 0 0 0-.278-.082l-3.763.47a.345.345 0 0 0-.307.34v4.04a.34.34 0 0 0 .126.262c.064.054.146.081.228.081.02 0 .038-.003.059-.005L22.893 50a.35.35 0 0 0 .295-.341zm0-7.771V38.03a.348.348 0 0 0-.368-.344l-3.763.168a.346.346 0 0 0-.337.343v4.007c0 .096.042.189.115.255.066.058.152.09.24.09.008 0 .019 0 .03-.002l3.762-.319a.344.344 0 0 0 .322-.341zm.001-11.656a.349.349 0 0 0-.34-.344l-3.762-.139a.35.35 0 0 0-.365.343v4.04c0 .091.036.179.103.243.065.065.155.1.25.1l3.762-.012a.351.351 0 0 0 .352-.347zm0-3.888V22.46a.35.35 0 0 0-.31-.343l-3.762-.445a.357.357 0 0 0-.277.085.34.34 0 0 0-.118.258v4.037c0 .181.14.33.325.345l3.76.292h.028a.363.363 0 0 0 .24-.09.338.338 0 0 0 .114-.254zm0-11.656a.347.347 0 0 0-.283-.338l-3.761-.75a.363.363 0 0 0-.294.071.338.338 0 0 0-.13.267v4.038c0 .17.125.315.296.34l3.762.6c.02.001.037.003.056.003.084 0 .165-.03.229-.083a.337.337 0 0 0 .125-.263zm-.001-3.886V6.915a.346.346 0 0 0-.256-.331L19.17 5.528a.36.36 0 0 0-.31.056.348.348 0 0 0-.14.277V9.9c0 .157.112.296.27.334l3.76.902a.37.37 0 0 0 .302-.064.342.342 0 0 0 .136-.27zm6.73 37.744v-3.612c0-.1-.044-.193-.12-.26a.363.363 0 0 0-.278-.083l-3.242.406a.347.347 0 0 0-.308.342v3.745a.346.346 0 0 0 .353.343l.06-.003 3.242-.538a.35.35 0 0 0 .295-.34zm.002-10.84a.352.352 0 0 0-.368-.344l-3.243.143a.35.35 0 0 0-.338.346v3.743c0 .097.042.188.115.253.065.06.151.09.239.09l.03-.001 3.242-.273a.348.348 0 0 0 .323-.343zm-.001-3.612v-3.611a.35.35 0 0 0-.341-.346l-3.241-.12a.35.35 0 0 0-.367.343v3.746c0 .091.037.18.104.244.067.065.157.1.25.1l3.243-.01a.352.352 0 0 0 .353-.346zm0-7.227v-3.611a.347.347 0 0 0-.311-.342l-3.243-.384a.351.351 0 0 0-.275.085.335.335 0 0 0-.12.257v3.742c0 .18.14.33.325.344l3.242.252.03.001a.346.346 0 0 0 .354-.344zm.001-10.84a.346.346 0 0 0-.283-.338l-3.243-.647a.358.358 0 0 0-.294.072.34.34 0 0 0-.13.266v3.745c0 .17.126.315.297.341l3.243.514a.352.352 0 0 0 .41-.34zm-.001-3.612V8.803a.346.346 0 0 0-.256-.332l-3.243-.909a.36.36 0 0 0-.308.056.343.343 0 0 0-.141.275v3.745c0 .16.11.298.269.335l3.242.777a.362.362 0 0 0 .303-.064.34.34 0 0 0 .135-.27zm5.848 35.162v-3.375a.344.344 0 0 0-.12-.26.365.365 0 0 0-.279-.08l-2.824.352a.346.346 0 0 0-.307.341v3.49c0 .103.045.198.125.264a.36.36 0 0 0 .287.077l2.825-.467a.35.35 0 0 0 .294-.342zm0-6.752V37.45a.34.34 0 0 0-.11-.248.347.347 0 0 0-.259-.095l-2.824.124a.348.348 0 0 0-.337.343v3.491c0 .096.04.188.113.253.067.06.152.09.24.09h.03l2.825-.239a.348.348 0 0 0 .323-.344zm0-10.127a.349.349 0 0 0-.339-.343l-2.824-.104a.348.348 0 0 0-.258.096.329.329 0 0 0-.108.246v3.492c0 .09.037.178.103.244.065.064.156.1.248.1h.002l2.824-.01a.351.351 0 0 0 .353-.345zm0-3.376v-3.374a.345.345 0 0 0-.31-.341l-2.823-.335a.345.345 0 0 0-.396.34v3.49c0 .178.141.328.324.343l2.825.22h.027c.09 0 .175-.031.24-.09a.34.34 0 0 0 .114-.253zm0-6.752V17.19a.35.35 0 0 0-.281-.337l-2.825-.562a.364.364 0 0 0-.295.071.338.338 0 0 0-.13.267v3.489c0 .17.126.314.297.341l2.825.449c.02.004.038.004.056.004a.36.36 0 0 0 .23-.08.341.341 0 0 0 .124-.263zm0-6.752v-3.375a.345.345 0 0 0-.255-.331l-2.825-.793a.364.364 0 0 0-.31.056.344.344 0 0 0-.139.275v3.492c0 .157.111.297.268.334l2.824.678a.359.359 0 0 0 .302-.064.34.34 0 0 0 .136-.272zm11.739 37.619V34.035c0-.033-.053-3.235-4.61-3.4-5.133-.19-5.187 3.397-5.187 3.43v19.613a.346.346 0 0 0 .352.345.425.425 0 0 0 .085-.01l9.092-2.243a.347.347 0 0 0 .266-.333zm3.817-6.433v-2.747a.343.343 0 0 0-.12-.259.369.369 0 0 0-.278-.083l-1.857.233a.348.348 0 0 0-.307.343v2.82c0 .102.045.198.125.264a.355.355 0 0 0 .287.077l1.856-.308a.347.347 0 0 0 .294-.34zm0-8.237a.347.347 0 0 0-.368-.344l-1.857.082a.346.346 0 0 0-.337.343v2.822c0 .095.04.187.113.254.067.057.152.09.24.09l.03-.002 1.856-.157a.345.345 0 0 0 .323-.342zM51.323 34v-2.72a.347.347 0 0 0-.34-.344l-1.856-.071a.354.354 0 0 0-.259.096.343.343 0 0 0-.107.248v2.798c0 .092.037.179.103.244.065.065.156.1.248.1h.002l1.857-.006a.348.348 0 0 0 .351-.345zm-.001-5.469v-2.746a.345.345 0 0 0-.31-.341l-1.858-.22a.355.355 0 0 0-.275.084.34.34 0 0 0-.12.257v2.82c0 .18.142.33.325.345l1.857.143.027.002a.354.354 0 0 0 .24-.092.34.34 0 0 0 .114-.252zm0-8.236a.35.35 0 0 0-.283-.34l-1.856-.369a.365.365 0 0 0-.295.071.342.342 0 0 0-.13.267v2.822c0 .168.126.313.297.34l1.857.294a.355.355 0 0 0 .285-.077.342.342 0 0 0 .125-.262zm0-5.491a.347.347 0 0 0-.256-.332l-1.856-.521a.362.362 0 0 0-.31.056.34.34 0 0 0-.14.276v2.82a.35.35 0 0 0 .267.336l1.859.445a.36.36 0 0 0 .302-.064.34.34 0 0 0 .134-.272zm3.43 29.632V41.83a.336.336 0 0 0-.12-.257.35.35 0 0 0-.279-.084l-1.67.208a.35.35 0 0 0-.308.343v2.675a.343.343 0 0 0 .353.342l.06-.003 1.67-.278a.347.347 0 0 0 .295-.34zm0-7.82a.34.34 0 0 0-.11-.249.352.352 0 0 0-.258-.093l-1.67.074a.348.348 0 0 0-.338.344v2.674c0 .097.042.189.115.254a.36.36 0 0 0 .239.09l.03-.001 1.67-.14a.348.348 0 0 0 .323-.345zm0-2.604v-2.607a.35.35 0 0 0-.339-.345l-1.671-.062a.356.356 0 0 0-.258.095.344.344 0 0 0-.108.25v2.675a.34.34 0 0 0 .104.244.35.35 0 0 0 .248.102h.002l1.67-.008a.35.35 0 0 0 .353-.344zm0-5.214v-2.609a.348.348 0 0 0-.31-.341l-1.67-.197a.351.351 0 0 0-.396.341v2.676c0 .18.141.329.325.343l1.67.13.028.001a.352.352 0 0 0 .354-.344zm0-5.215v-2.606a.347.347 0 0 0-.283-.337l-1.67-.333a.353.353 0 0 0-.424.338v2.675a.35.35 0 0 0 .297.34l1.67.266c.02.002.037.004.057.004a.35.35 0 0 0 .228-.084.337.337 0 0 0 .126-.263zm0-5.212v-2.606a.345.345 0 0 0-.257-.332l-1.67-.468a.355.355 0 0 0-.308.056.343.343 0 0 0-.141.276v2.674c0 .159.11.299.269.335l1.669.4a.366.366 0 0 0 .303-.062.343.343 0 0 0 .136-.273zm3.1 25.553v-2.48a.337.337 0 0 0-.12-.259.357.357 0 0 0-.279-.083l-1.51.19a.346.346 0 0 0-.309.341v2.542c0 .101.046.196.126.263a.354.354 0 0 0 .287.076l1.51-.25a.35.35 0 0 0 .296-.34zm.001-7.443a.341.341 0 0 0-.11-.25.358.358 0 0 0-.258-.095l-1.513.067a.347.347 0 0 0-.337.345v2.542a.353.353 0 0 0 .354.344h.03l1.511-.128a.348.348 0 0 0 .323-.345zm0-2.48V31.52a.349.349 0 0 0-.34-.346l-1.512-.056a.354.354 0 0 0-.257.096.346.346 0 0 0-.109.25v2.54c0 .093.037.18.104.245.065.065.156.1.25.1l1.511-.005a.35.35 0 0 0 .353-.346zm0-7.445a.347.347 0 0 0-.31-.341l-1.512-.18a.36.36 0 0 0-.277.085.341.341 0 0 0-.119.257v2.543c0 .18.141.329.326.344l1.51.118.028.001a.36.36 0 0 0 .24-.09.344.344 0 0 0 .114-.255zm.001-2.479v-2.482a.347.347 0 0 0-.283-.338l-1.511-.302a.373.373 0 0 0-.294.073.336.336 0 0 0-.13.265v2.543c0 .169.124.314.295.34l1.512.24a.355.355 0 0 0 .285-.077.338.338 0 0 0 .125-.262zm-.002-4.962v-2.481a.347.347 0 0 0-.256-.332l-1.511-.423a.357.357 0 0 0-.31.056.343.343 0 0 0-.14.275v2.542c0 .16.112.298.27.335l1.51.362a.356.356 0 0 0 .302-.063.34.34 0 0 0 .136-.27z"/></g></g></svg>