<svg xmlns="http://www.w3.org/2000/svg" width="114" height="125" viewBox="0 0 114 125"><g><g><path fill="#ef5b5b" d="M70.747.337c.116-.09.242-.18.358-.273h.84c.07.113.164.207.2.33.1.31.318.434.562.364.324-.094.595-.012.86.164a.797.797 0 0 0 .509.147c.076 0 .16.02.232.048.179.057.25.233.144.422-.224.404-.518.73-.885.975-.171.115-.342.223-.51.343-.025.017-.04.092-.025.117.017.03.07.054.106.047.31-.013.593-.155.787-.42.383-.508.922-.762 1.397-1.124.164-.127.335-.136.506-.02.087.06.157.147.248.18.407.176.649.413.614.98-.023.365.217.708.434 1 .094.132.241.15.37.198.776.304 1.1 1.292.66 2.075-.327.582-.694 1.145-1.166 1.605-.281.282-.583.536-.809.889a.485.485 0 0 1-.529.225 1.5 1.5 0 0 0-.351-.04c-.1.01-.201.058-.208.2-.014.331-.233.39-.458.416-.294.038-.592.056-.915.184.159.077.294.133.417.216.115.076.13.258.023.343-.204.172-.422.331-.633.499-.177.136-.376.25-.488.464.094.123.165.04.217-.01.436-.358.927-.612 1.389-.92.275-.184.572-.32.897-.352.204-.026.346.128.335.36a1.058 1.058 0 0 1-.218.61c-.208.268-.401.56-.698.72-.232.123-.383.326-.484.573-.28.68-.732 1.215-1.173 1.764-.077.1-.171.19-.248.295-.275.377-.546.77-.63 1.267-.046.252-.156.47-.364.587-.186.107-.25.259-.256.48 0 .146-.094.245-.224.277-.213.057-.429.102-.591.283-.178-.029-.348-.133-.53-.071a.203.203 0 0 0-.105.138c0 .05.053.125.099.142.217.075.383-.05.532-.209.08.007.165-.002.237.021.206.073.278.289.154.465-.06.092-.135.163-.21.24-.102.105-.208.21-.312.316-.109.108-.155.223-.114.408.078.376-.028.598-.337.735a1.544 1.544 0 0 1-.877.135c-.077-.005-.153-.018-.21-.025-.115.11-.068.224-.071.333a.4.4 0 0 1-.16.34c-.334.234-.686.442-1.087.519-.196.031-.386.062-.569.177-.093.065-.228.069-.345.075-.096.01-.198-.023-.294-.018-.156.008-.33-.014-.429.158-.056.106.176.186.446.177.456-.013.91-.006 1.369 0 .13 0 .246.081.264.225.03.25.23.536-.016.747-.204.179-.684.04-.871-.205-.023-.032-.042-.077-.058-.115-.12-.25-.302-.338-.547-.3-.118.016-.235.031-.375.052.058.13.161.08.237.098.097.023.197.033.29.063.078.026.159.077.152.174 0 .113-.089.127-.168.151-.054.017-.113.035-.17.051.052.148.164.093.245.104.142.017.29.021.387.148.148.195.335.312.536.411.185.095.264.266.275.48.006.113.009.224.012.334.007.52-.04.592-.49.771a2.97 2.97 0 0 1-.231.082c.04.234.247.237.333.381.089.14.117.289.03.427-.18.283-.374.546-.744.383-.05-.023-.112 0-.173.003-.01.007-.029.036-.029.054-.004.02 0 .052.006.059.13.063.258.12.387.172.101.04.182.106.182.232.006.16-.033.36-.182.386-.397.078-.752.456-1.196.246-.047-.023-.118-.002-.177.017-.106.033-.179.114-.157.242.03.217.047.45.13.641a.761.761 0 0 1-.014.643c-.036.075-.059.167-.084.25-.118.42-.388.598-.768.616-.217.009-.44.001-.646.098-.058.028-.11.065-.087.148.011.028.064.057.1.057.098-.006.198-.034.296-.03.258.014.397.218.356.497a.8.8 0 0 1-.066.187c-.047.107-.057.213.023.31.114.123.216.055.317-.03a.593.593 0 0 1 .16-.091c.112-.035.2.02.255.123.173.333.19.702.03 1.027-.144.293-.296.648-.678.662a.213.213 0 0 0-.199.13c-.227.494-.708.547-1.083.77-.155.093-.287-.033-.27-.213.013-.155.047-.307.057-.463.01-.142-.09-.264-.22-.264-.27.003-.559-.084-.794.174-.046.055-.164.097-.217.07-.294-.154-.633-.058-.917-.258-.19-.134-.338-.07-.442.13a.562.562 0 0 0-.063.18c-.016.137.008.293-.134.348a.65.65 0 0 1-.352.027c-.248-.069-.533-.11-.727-.277-.271-.229-.576-.07-.84-.22-.04-.02-.117.005-.164.046-.13.098-.254.104-.388.011-.171-.117-.365-.14-.565-.167a1.718 1.718 0 0 1-.75-.34c-.194-.148-.265-.435-.317-.703-.054-.288.11-.522.363-.45.252.074.413.01.57-.195.106-.134.23-.247.347-.369.168-.188.344-.367.61-.375.116-.004.223-.09.309-.187.108-.117.156-.32.042-.419-.358-.343-.37-.876-.603-1.292-.207-.37-.083-.677.265-.882.528-.31 1.037-.136 1.301.46.107.237.194.488.264.743.108.357.348.478.644.5.24.023.45-.138.678-.199.006-.002.013-.088-.005-.112-.07-.094-.176-.099-.273-.115-.422-.075-.673-.363-.779-.804a1.993 1.993 0 0 0-.157-.425c-.183-.344-.178-.368.039-.635.077-.099.194-.169.23-.346-.138-.084-.248.05-.366.07-.122.025-.248.062-.326-.074-.094-.158-.192-.207-.345-.102a.547.547 0 0 1-.227.092c-.197.042-.367-.07-.398-.294a11.118 11.118 0 0 1-.086-.994.29.29 0 0 1 .046-.19c.213-.302.335-.645.399-1.024.036-.21.18-.335.37-.404.299-.1.632-.11.867-.396.037-.039.12-.05.171-.034.307.094.611.192.912.31.071.027.12.116.179.175.065.063.143.095.207.019.147-.167.317-.141.5-.116.157.027.32.038.464-.068.012-.01.02-.04.018-.056 0-.023-.018-.056-.027-.055-.467.047-.902-.131-1.354-.22a.943.943 0 0 1-.606-.388.441.441 0 0 1-.092-.308c.007-.142.153-.254.253-.186.148.104.287.217.438.334 0-.075.016-.131 0-.158a2.511 2.511 0 0 1-.53-1.248c-.055-.444-.334-.802-.49-1.21-.077-.206-.265-.334-.447-.425-.406-.196-.559-.539-.524-1.02.015-.198-.005-.408-.04-.596-.058-.32 0-.623.055-.93.049-.33.228-.483.504-.426.469.105.934.237 1.397.37.166.046.274.19.333.363.217.6.496 1.166.855 1.68.128.188.151.412.215.622.094.29.258.503.536.575.053.015.138.022.164-.011.069-.088-.005-.156-.06-.216a.404.404 0 0 0-.094-.082c-.275-.163-.39-.433-.383-.772.001-.31-.086-.562-.324-.75-.185-.142-.284-.361-.364-.6-.091-.267-.191-.538-.273-.815-.058-.211 0-.35.182-.423.227-.097.455-.174.687-.246.443-.132.88-.27 1.28-.548.256-.179.564-.21.857-.271.11-.024.24.028.37-.126-.287-.003-.542-.01-.799-.027-.047 0-.116-.056-.13-.103-.016-.044.004-.139.044-.174.323-.334.706-.574 1.107-.769.094-.046.194-.063.284-.113.122-.072.392 0 .337-.235-.04-.157-.284-.075-.442-.051a1.237 1.237 0 0 0-.286.089c-.245.118-.42.03-.564-.247-.214.266-.34.548-.543.76-.562.576-1.235.894-1.95 1.13a.582.582 0 0 1-.176.037c-.227.029-.306-.07-.293-.356.011-.28-.02-.358-.132-.358-.168-.002-.185.145-.2.277-.05.4-.29.556-.615.618-.445.086-.875-.032-1.291-.184-.304-.118-.387-.34-.304-.694.016-.086.041-.174.074-.255.2-.46.394-.923.7-1.318.06-.08.28-.127.123-.278-.087-.087-.224.053-.303.144-.201.224-.349.496-.477.77-.143.297-.263.603-.4.902-.117.253-.256.32-.488.206a1.845 1.845 0 0 1-.47-.293c-.266-.234-.52-.485-.71-.803-.123-.199-.078-.393.1-.52.313-.231.662-.353 1.028-.255.486.137.854-.059 1.175-.445.258-.31.519-.61.78-.92-.041-.124-.121-.057-.178-.02-.208.14-.417.28-.553.504-.273.463-.702.61-1.142.61-.345 0-.669.066-.991.19-.058.016-.113.032-.171.053-.207.068-.404.066-.552-.123-.182-.228-.27-.498-.182-.806.05-.178.16-.256.366-.263.038 0 .08.023.115.023.037 0 .074-.023.109-.032-.36-.401-.358-.393-.048-.813.126-.173.238-.353.356-.528-.106-.133-.162-.033-.215.017-.19.159-.373.337-.56.498-.164.139-.286.143-.374.05-.149-.153-.19-.376-.078-.548.07-.103.164-.188.24-.292.077-.105.148-.21.204-.328.06-.13.025-.3-.07-.36-.098-.064-.203-.033-.278.043-.102.1-.183.23-.28.345-.095.12-.2.235-.36.171-.208-.081-.366-.36-.337-.574a.823.823 0 0 1 .052-.195c.287-.521.643-.963 1.187-1.163.188-.07.352-.068.469.148.026.049.095.091.142.085.065-.002.088-.085.073-.148-.115-.49.22-.739.45-1.028.217-.27.52-.296.833-.209.21.053.426.115.641.173.074.018.153.05.238-.04-.106-.154-.228-.293-.321-.46-.11-.194-.024-.421.17-.472.158-.038.318-.038.475-.075.248-.063.363-.289.28-.562-.05-.171-.138-.319-.203-.482-.053-.136.007-.285.123-.334.277-.112.55-.114.798.083.113.09.215.197.313.314.252.289.517.548.883.658.201.062.34.221.462.408.234.356.522.66.847.944.07-.219-.067-.282-.144-.356-.334-.36-.616-.76-.897-1.169-.194-.278-.203-.574-.085-.882.018-.063.049-.155.09-.165.4-.123.217-.364.113-.604a.356.356 0 0 1 .04-.374c.083-.107.223-.123.387-.044.148.073.271.176.388.306.079.094.118.237.252.27.09-.077.03-.164 0-.23-.152-.344-.32-.673-.469-1.014-.102-.247.041-.457.274-.434.265.018.487.166.723.343.024-.244-.126-.366-.157-.536-.03-.142-.018-.27.067-.376.32-.392.618-.411.96-.33.296.073.264.474.529.523.198-.25.417-.203.654-.083.105.052.179-.032.184-.183.02-.576.024-.572.49-.666a5.32 5.32 0 0 1 1.015-.105c.383-.01.641.188.787.587.041.119.094.24.14.363v.002c.041-.194.116-.375.205-.551.396-.742.721-.859 1.474-.52-.214.43-.2.512.158.74a1.206 1.206 0 0 1-.158-.74zM69.132 1.71c.006.023.059.031.089.04.01-.032.034-.082.024-.1-.054-.082-.117-.162-.176-.236.022.101.034.2.063.296zM66.05 10.94c-.038-.009-.066-.017-.072-.016l-.645.774c-.024.033-.052.069-.072.105a.276.276 0 0 0-.051.118c-.015.154-.094.37.017.437.176.101.196-.15.251-.268.187-.384.442-.726.572-1.15zm1.356-7.474c.006.054.008.12.016.18.006.057.035.08.08.07.018-.006.04-.018.048-.035.031-.053.066-.11.089-.168.048-.123.09-.252-.033-.35-.013-.015-.038-.026-.054-.02-.162.036-.13.184-.146.323zM63.3 29.258c.188-.097.374-.197.56-.3.007-.011.01-.053.001-.06-.026-.028-.065-.068-.094-.066a.761.761 0 0 0-.496.3.065.065 0 0 0-.005.06c0 .021.018.033.034.066zm3.524-27.336c.036.352.095.556.216.74.024.029.066.035.101.052.017-.034.052-.08.043-.106a1.832 1.832 0 0 0-.36-.686zm-3.77 11.741c-.003-.016 0-.045-.01-.055-.008-.013-.031-.03-.043-.028-.118.032-.195.127-.246.238-.007.017-.005.047.006.057.004.014.029.03.043.028.122-.031.194-.12.25-.24zm5.804 4.965c-.008-.02-.015-.04-.03-.05-.065-.041-.136-.097-.213-.03-.013.012-.015.047-.007.06.056.079.135.076.212.062.015-.007.028-.028.038-.042zM28.563 50.411c.089-.052.195-.166.272-.1.228.194.314.024.41-.155.058-.115.099-.244.183-.341.133-.155.133-.31.072-.493a.86.86 0 0 1-.049-.254.23.23 0 0 1 .077-.17c.041-.026.126-.033.166-.01.26.192.438.457.532.788.078.278.15.556.219.83.085.337.28.594.48.842.099.139.251.117.36-.03.215-.28.296-.63.333-.983.023-.238.133-.36.317-.433.156-.063.297.023.305.202.006.263-.047.526.157.747.083.09-.028.254-.04.383-.024.2.123.327.304.277.13-.024.218-.116.278-.233.076-.161.133-.328.197-.492.084-.207.24-.304.43-.285.54.057 1.082.13 1.434.692.13.206.327.317.542.39.422.139.825.304 1.183.614.273.233.608.33.953.376.157.018.311.023.462-.062.301-.172.573-.085.84.127.315.25.59.531.762.921.12.266.031.504-.227.565-.18.042-.352.082-.496.204-.21.184-.191.466.045.593.236.123.487.192.747.225.56.074 1.113-.04 1.67-.07.261-.255.651-.085.916-.379.136-.157.254-.113.406.083.123.152.232.3.44.31.102 0 .165.101.235.186.186.233.382.457.567.686.173.214.262.449.095.722-.049.082-.027.18.06.22.084.041.156-.007.212-.072a.355.355 0 0 0 .082-.31c-.075-.346-.146-.694-.253-1.026-.048-.166-.194-.294-.105-.496.1-.24.19-.49.447-.597.146-.057.314-.075.424-.227.038-.052.074-.113.032-.18-.023-.032-.064-.066-.1-.072-.116-.002-.236.016-.355.006-.145-.01-.214.064-.26.21-.054.182-.192.215-.34.167-.239-.068-.418-.257-.4-.435.028-.275.095-.538.34-.668.143-.075.3-.108.453-.171.242-.1.462-.247.687-.4.304-.21.504-.15.728.153.12.163.187.346.229.546.1.434.417.699.651 1.023.077.112.211.128.328.096.1-.029.19-.078.284-.118.123-.058.235-.05.312.08.465.782.534.766 1.519.74.1-.005.215.008.297-.04.408-.23.803-.165 1.212-.006.176.067.282-.032.3-.276.008-.138.006-.265.1-.37.096-.115.064-.238.036-.376-.06-.285-.05-.304.204-.337.155-.017.207-.07.227-.232.021-.168.014-.318-.149-.389-.218-.102-.415-.273-.663-.276-.136-.001-.243-.056-.276-.203-.043-.19-.018-.384.146-.467.32-.173.462-.417.492-.833.022-.292.226-.562.4-.807.087-.122.214-.13.323-.044.03.026.065.052.088.082.424.643 1.01 1.155 1.272 1.93.007.019.021.04.026.064.01.211.358.204.265.457-.072.196-.317.174-.449.318-.187.206-.387.393-.682.272-.016-.006-.07.049-.07.08a.159.159 0 0 0 .044.115c.146.115.288.246.445.328.158.08.205.207.194.37-.024.332-.054.661-.097.996-.028.192.056.298.187.37a.222.222 0 0 0 .28-.034.261.261 0 0 0 .056-.25c-.074-.274-.21-.52-.15-.834.052-.307.035-.339.329-.327a.518.518 0 0 0 .504-.274c.135-.222.252-.457.417-.657.122-.155.128-.358.076-.564-.18-.064-.287.16-.453.125-.086-.015-.148-.064-.164-.163a.525.525 0 0 1 .072-.383c.134-.216.115-.47.156-.705a.481.481 0 0 0-.167-.472c-.26-.207-.488-.444-.793-.59-.653-.3-.902-1.011-.596-1.69.124-.28.185-.526.067-.825-.167-.424-.042-.833.1-1.234.035-.107.104-.203.212-.215.173-.031.258-.105.166-.31-.079-.184-.043-.35.046-.512.444-.762.41-1.569.14-2.38a3.875 3.875 0 0 1-.178-1.372c.015-.425.006-.85 0-1.279 0-.085-.023-.176-.016-.263 0-.083-.004-.222.04-.254.312-.221.164-.68.394-.94.158-.17.371-.262.581-.327.177-.047.346-.103.525-.137.322-.051.59.087.825.309.15.14.302.196.496.166.14-.018.28-.012.418.012.744.109.86.353.502 1.072-.3.61-.557 1.231-.769 1.888-.018.059-.043.122-.067.185-.196.475-.359.698-.878.52a.785.785 0 0 0-.172-.043c-.358-.052-.45.055-.319.424.1.272.103.514-.053.751-.133.202-.226.42-.27.668-.019.123-.102.166-.203.215-.164.071-.198.204-.117.343.037.056.064.133.11.15.502.209.625.776.906 1.19.134.194.141.465.14.708-.006.37.079.681.312.975.223.272.358.633.525.963.05.097.104.236.02.31-.221.212-.187.596-.445.778-.13.097-.064.235.015.348.113.16.233.316.45.194.258-.143.404.083.568.234.084.08.053.212.012.313-.064.16-.041.298.038.447.215.39.31.823.294 1.276a.248.248 0 0 0 .023.13c.015.032.056.072.085.072.03 0 .078-.033.088-.065.093-.276.159-.555.17-.847.02-.275.107-.524.265-.732.116-.154.317-.168.417-.005.171.277.382.514.562.777.18.252.166.593.237.892.058.234.054.422-.17.568-.177.118-.184.358-.134.546.115.475.332.902.585 1.302.049.086.14.091.212.025.046-.039.083-.094.13-.142.317-.328.328-.335.14-.791a1.502 1.502 0 0 1-.063-.915c.008-.048.072-.115.116-.118.046-.01.11.043.14.093.107.14.025.358.148.492.11.013.141-.076.166-.163.07-.211.144-.419.178-.636.054-.4.118-.77.448-1.04.205-.172.199-.417.034-.653-.282-.419-.198-.884-.15-1.35.004-.07.077-.162.134-.204.233-.155.498-.229.743-.08.302.193.615.317.96.332.13.002.223.084.27.224.024.064.04.123.059.194.1.333.252.582.602.66.204.043.262.177.161.402-.094.214-.06.353.056.546.138.222.08.392-.085.593-.157.187-.358.265-.612.292.13.358.237.659.247 1.002.013.24.194.428.317.637.271.459.235.91-.075 1.335-.306.416-.579.856-1.004 1.136-.196.136-.208.148-.41-.023-.066-.05-.102-.144-.205-.123-.079.2.117.375.033.581-.17.112-.335-.083-.516-.016-.294.104-.501-.034-.605-.364-.036-.117-.13-.163-.241-.151-.08.011-.16.016-.238.02-.116.003-.272-.082-.336.053-.095.201.104.258.198.35.159.16.181.357.106.548a3.859 3.859 0 0 1-.7 1.16c-.173.202-.616.257-.815.005a2.434 2.434 0 0 0-.71-.608 1.632 1.632 0 0 0-.335-.127c-.03-.008-.072.035-.1.06-.009.007-.013.047-.003.062.183.319.384.631.729.751.207.075.43.102.644.139.116.024.238.017.357.035.251.044.33.195.256.48-.016.062-.03.132-.06.19-.23.466-.454.938-.702 1.4a.603.603 0 0 1-.553.338c-.081.003-.162.02-.24.003-.328-.083-.529.04-.622.423-.074.305-.294.465-.57.515.038.194.089.386.105.582.031.283-.04.408-.27.531-.178.095-.36.2-.563.202-.183.008-.317.034-.234.297.004.028-.077.09-.123.132-.061.054-.177.11-.17.161.01.4-.296.548-.465.803-.058.086-.124.184-.15.289-.074.272-.232.46-.438.606-.146.106-.234.24-.208.443.048.378-.138.692-.225 1.03-.074.283-.12.567-.128.85-.009.425-.02.854-.028 1.274-.01.518.082.644.517.693.084.01.163.01.243.016.25.017.4.156.464.433.152.67.324 1.333.475 2 .052.211.14.294.294.188.494-.357.929-.274 1.36.134.148.138.357.203.543.283.49.207.956.45 1.234.99.076.138.196.206.336.255.472.183.942.365 1.312.764.089.094.206.162.325.156.405-.024.786.162 1.19.099a.734.734 0 0 1 .235.008c.442.09.652.353.568.845-.103.592.055 1.156.048 1.73 0 .22.066.274.246.3.142.02.282.025.415.064.192.059.292.221.322.434.01.093-.068.197-.14.166-.148-.06-.296-.13-.442-.195-.06-.024-.125-.024-.163.04-.034.066 0 .129.038.176.258.342.419.762.723 1.063.1.094.142.263.196.404.05.13.114.235.208.32.135.12.257.11.352-.038.06-.09.106-.187.168-.278.057-.073.136-.073.22-.047.084.03.148.191.248.087.023-.029-.048-.16-.065-.242-.037-.185.078-.292.172-.406.136-.173.158-.348.046-.55-.137-.231-.153-.504-.171-.774-.023-.326-.069-.663-.097-.99-.026-.35-.163-.638-.322-.932-.109-.194-.099-.228.065-.384.078-.068.157-.131.237-.205-.115.02-.23.043-.34.056-.03.008-.068-.03-.094-.04.017-.04.023-.094.053-.107.142-.066.292-.144.386.085.464-.23.861-.556 1.13-1.044.043-.082.086-.154.14-.22.404-.55.475-1.149.268-1.823-.113-.376-.173-.779-.25-1.172-.072-.384-.225-.701-.542-.909-.15-.106-.276-.258-.406-.4-.294-.317-.25-.83.163-.956.25-.077.366-.233.397-.505.009-.078.086-.146.142-.212a.356.356 0 0 0 .074-.369c-.176-.49-.14-1.053-.434-1.511-.078-.114-.054-.256-.009-.383.073-.212.14-.422.226-.622.07-.185.053-.318-.071-.481-.302-.39-.31-.753-.1-1.159.155-.278.342-.399.645-.344.295.057.59.084.858.254.104.067.224.097.336.146.292.126.593.157.852-.07.316-.273.589-.157.875.063.252.189.481.391.639.687.082.153.153.318.3.41.14.089.195.21.147.391-.046.189.048.308.179.38.228.126.435.318.718.289.177-.017.329.128.522.115.186-.015.283.174.201.376-.112.263-.13.511-.042.775.012.042.029.096.024.136-.112.558.125 1.073.151 1.611.021.352.118.534.45.538.064 0 .153.078.193.142.095.178.246.288.374.422.258.256.315.299.55.092.406-.37.888-.67 1.081-1.283.061-.193.149-.35.101-.572-.093-.465.186-.743.458-1.01.088-.09.244-.036.313.077.011.018.03.035.031.055.156.813.777 1.338 1.032 2.094.109.326.32.608.363.98.012.125.093.247.158.352.157.254.365.485.324.835 0 .018.004.049.018.063.328.343.28.719.116 1.135a.556.556 0 0 0 .135.61c.207.209.347.492.634.593.158.06.265.191.3.385.042.227.178.329.367.39.25.084.49.176.653.442.084.135.22.18.372.157.075-.009.165-.031.236.002.147.064.28.168.356.328.05.102.012.178-.201.436.045.15.236.085.278.197.142.427.482.539.802.706.286.155.46.416.373.82-.047.221-.006.45.053.66.117.421 0 .737-.282 1.017-.134.131-.242.293-.36.443.172-.05.341-.114.519-.157.146-.035.24.073.187.232-.11.306-.187.624-.336.923-.152.3-.333.594-.447 1.008.24-.064.395-.251.606-.145.13.063.189.112.154.286-.048.269-.03.26.204.34.212.067.413.151.643.076.087-.032.196-.007.295.003.317.054.383.182.29.545-.017.065-.04.122-.053.19-.034.196.018.26.254.315.171.04.2.115.099.266-.094.139-.24.241-.24.444 0 .042.005.093.03.125.014.016.069.016.095 0 .051-.035.086-.1.131-.132.048-.033.115-.079.158-.063.067.021.061.108.043.171-.047.14-.065.251.089.334.098.051.14.169.111.28a6.49 6.49 0 0 1-.212.764c-.077.206-.258.23-.444.083-.062-.05-.12-.123-.19-.156-.163-.073-.182-.212-.154-.38.024-.152.072-.304.018-.462-.01-.04-.038-.086-.07-.099-.024-.011-.077 0-.1.026-.221.25-.438.506-.663.76-.07.082-.155.143-.258.143a.246.246 0 0 1-.16-.069c-.04-.048-.016-.122.023-.179.107-.15.312-.213.349-.439-.141-.103-.265.079-.395.024-.112-.042-.222-.094-.335-.144-.016-.004-.038-.013-.058-.013-.573.125-1.145-.17-1.722-.01a.543.543 0 0 1-.174.023c-.23-.004-.36-.258-.231-.477.06-.11.142-.214.225-.305.128-.148.202-.278-.017-.417-.059-.03-.036-.128.017-.162.281-.174.387-.494.514-.794.225-.545.46-1.083.642-1.65.127-.39.37-.74.557-1.103-.057.007-.116.01-.174.019-1.032.153-1.028.153-1.734.99a3.538 3.538 0 0 1-.34.377c-.07.072-.164.165-.25.169-.473.02-.931.244-1.412.103-.173-.05-.358-.045-.534-.062-.12-.002-.245.03-.358 0-.575-.144-1.147 0-1.72 0-.535.007-.931.217-1.119.807a.57.57 0 0 1-.43.407c-.502.124-.794.54-1.07.968.094.134.161.05.224.012.26-.163.521-.327.777-.498a3.28 3.28 0 0 1 1.459-.546c.307-.037.6.026.86.208.344.24.386.643.1.958-.235.263-.508.431-.86.346-.052-.01-.11 0-.169.006-.01 0-.02.034-.02.052 0 .021.007.043.02.059.117.162.275.13.436.13.233 0 .33.115.32.37-.011.267-.036.53.023.795.087.43.276.728.701.766.067.212.153.39.387.442.294.069.569.224.87.053.045-.03.122-.007.173.021.151.066.222-.017.278-.16.147-.39.31-.77.558-1.098.04-.056.098-.087.157-.048.03.018.054.057.077.09a.153.153 0 0 1 .017.066c-.002.303.06.562.326.728.109.064.092.25-.001.35a1.048 1.048 0 0 1-.513.33c-.075.028-.187.028-.218.09-.309.53-.874.575-1.307.869-.085.053-.183.09-.277.128-.434.166-.848.364-1.11.831-.057.106-.17.18-.267.264-.349.277-.63.176-.777-.275-.124-.367-.043-.684.244-.943.19-.164.386-.32.576-.482.067-.061.106-.133.072-.23-.041-.102-.127-.122-.199-.073-.329.219-.693.332-1.066.414-.103.023-.198.077-.198.213-.004.223-.135.3-.292.36-.359.14-.695.33-1.017.555-.263.187-.593.267-.855.452-.657.474-.808 1.102-.532 1.835.064.157.163.238.33.22.117-.015.13.097.078.174-.084.124-.195.218-.086.398.025.052-.07.09-.126.083a1.42 1.42 0 0 1-.461-.156c-.3-.154-.647-.009-.82.353-.077.162-.194.219-.325.259-.348.101-.697.18-1.08.282.107.538-.146.96-.404 1.377-.087.14-.194.221-.358.146-.092-.045-.188.009-.13.117.194.386.071.74-.066 1.086-.08.205-.179.397-.272.59-.035.062-.1.106-.153.062a.218.218 0 0 1-.071-.17c.007-.173.044-.352.052-.524.002-.092-.052-.176-.139-.195-.098-.018-.153.058-.154.153-.004.402.018.778.2 1.157.187.387.272.83.372 1.263.05.202-.032.39-.232.472-.187.28-.442.45-.735.547-.233.071-.445.188-.598.41-.128.187-.314.265-.5.344-.233.1-.42.259-.54.508a1.328 1.328 0 0 1-.716.68c-.265.105-.44.308-.585.539-.378.58-.595 1.215-.372 1.943.041.128.06.261.11.38.308.61.416 1.301.651 1.932.256.695.15 1.363-.014 2.04-.042.17-.181.23-.333.15-.09-.045-.197-.078-.256-.162-.483-.654-.933-1.329-1.168-2.154a2.691 2.691 0 0 1-.1-.855.807.807 0 0 0-.211-.605c-.13-.131-.238-.296-.352-.451-.159-.217-.34-.303-.581-.18-.07.035-.146.065-.223.093-.222.087-.43.07-.624-.099-.091-.084-.193-.155-.294-.23-.315-.227-.654-.327-1.02-.171-.217.09-.435.066-.652.035a2.93 2.93 0 0 0-.475-.033c-.123.007-.235.07-.264.225-.053.25-.201.506.04.74.023.02.017.095.002.128-.031.063-.101.068-.156.04-.183-.12-.368-.12-.575-.066-.328.09-.633.012-.897-.242-.16-.15-.334-.222-.551-.15-.218.072-.435.002-.646-.055a1.307 1.307 0 0 0-.715.015c-.272.096-.509.239-.649.546-.15.346-.399.555-.75.582-.082.01-.166.024-.208.108-.122.262-.32.442-.49.66-.218.28-.265.646-.195 1.015.023.13.071.257.117.382.116.32.08.635-.14.86-.256.268-.294.585-.248.922.077.484.13.973.048 1.462-.013.065-.015.147.011.197.306.546.273 1.262.74 1.727.125.125.182.344.258.526.146.337.345.613.676.705.248.064.403.34.638.34.234-.006.466-.13.699-.169.39-.073.775-.238 1.18-.094.079.021.157-.03.213-.102.31-.403.598-.818.682-1.38.11-.784.2-.85.92-.972.395-.066.782-.207 1.187-.142.116.02.24.025.351.06a.399.399 0 0 1 .194.148c.148.226.043.477.044.717.005.135-.067.202-.171.242-.183.066-.232.238-.25.418-.023.199-.02.4-.061.598-.07.345-.116.701-.359.972-.136.149-.177.35-.177.558 0 .343-.046.659-.247.942-.087.127-.02.264.124.297.06.014.123.042.177.032.496-.072.996-.01 1.494-.082.59-.082 1.183-.066 1.723.339.336.256.46.546.358.964-.17.667-.17 1.37-.293 2.047-.106.567.092 1.004.41 1.399.212.262.436.519.676.757.25.246.565.343.888.246.293-.087.587-.169.827-.378.158-.136.329-.15.51-.103.385.105.8.146 1.062.545.071.105.155.212.206.322.2.414.136.642-.235.889-.152.1-.316.046-.404-.123-.064-.124-.071-.254-.088-.39-.04-.312-.323-.59-.612-.625-.08-.012-.155.02-.217.084-.117.115-.222.254-.352.357-.16.126-.2.257-.123.454.064.171-.008.306-.142.397-.13.097-.26.09-.387-.02-.172-.15-.36-.28-.52-.445-.216-.23-.466-.346-.76-.32-.171.017-.307-.049-.452-.129-.135-.068-.252-.145-.294-.313-.064-.265-.235-.406-.439-.51-.194-.093-.317-.293-.581-.287-.395.015-.594-.249-.568-.672.022-.364-.115-.571-.338-.794a6.566 6.566 0 0 1-.927-1.22c-.057-.099-.13-.192-.235-.173-.504.138-.94-.123-1.385-.297-.246-.098-.488-.2-.749-.219-.33-.024-.615-.19-.86-.432-.317-.304-.637-.604-.94-.932a2.012 2.012 0 0 0-.76-.515c-.202-.072-.39-.072-.574.05-.087.064-.175.11-.262.169-.313.197-.635.24-.975.076-.144-.074-.307-.092-.463-.134-.151-.054-.326-.073-.454-.167-.527-.382-1.134-.534-1.71-.771a2.105 2.105 0 0 1-.574-.353 1.875 1.875 0 0 0-.748-.404c-.387-.116-.755-.282-1.041-.62-.155-.183-.355-.29-.554-.394a1.336 1.336 0 0 1-.44-.345c-.233-.278-.363-.58-.206-.966.136-.343.105-.668-.041-1.02-.153-.371-.32-.71-.562-1.013-.319-.4-.588-.85-.988-1.161a.326.326 0 0 1-.121-.151c-.138-.435-.449-.656-.8-.834-.258-.14-.43-.322-.342-.68.036-.146-.034-.261-.128-.35-.153-.14-.311-.287-.457-.428-.077-.073-.19-.139-.215-.233-.186-.622-.764-.825-1.09-1.29-.052-.083-.172-.1-.264-.142a.215.215 0 0 1-.126-.203c.019-.661-.364-1.172-.52-1.766-.076-.277-.334-.375-.552-.487-.107-.05-.23-.071-.347-.101-.134-.034-.235.075-.205.23.052.326.088.667.189.98.116.36.297.692.693.73.176.02.24.152.28.308.065.23.144.454.223.686.194.55.488 1.016.84 1.447.083.097.156.21.2.328.171.452.342.907.475 1.37.077.274.17.489.419.613.204.099.345.298.457.513.103.195.081.376-.058.554-.103.139-.277.15-.353 0-.295-.592-.799-.923-1.263-1.312-.173-.138-.295-.302-.265-.554.086-.738-.363-1.102-.846-1.38a5.18 5.18 0 0 1-1.024-.797c-.097-.099-.082-.201.033-.265.54-.299.557-.403.164-.894-.21-.27-.424-.533-.698-.726-.142-.098-.217-.246-.278-.419-.22-.695-.532-1.347-.828-2.003-.08-.182-.17-.358-.214-.554-.089-.425-.325-.701-.647-.914-.447-.291-.886-.605-1.398-.751a.538.538 0 0 1-.418-.425c-.085-.328-.287-.578-.481-.834-.22-.292-.446-.571-.475-.98-.007-.107-.077-.21-.126-.296-.051-.097-.145-.179-.165-.278-.117-.52-.442-.892-.713-1.307-.157-.238-.278-.487-.31-.783a2.055 2.055 0 0 0-.301-.933.71.71 0 0 1-.07-.635c.156-.462.099-.921-.017-1.38-.057-.214-.08-.438-.126-.656-.045-.226-.029-.44.032-.66.31-1.194.302-2.424.275-3.653-.012-.588-.19-1.136-.376-1.68-.133-.394-.134-.394.05-.821-.298-.204-.555-.47-.872-.668-.423-.275-.842-.596-1.12-1.079a.684.684 0 0 0-.325-.286c-.093-.047-.205-.13-.187-.235.046-.294-.055-.429-.296-.483-.016-.002-.04-.085-.027-.115.017-.057.052-.128.1-.152.136-.066.273 0 .405.054.188.072.367.167.557.232.082.031.147-.042.18-.134.024-.064.014-.145-.05-.171-.07-.021-.153-.013-.231-.021-.385-.026-.493-.11-.551-.535-.021-.173-.058-.221-.214-.21-.085.008-.13-.097-.144-.189-.035-.395-.217-.721-.447-.999-.239-.291-.32-.593-.239-.977.046-.213-.024-.278-.228-.19-.313.127-.495-.044-.665-.292-.05-.073-.064-.173.029-.224.178-.106.107-.205 0-.299-.13-.11-.227-.216-.002-.33.06-.03.088-.111.05-.168-.179-.263-.19-.532-.036-.779-.048-.114-.105-.096-.165-.083-.25.035-.25.035-.328-.213-.007-.015-.007-.046-.007-.065-.014-.073-.051-.128-.117-.128-.077.006-.07.081-.077.147-.003.038-.022.096-.05.108-.02.008-.083-.021-.09-.045a14.457 14.457 0 0 1-.212-.698c-.023-.083-.011-.2-.13-.134a.186.186 0 0 0-.086.224c.064.242.07.482.04.733-.004.037-.027.087-.057.106-.054.04-.118.017-.161-.035-.05-.069-.095-.143-.146-.213-.064-.099-.105-.283-.251-.198-.1.06.006.198.006.305 0 .037-.02.1-.041.111-.066.03-.11-.02-.146-.074a.561.561 0 0 1-.125-.369c.026-.227-.09-.227-.24-.26-.102-.02-.136-.16-.084-.279.048-.091.133-.158.187-.248.049-.078.071-.204.014-.254-.258-.216-.164-.527-.183-.808-.15-.008-.102.15-.157.213-.084.083-.209.073-.242-.043-.031-.105-.046-.219-.075-.323-.083-.304-.077-.564.252-.67.05-.264.252-.159.417-.212-.028-.122-.048-.253-.083-.376-.017-.059-.052-.13-.098-.15-.06-.04-.111.018-.142.082-.14.245-.3.47-.575.534-.008.312-.013.624-.028.932-.001.028-.05.071-.08.078-.033.006-.086-.021-.099-.045a6.71 6.71 0 0 1-.258-.679c-.046-.154-.079-.296-.266-.29-.038 0-.102-.086-.108-.138-.034-.324-.201-.578-.325-.856-.029-.063-.057-.122-.078-.18-.115-.351-.033-.548.286-.675.065-.026.144-.029.256-.05-.098-.093-.176-.166-.245-.236-.05-.052-.095-.06-.142.013-.024.034-.04.076-.07.106-.212.205-.309.219-.536.082a2.16 2.16 0 0 1-.832-.843c-.13-.265-.254-.471-.55-.527-.185-.032-.35-.207-.52-.32-.117-.073-.14-.18-.135-.336.01-.225-.023-.254-.187-.221-.395.076-.743-.022-1.098-.212-.378-.203-.792-.324-1.218-.218-.363.09-.66-.01-.96-.224-.195-.145-.37-.34-.64-.334-.084.004-.177-.095-.248-.164-.133-.14-.27-.268-.452-.312a.431.431 0 0 1-.288-.226c-.139-.294-.373-.3-.62-.261-.119.017-.234.07-.355.014-.085-.04-.166-.024-.197.075-.045.125.057.137.128.153.14.042.216.116.14.29-.037.079-.075.178.019.229.04.024.11-.015.17-.02.098-.017.152.052.142.15-.018.211-.008.333.199.146.02-.023.083-.008.105.013.016.022.027.087.012.118-.043.104-.1.194-.146.291-.188.405-.395.55-.717.127-.036-.05-.129-.108-.136-.099-.244.243-.628.04-.855.401-.24.38-.647.568-1 .813-.122.095-.3.104-.455.139-.083.016-.162-.023-.203-.111a.22.22 0 0 1 .025-.244.566.566 0 0 1 .14-.127c.116-.09.187-.167.006-.273-.123-.076-.143-.21-.106-.348.035-.15.083-.3.134-.445a2.59 2.59 0 0 0 .153-.573c.084-.548.294-.749.84-.832.063-.005.118-.029.111-.11a.213.213 0 0 0-.049-.121c-.134-.123-.296-.188-.437-.065-.307.238-.667.402-.845.825-.166.399-.472.71-.606 1.15-.058.204-.224.355-.381.5a3.416 3.416 0 0 0-.342.37c-.298.376-.298.38.064.694.217.184.232.319.048.545-.041.048-.097.081-.135.133-.21.275-.241.702-.633.84-.3.108-.478.456-.774.61a.902.902 0 0 0-.437.535.949.949 0 0 1-.427.535c-.294.188-.519.499-.84.64-.124.05-.19.155-.19.302-.004.205-.119.326-.265.414-.203.135-.444.2-.613.402-.058.073-.14.057-.226.024-.147-.063-.272.004-.381.111-.086.087-.115.186.007.267.054.04.108.073.083.153-.03.091-.1.127-.182.143a.236.236 0 0 1-.271-.099c-.133-.197-.316-.155-.492-.155-.144.005-.193.097-.118.285.064.153.118.259-.1.222-.084-.01-.164-.034-.205.07-.053.11-.099.182-.217.065-.174-.178-.371-.094-.47.066a.918.918 0 0 1-.7.44c-.128.02-.244.15-.368.222-.077.04-.155.016-.217-.062a.247.247 0 0 1-.048-.245c.094-.23.219-.421.446-.508.187-.072.38-.14.565-.23.256-.124.493-.274.662-.547.294-.466.685-.744 1.221-.663a.225.225 0 0 0 .253-.14c.23-.504.614-.812 1.056-1.045.164-.088.27-.245.392-.393a3.48 3.48 0 0 0 .783-1.91c.02-.22.1-.424.15-.638-.134-.08-.216.062-.321.1-.115.039-.238.104-.347.032-.288-.186-.381-.01-.452.263-.035.115-.174.12-.246.02a1.005 1.005 0 0 1-.135-.219c-.093-.194-.233-.26-.42-.323-.292-.099-.534-.208-.654.236-.023.087-.122.135-.2.095-.176-.095-.359.035-.569-.059.023-.265.09-.545-.056-.812-.033-.056-.02-.182.01-.257.124-.326.023-.61-.107-.898-.109-.241-.187-.254-.334-.057l-.072.114c-.325.449-.769.434-1.086-.033-.093-.14-.21-.278-.264-.44a1.907 1.907 0 0 0-.421-.72c-.112-.12-.102-.23.002-.342.115-.123.096-.182-.038-.294-.165-.145-.265-.383-.422-.546-.304-.322-.395-.649-.135-1.056.08-.121.099-.291.146-.435.06-.195.128-.382.264-.526.177-.187.311-.388.358-.67.043-.247.17-.312.402-.298.52.026.977-.113 1.313-.601.1-.15.223-.239.409-.205a.855.855 0 0 0 .296-.018c.376-.088.57-.41.491-.84-.046-.256-.096-.524-.25-.746-.089-.132-.084-.238.046-.336.064-.051.132-.1.18-.168a.241.241 0 0 0 .024-.253c-.04-.084-.109-.117-.197-.1-.361.082-.676.245-.897.606-.149.238-.166.235-.39.122a1.605 1.605 0 0 0-1.168-.136c-.365.102-.712-.042-1.057-.124-.187-.044-.307-.202-.37-.407-.036-.128-.065-.257-.111-.379-.155-.39-.28-.79-.7-.933-.106-.045-.187-.16-.276-.256-.072-.085-.064-.24.02-.296.376-.255.739-.525 1.084-.829a.4.4 0 0 1 .217-.093c.154-.012.236-.109.335-.232.3-.37.67-.625 1.13-.668.18-.02.267.058.29.247.013.087.017.179.013.267-.007.44.21.553.529.553.118-.007.246-.023.358.005.388.105.656-.028.802-.45-.315-.1-.333-.093-.427-.414-.1-.325-.375-.521-.445-.862-.025-.1-.117-.089-.201-.107-.34-.064-.582-.252-.662-.662-.069-.367-.278-.637-.536-.86-.486-.427-.979-.846-1.467-1.265-.182-.158-.213-.238-.048-.43.171-.188.23-.404.283-.648.05-.25.085-.277.329-.288a5.43 5.43 0 0 0 .887-.145c.388-.09.646-.35.815-.72.102-.218.194-.448.236-.69.07-.36.2-.672.411-.95.086-.115.171-.252.234-.39.088-.189.187-.323.41-.293.194.022.345-.104.479-.243.26-.278.51-.562.767-.846.099-.107.194-.224.305-.313.1-.088.215-.113.337-.048.46.254.808.015 1.112-.34.15-.176.267-.392.404-.581.178-.238.278-.263.526-.134.264.138.563.254.54.681.043-.031.092-.069.14-.1.295-.175.37-.162.55.113.048.068.072.167.127.223a.331.331 0 0 0 .21.098.9.9 0 0 0 .35-.077c.33-.16.625.052.929.109.1.011.172.122.187.237.041.372.317.488.552.647.066.042.163.079.23.053.314-.101.633.02.945-.033.274-.044.518.033.755.15.221.11.438.212.655.335.306.173.623.289.971.267.227-.016.429.069.624.19.33.202.676.26 1.034.093.077-.036.158-.042.236-.062.44-.136.816-.039 1.15.322a1.97 1.97 0 0 0 1.402.654c.203.012.396.045.584.128.17.074.337.16.434.335.205.37.54.588.81.884.206.228.465.366.753.36.25 0 .468.08.686.185.076.035.162.057.215-.04.041-.082.017-.17-.028-.251-.075-.13-.193-.23-.212-.4-.01-.078.078-.192.142-.16.123.061.24.14.358.21.112-.144 0-.263-.005-.385-.006-.119.005-.24.114-.281.254-.096.386-.303.416-.602.357.2.357.2.509.438.153.24.3.256.458.037.066-.083.105-.19.16-.28.063-.117.157-.223.274-.243.404-.067.675-.387.97-.638.28-.24.575-.375.91-.442.11-.018.217-.133.323.007.1.138.08.312-.065.475-.097.113-.214.202-.317.3-.074.075-.14.155-.207.236.275.002.471-.204.7-.33zm27.734 12.956c.087.182.267.201.427.245-.249-.255-.486-.368-.427-.245zM76.374 88.42l-.001-.003c.003 0 .005.002.008.003h-.007zm-8.71 11.743c-.024-.083-.088-.049-.14-.021a1.185 1.185 0 0 0-.159.087c-.052.025-.108.064-.07.139.01.024.07.03.105.018.078-.007.15-.025.23-.038.01-.058.046-.13.035-.185zM24.688 73.29c-.072-.282-.098-.558.028-.834a.284.284 0 0 0-.008-.186c-.05-.066-.118-.139-.183-.147-.1-.018-.12.097-.111.178.023.286.098.568.087.846-.023.393.046.733.24 1.046-.01-.3.023-.605-.053-.903zM9.26 47.894c-.015.025-.022.089-.003.11.02.027.069.043.099.035.168-.022.17-.024.17-.372-.091.076-.184.147-.266.227zm17.82 3.29c-.033 0-.07.035-.101.06-.014.007-.026.038-.026.053 0 .02.012.052.026.06.256.091.598-.016.732-.253.06-.105.095-.234.14-.352-.226.202-.448.427-.77.432zm35.753 37.607c-.313-.253-.676-.236-1.018-.333-.082-.018-.156.04-.194.13-.123.316-.394.331-.61.246-.339-.126-.63-.032-.914.134a1.49 1.49 0 0 1-.501.191c-.213.033-.282.169-.242.446.024.16.036.306-.03.452-.267.564-.31 1.2-.409 1.808-.057.324-.02.67.012 1.001.016.244.073.498.327.583.171.054.348-.099.487-.411.184-.416.287-.837.094-1.29a.886.886 0 0 1-.052-.52c.07-.33.13-.656.2-.984.036-.18.122-.357.28-.405.26-.073.402-.262.537-.495.146-.258.302-.308.557-.218.214.068.393.214.57.367a.537.537 0 0 1 .17.343c.047.422.1.84-.196 1.203-.036.046-.074.11.014.165.048-.032.094-.07.149-.102.288-.163.438-.112.563.202.05.126.075.258.112.387.022.085.05.172.144.183.114.021.201-.05.237-.155a1.44 1.44 0 0 0 .08-.386c.017-.223.017-.456.124-.656.157-.303.212-.613.077-.949-.008-.023.023-.095.053-.107.026-.016.082-.011.108.012.05.039.09.087.126.138.129.203.288.37.488.487.168.095.331 0 .346-.215.006-.108.006-.233-.035-.323a2.573 2.573 0 0 0-.557-.773c-.194-.2-.382-.124-.583.16-.047.067-.106.16-.163.167a.9.9 0 0 1-.767-.286c-.05-.05.003-.13.067-.147.112-.028.228-.036.349-.05zm-6.853-.857c.163-.09.25-.13.334-.184.164-.11.297-.1.42.072.122.168.272.152.436.077.33-.155.662-.308.94-.571.107-.1.224-.189.343-.269.14-.089.296-.08.326.008.047.13-.041.206-.094.295-.01.025-.023.04-.034.061-.066.119-.043.206.072.258.092.047.197.08.265.152.28.296.566.322.931.16.322-.144.68-.256 1.034-.01.094.066.203-.04.18-.161-.07-.346-.151-.69-.217-1.04-.04-.197-.122-.327-.32-.317-.29.03-.434-.16-.542-.421a3.18 3.18 0 0 0-.201-.41c-.07-.119-.205-.127-.307-.028-.056.062-.086.184-.145.202-.122.04-.15-.106-.212-.194-.046-.073-.087-.15-.146-.212-.116-.117-.294-.183-.392.045a.804.804 0 0 1-.54.486c-.097.034-.165.113-.243.187-.226.21-.452.439-.704.61a9.226 9.226 0 0 0-.88.697c-.118.109-.271.195-.304.507zm6.81 5.83c.179-.006.333-.029.481-.106.465-.251.928-.505 1.392-.767.105-.059.2-.137.294-.224.074-.067.163-.148.1-.274-.045-.082-.14-.073-.218-.055-.1.018-.202.035-.282.09-.23.16-.464.234-.737.187a.374.374 0 0 0-.278.083c-.348.293-.682.606-1.14.66-.064.006-.076.173-.028.23.117.143.275.164.416.176zm3.518-2.645c-.446-.025-.861.08-1.228.385-.062.058-.112.13-.092.228.028.106.115.126.193.099.422-.155.84-.214 1.278-.089.267.08.506-.074.718-.253.117-.094.128-.302.04-.482-.053-.11-.188-.149-.305-.043-.186.162-.364.275-.604.155zm-32.967-5.762c.056-.086.013-.168-.022-.244-.177-.383-.522-.585-.746-.915-.016-.02-.084-.016-.11 0-.031.018-.067.067-.067.102.006.106-.01.251.042.317.252.318.44.74.903.74zm18.38-30.505c-.092.003-.182.139-.164.24.024.15.112.233.243.251.099.02.192-.096.192-.204-.004-.162-.133-.296-.27-.287zm28.069 23.933c-.335-.042-.595.067-.707.52.306-.106.492-.331.707-.52zM5.749 57.645c-.036 0-.08 0-.115.005-.017.004-.046.028-.046.037 0 .043-.007.096.013.125.087.13.197.22.358.178.08-.017.148-.072.148-.178 0-.077-.06-.108-.118-.125-.083-.009-.161-.033-.24-.042zm19.17-4.681c-.048-.196-.086-.38-.265-.474-.006 0-.042.021-.042.033-.009.198.13.304.216.438.007.011.037.003.09.003zm20.554.532c-.017-.054-.02-.107-.048-.123-.027-.016-.085-.008-.106.016a.4.4 0 0 0-.092.157c-.023.063-.002.128.067.147.026.003.079-.016.097-.042.036-.042.057-.105.082-.156zM33.257 85.99c.004-.044-.043-.106-.107-.124-.06-.014-.11-.005-.147.058-.04.074.023.16.117.162.06 0 .113-.014.137-.096zm36.515 8.31c.048-.017.106-.026.158-.051.022-.018.03-.074.036-.107 0-.009-.029-.039-.044-.033a.597.597 0 0 0-.172.026c-.047.022-.12.043-.094.127.008.021.07.021.116.038zM31.75 83.54c.072.02.101 0 .108-.052 0-.015-.013-.045-.028-.05-.048-.032-.095-.067-.148-.084-.054-.012-.118-.021-.143.052-.005.016.042.06.073.077.052.03.108.05.138.057zm35.478 12.996c-.063.04-.057.114-.05.172.007.073.034.128.11.09.025-.017.041-.077.036-.115 0-.066-.03-.127-.096-.147zM4.878 57.037c.06.006.115-.053.102-.116-.007-.032-.043-.075-.067-.08-.065-.009-.11.035-.097.107.003.03.039.06.062.089zm79.046-49.33c.124-.189.118-.427.205-.624.117-.262.1-.468-.064-.721-.207-.325-.194-.724-.07-1.098.057-.189.257-.242.392-.115.074.072.143.153.2.249.234.36.46.724.692 1.09.022.038.042.074.061.114.162.334.14.401-.194.59-.054.028-.115.056-.089.137.01.038.042.073.076.095.066.05.141.085.21.125.076.032.177.05.214-.046.11-.283.268-.192.443-.102.142.075.279.19.442.188a.223.223 0 0 0 .154-.086c.025-.046.04-.14.017-.184a2.567 2.567 0 0 0-.241-.382c-.582-.782-.692-1.734-.786-2.695-.02-.217.07-.33.268-.376.565-.115 1.04-.012 1.353.568.23.426.527.78.838 1.13.217.235.435.464.706.614.29.18.491.43.599.8.122.423.344.8.597 1.15.084.11.194.16.322.107.155-.065.253-.313.143-.439-.324-.372-.38-.877-.552-1.324-.13-.339-.289-.633-.547-.86-.057-.057-.112-.128-.172-.18-.383-.345-.674-.749-.768-1.313-.04-.232-.174-.45-.266-.672-.095-.236-.046-.364.181-.457.47-.196.897-.154 1.272.252.38.41.693.867.917 1.401.029.078.045.171.087.245.042.087.106.15.194.106.083-.049.083-.15.083-.237-.006-.163-.09-.285-.17-.416a18.28 18.28 0 0 0-1.064-1.611.7.7 0 0 1-.087-.174c-.054-.122.01-.287.135-.317.092-.023.194-.04.293-.04h1.617c.568-.01 1.036.204 1.43.687.317.39.63.758.635 1.428.126-.459.141-1.06.064-1.306a.747.747 0 0 0-.31-.391c-.279-.19-.551-.368-.814-.567-.28-.21-.592-.253-.913-.251-.641.014-1.281.014-1.918.017-.138 0-.278.006-.42-.019-.351-.071-.551-.34-.652-.701-.067-.245.17-.736.388-.843.14-.072.281-.043.401.052.156.137.303.285.454.428-.014-.063-.032-.128-.032-.192-.013-.227.032-.31.19-.336.096-.016.198-.024.297-.024.657 0 1.318.013 1.978 0 .3-.004.542.081.707.388.144.26.356.426.644.415.411-.021.616.232.733.631.03.102.036.224.16.266.09-.157-.024-.289-.054-.432-.057-.31-.09-.616-.04-.929.029-.168.124-.282.275-.305a2.85 2.85 0 0 1 .418-.026c1.117-.003 2.238 0 3.351 0 .06 0 .123 0 .185.005.46.026.496.117.233.632.411-.083.809-.096 1.13-.416a.822.822 0 0 1 .612-.216c.577.016 1.159-.068 1.729.11.212.066.434.016.65-.04.434-.11.875-.083 1.312-.054.279.011.394.16.382.475-.005.15-.042.305-.072.454-.031.152-.13.274-.106.448.123.102.173-.037.244-.093.291-.227.567-.186.818.059.122.114.224.253.324.39.078.107.158.18.29.208.49.128.732.577.972 1.004.089.153.046.351-.016.521-.178.454-.418.867-.668 1.266a.805.805 0 0 1-.5.339c-.443.104-.824.326-1.172.643-.339.303-.746.278-1.144.252-.233-.016-.47-.103-.703-.148-.46-.094-.904-.087-1.352.108-.298.13-.575.23-.81.515-.225.277-.559.425-.88.545-.35.128-.636.371-.925.609-.24.188-.319.444-.28.758a.27.27 0 0 0 .083.16c.053.042.122.008.158-.048.318-.57.823-.818 1.352-1.05.41-.173.824-.33 1.208-.577a.545.545 0 0 1 .222-.097c.554-.032 1.099-.227 1.664-.112.214.047.434.047.651.087.253.045.377.171.374.435-.011.564-.06 1.112-.52 1.493-.352.292-.63.68-1.037.9a.35.35 0 0 0-.168.262c-.013.093-.006.187.06.248.065.065.144.077.217.029.069-.048.134-.099.193-.154.4-.373.783-.77 1.197-1.111.453-.376.665-.875.75-1.47.015-.09.008-.179.022-.268.039-.348.207-.574.522-.641.194-.046.388-.097.585-.123.187-.021.294.062.372.263.08.205.101.43.123.655.123 1.48-.14 2.885-.705 4.226-.194.463-.391.926-.53 1.417-.102.363-.287.687-.456 1.013-.04.08-.06.168-.077.252a.165.165 0 0 0 .036.118c.016.016.08.013.1-.01.187-.205.304-.463.405-.736.335-.904.722-1.782 1.29-2.552.142-.194.23-.41.282-.657.067-.328.215-.628.365-.914.182-.36.244-.411.74-.67.013.334-.237.634-.104.954.091.014.121-.054.164-.099.309-.368.535-.396.868-.099.077.067.128.166.205.24.077.076.194.043.255-.056.078-.134.114-.28.132-.437.049-.355.1-.708.13-1.063.035-.37.158-.611.513-.717.327-.103.644-.213.99-.218.452-.008.847.115 1.251.369.467.29.842.654 1.151 1.131.134.207.17.397.07.623-.087.203-.175.41-.322.56-.323.323-.522.733-.691 1.165-.14.35-.32.588-.7.614-.26.016-.324.205-.217.478.244.639.25.646-.308.89a.958.958 0 0 0-.461.408c-.184.311-.436.368-.733.251-.056-.022-.115-.036-.174-.06-.293-.14-.53-.122-.69.252-.095.232-.308.327-.51.43.193.224.416.258.646.09.452-.33.838-.114 1.213.175a.32.32 0 0 1 .11.352 3.335 3.335 0 0 1-.438.954.719.719 0 0 1-.576.305c-.418.014-.835.037-1.24-.139-.346-.146-.445-.068-.592.314-.171.46-.224.949-.259 1.44-.006.052.029.139.071.163.066.043.1-.036.122-.09l.29-.661c.15-.353.408-.538.738-.618.142-.026.276-.078.411-.092.313-.035.564.222.529.564-.042.424-.17.822-.37 1.193-.11.206-.298.26-.517.262-.486.008-.557.073-.611.573-.024.2-.04.402-.046.603 0 .247.04.473.223.663.165.176.158.27.003.458-.279.34-.453.72-.441 1.197a.437.437 0 0 1-.304.448c-.093.038-.188.066-.28.112-.135.077-.228.197-.223.368.042.832-.276 1.617-.268 2.45.005.148-.059.302-.109.446-.108.296-.116.61-.146.924-.005.034.03.09.052.098.03.01.093-.008.102-.032.086-.174.17-.352.234-.54.087-.26.256-.36.493-.417.26-.066.4.113.588.23.188.116.339.198.339.482 0 .173.088.341.118.513a.254.254 0 0 1-.076.237c-.072.059-.153.05-.218-.007-.176-.153-.345-.303-.593-.274-.11.013-.196.121-.125.217.155.227.04.556.25.734.187.167.43.23.582.466.062.09.134 0 .203-.044.278-.191.523-.086.568.254.061.445.061.894 0 1.335-.032.244-.18.342-.39.278a2.461 2.461 0 0 1-.507-.21 2.215 2.215 0 0 0-.815-.274c-.17.18-.194.475-.38.654-.109.106-.091.234-.014.36.046.084.04.178-.04.232-.078.05-.16.021-.218-.042-.13-.14-.248-.293-.375-.432-.077-.09-.165-.127-.265-.033-.1.097-.13.254-.065.357.02.036.04.075.074.1.284.238.467.547.53.939.027.194.136.26.302.23.248-.051.467.079.703.113.182.024.28.158.317.353.03.188-.053.293-.187.377-.07.043-.132.095-.194.138.01.06.008.127.03.139.397.227.561.604.568 1.093.007.197.048.4.07.597.032.226.007.446-.077.658-.03.083-.072.16-.161.176-.086.012-.16-.033-.197-.122-.146-.376-.45-.55-.746-.735-.048-.027-.109-.027-.207-.05.033.27.19.406.317.564a.46.46 0 0 1 .109.299c-.007.312 0 .312.194.328.313.033.49.236.52.603.02.223-.108.394-.387.507-.033.01-.073.007-.112.024-.01 0-.015.028-.033.075.363.134.717.219 1.081.033a.113.113 0 0 1 .158.055c.023.053.04.159.017.182-.188.19-.22.465-.318.703-.087.204-.21.386-.445.397a.369.369 0 0 0-.27.118c-.312.343-.67.348-1.052.169a3.058 3.058 0 0 0-.222-.103c-.083-.029-.152-.01-.205.08-.047.096.007.24.119.257.325.055.595.265.884.398.294.143.325.235.289.571-.013.109-.03.22-.048.332-.064.408-.08.452-.451.459a.639.639 0 0 0-.53.26c-.305.386-.58.331-1.002.002a1.89 1.89 0 0 1-.588-.749c-.033-.078-.072-.157-.125-.27-.21.113-.197.439-.43.502-.056.02-.043.184.033.23.123.076.256.123.387.175.388.152.736.348.887.818.068.202.24.216.382.292.292.154.303.202.286.563-.013.22-.117.26-.276.26-.035.004-.067.036-.119.06.068.205.267.26.365.414.084.134.077.26-.069.305-.141.047-.224.088-.124.26.035.058.07.112.098.17.032.085.032.18-.028.248-.064.075-.164.081-.217.025-.383-.385-.866-.632-1.191-1.09a1.329 1.329 0 0 1-.229-.612c-.018-.131-.024-.267-.042-.397-.012-.091-.03-.188-.11-.23-.09-.042-.148.03-.205.096l-.26.336c.018.18.144.228.23.308.11.11.195.24.198.402.008.296.183.473.359.664.282.314.57.625.887.888.16.133.32.263.381.494.018.078.097.139.15.202.189.21.189.21.078.484-.024.062-.052.12-.077.183.086.14.177.01.261.01.094.007.15.064.158.157.008.089-.006.179-.006.268 0 .579-.038 1.159.113 1.73a.76.76 0 0 1 .018.198c.002.133-.131.235-.251.206-.19-.045-.297-.211-.439-.366a1.886 1.886 0 0 1-.071.179c-.11.216-.21.276-.375.226a.975.975 0 0 1-.657-.63 2.748 2.748 0 0 1-.118-.45c-.1-.58-.329-1.046-.878-1.255-.155.041-.062.218-.101.33-.041.1-.084.207-.096.313a.52.52 0 0 0 .046.255c.036.107.108.188.148.291.188.477.06.76-.404.891-.167.042-.358.016-.517.182l.182.525c.164.036.253-.07.355-.136.286-.182.572-.17.86-.006.07.04.14.075.21.116.489.288.987.504 1.552.335a.105.105 0 0 1 .135.091.3.3 0 0 1-.035.185c-.047.067-.112.15-.179.163-.286.058-.434.395-.726.445-.034.007-.082.044-.088.077-.136.508-.576.699-.855 1.053-.054.066-.12.119-.161.193-.452.87-1.203 1.275-2.008 1.582-.34.13-.692.218-1.015.402-.053.03-.112.042-.165.071-.14.068-.27-.15-.398-.021-.084.09-.125.23-.206.319-.046.061-.142.09-.218.106-.134.02-.276.024-.414.032-.295.021-.56-.018-.653-.411a.224.224 0 0 0-.078-.099c-.03-.023-.077-.048-.107-.04-.022.01-.052.085-.039.107.274.498.087.831-.3 1.111-.34.245-.492.623-.57 1.054-.086.498-.27.93-.582 1.3-.08.096-.149.206-.208.325-.126.24-.299.418-.557.451-.14.015-.211.105-.26.237-.119.336-.389.406-.665.484-.16.047-.305-.018-.47.021-.27.075-.387-.104-.341-.422.013-.085.04-.166.059-.254-.135-.048-.158.058-.182.128-.071.213-.173.417-.188.63-.025.353-.229.45-.473.501-.156.037-.316.021-.478.033-.211.02-.281.09-.3.324-.01.112.014.224-.016.33-.05.201-.141.371-.358.387-.102.005-.2.022-.296.045-.11.034-.164.148-.117.265.056.14.13.276.186.419.056.138.135.277.125.435-.062.115-.177.08-.266.123-.125.069-.164.17-.068.245.17.146.278.323.258.57-.016.334-.052.677-.241.95-.17.244-.381.442-.411.784-.005.137-.135.21-.251.265-.092.043-.188.076-.278.128-.097.057-.127.162-.104.283.016.085.053.166.07.253.115.596.212 1.176-.086 1.756-.115.221-.131.507-.19.769-.058.253-.065.529-.237.745a.386.386 0 0 0-.066.248c.045.372-.16.582-.384.78-.181.162-.24.147-.33-.113-.042-.122-.081-.186-.206-.163a.66.66 0 0 1-.296.007c-.16-.04-.303-.13-.302-.353.006-.147-.056-.244-.158-.333-.14-.125-.253-.297-.4-.395-.145-.096-.11-.374-.305-.38a3.246 3.246 0 0 0-.593.058c-.076.013-.146.078-.22.1-.253.093-.29.072-.367-.26-.03-.12-.08-.203-.17-.26-.1-.074-.213-.128-.304-.21-.217-.19-.447-.345-.46-.729-.005-.202-.177-.395-.25-.601-.184-.47-.488-.868-.63-1.366-.04-.134-.162-.244-.242-.37-.222-.352-.413-.728-.489-1.141-.085-.45-.151-.94.344-1.214a.467.467 0 0 0 .157-.2c.048-.11 0-.217-.077-.296-.066-.076-.21-.06-.263.035-.089.147-.158.309-.246.455a.19.19 0 0 1-.21.094c-.083-.02-.139-.086-.16-.177-.002-.024-.012-.047-.012-.066.024-.593-.118-1.14-.282-1.696-.074-.255-.151-.492-.307-.696-.184-.239-.339-.497-.339-.83a.257.257 0 0 0-.023-.127c-.217-.424-.13-.817.084-1.202.075-.136.057-.251-.07-.339-.387-.237-.443-.587-.302-1.023.078-.23.107-.473.147-.72.06-.334.17-.639.418-.981.07-.097.07-.193.088-.301.064-.463.27-.654.681-.66.017 0 .039.006.057.006.464.003.47-.001.464-.5a5.826 5.826 0 0 1 .007-.404c.005-.062.042-.13.05-.19.044-.177.295-.13.283-.288-.006-.138-.144-.26-.12-.43.028-.267.075-.529.193-.77.237-.466.033-.554-.29-.629a.815.815 0 0 0-.177-.024c-.444.037-.821-.11-1.137-.472-.065-.073-.182-.089-.27-.134.24.406.441.843.81 1.14.206.162.216.57.035.71-.383.302-.798.505-1.28.367-.123-.027-.223-.122-.154-.293.025-.061.047-.13-.033-.162-.07-.03-.152-.03-.23-.06-.273-.106-.314-.171-.298-.483.015-.351.104-.692.081-1.046-.012-.23.176-.372.376-.318.229.064.452.157.7.157a34.344 34.344 0 0 0-.402-.293 1.29 1.29 0 0 1-.438-.537c-.112-.235-.026-.462.213-.502.514-.075.995.023 1.4.412.154.144.302.295.465.422.064.061.158.045.193-.061.06-.167.124-.327.158-.499.035-.159.007-.309-.117-.425-.177-.162-.453-.226-.443-.576.002-.028-.092-.066-.143-.084a1.1 1.1 0 0 0-.534-.07c-.306.031-.394-.329-.287-.558a.8.8 0 0 1 .274-.345c.1-.071.207-.127.324-.2-.254-.042-.254-.042-.418.04-.072.033-.148.072-.223.096-.091.026-.214-.091-.193-.198.02-.106.071-.204.1-.308.018-.073 0-.14-.053-.178-.06-.043-.119-.024-.161.028a.854.854 0 0 0-.235.593.453.453 0 0 1-.239.43c-.41.223-1.057-.21-1.071-.711a.482.482 0 0 1 .15-.352c.074-.078.169-.17.123-.284-.119-.264-.012-.457.136-.657.222-.31.248-.7.312-1.075.021-.13.005-.265.027-.393.088-.426-.048-.694-.416-.83-.153-.054-.224-.16-.164-.355.128-.44-.014-.835-.188-1.202-.103-.211-.188-.38-.123-.62.05-.193-.047-.342-.1-.509-.085-.248-.242-.469-.18-.764.032-.145-.115-.228-.138-.352-.034-.174-.229-.34-.03-.54.06-.056 0-.172-.048-.244-.171-.238-.403-.433-.372-.8.008-.074-.095-.198-.179-.246-.468-.287-.575-.826-.752-1.321a.71.71 0 0 1-.012-.393c.084-.41-.082-.687-.393-.877-.105-.064-.194-.164-.322-.164-.14-.005-.21-.097-.254-.235-.022-.064-.055-.137-.1-.165-.556-.332-.996-.903-1.672-.975a.992.992 0 0 1-.341-.11c-.104-.048-.173-.229-.304-.154-.1.054-.165.178-.247.275-.112.127-.228.174-.361.033-.136-.145-.24-.082-.359.041a8.891 8.891 0 0 1-.503.469c-.1.087-.26.034-.302-.094-.046-.145-.067-.306-.118-.45-.036-.088-.125-.104-.2-.037-.033.025-.055.066-.084.096-.165.19-.166.19-.375.06-.017-.009-.033-.027-.048-.036-.053-.037-.116-.063-.162-.013-.078.08-.037.16.01.237.09.149.183.294.27.44.047.074.1.148.061.285-.864-.163-1.616-.547-2.114-1.408-.141-.244-.137-.397.023-.608.116-.158.245-.294.415-.37.071-.03.153-.05.176-.156-.03-.116-.116-.106-.194-.111a1.467 1.467 0 0 1-.785-.28c-.055-.032-.1-.075-.154-.106-.17-.115-.415 0-.545-.22-.094-.17-.188-.341-.335-.467-.123-.096-.093-.24-.03-.356.289-.504.668-.826 1.243-.722.138.03.273.041.437.073.082-.473.395-.635.763-.708.2-.042.41-.077.594.017.327.176.521-.034.722-.263.133-.148.146-.286.057-.483-.047-.1-.116-.188-.233-.167-.155.034-.324 0-.445.15-.292.338-.618.382-.974.142-.085-.053-.15-.028-.188.069-.08.206-.232.315-.424.298-.243-.019-.493-.082-.639-.315-.107-.177-.137-.414-.344-.515-.028-.016-.028-.122-.028-.185.012-.157-.06-.196-.182-.17-.171.031-.319-.002-.422-.174-.084-.136-.214-.197-.34-.263-.107-.057-.24-.106-.283-.228-.107-.301-.388-.454-.481-.753.128-.383.016-.798.14-1.18.058-.173.118-.343.273-.425.252-.127.443-.377.73-.441.041-.01.089-.02.112-.043.33-.383.756-.571 1.17-.79.128-.066.21-.16.197-.36-.01-.256.182-.395.361-.487.291-.138.599-.243.898-.363.1-.04.193-.01.294.024.131.048.27.08.404.112.172.035.31-.024.404-.202.212-.407.42-.811.636-1.21.174-.316.194-.626.053-.955-.025-.064-.053-.122-.073-.189-.07-.274-.036-.368.191-.554.016-.009.038-.009.053-.026.159-.132.198-.237.064-.376-.165-.172-.2-.315-.048-.509.048-.063.1-.158.025-.232-.033-.033-.114-.025-.165-.016-.14.03-.27.09-.409.113-.177.023-.358.054-.535.033-.807-.085-1.189-1.044-.7-1.775.117-.185.24-.353.298-.571a.684.684 0 0 1 .165-.276c.408-.432.71-.964 1.088-1.42a.876.876 0 0 0 .133-.225c.243-.663.74-1.083 1.188-1.551.281-.292.549-.28.856-.014.11.096.205.216.317.308.158.134.365.076.445-.132.042-.099.07-.209.077-.32.01-.155.017-.315 0-.47-.077-.66-.052-1.34-.277-1.972-.281-.809.373-1.446.851-1.582.143-.04.273.025.404.07.425.148.687.435.702.96.002.088.016.179.034.268.03.183.127.322.277.408.036.019.083.033.115.024.042-.014.055-.066.026-.11a1.605 1.605 0 0 1-.294-.798 1.138 1.138 0 0 0-.457-.822c-.34-.257-.238-.468-.012-.695a2.929 2.929 0 0 1 1.078-.697c.607-.216 1.189-.494 1.722-.898.533-.4.735-.315 1 .355.15.39.25.792.264 1.23.005.354.062.71.099 1.062v-.005zm6.173-6.65a.32.32 0 0 0 .146.106c.024.01.073.01.099-.013.013-.016.01-.081-.007-.106a.715.715 0 0 0-.42-.302c.061.11.118.217.182.315zm17.66 13.512c-.017.008-.037.024-.042.04-.012.04-.012.08-.012.114 0 .009.042.03.05.022.415-.258.867-.202 1.314-.203-.734-.433-.738-.43-1.31.027zM83.708 8.8c.186-.439.216-.76.217-1.09a2.488 2.488 0 0 0-.217 1.09zm19.517 37.521a.805.805 0 0 1-.011-.008.52.52 0 0 1-.005.002l.005.005.01.001zm-.246-.275c-.02-.012-.076-.003-.094.014-.018.026-.024.09-.005.11.075.149.185.2.33.145-.077-.092-.15-.184-.231-.27zm.91.35c-.253-.182-.467-.059-.664-.075.19.141.387.154.664.074zm-1.519 2.206l.004-.006v-.004s-.002 0-.003.002v.008zm.77-.714c-.036-.004-.08-.013-.114-.013-.647.018-.649.018-.652.717.511-.323.562-.372.766-.704zm-1.006 1.063c-.01.012.023.082.047.094.029.012.078-.002.1-.029.1-.116.077-.27.09-.414-.082.12-.162.224-.237.349zm-17.082 5.526c.128.01.21.008.264-.068a.163.163 0 0 0 .018-.115c-.039-.127-.131-.162-.234-.146-.078.02-.147.06-.221.092-.015.005-.038.034-.035.047.008.04.014.091.037.105a.969.969 0 0 0 .17.085zm17.33-4.504c.15.09.304.118.437 0 .025-.02.045-.079.037-.106-.007-.03-.066-.053-.094-.048a7.071 7.071 0 0 0-.38.154zM86.334 8.678c-.028.025-.05.037-.05.048-.004.12.022.221.12.285.015.008.045 0 .054-.013.04-.062.014-.126-.016-.18-.03-.051-.07-.094-.108-.14zm5.2-3.292c-.03.022-.06.028-.06.04-.035.127.06.144.126.171.043.025.079 0 .086-.05.005-.022-.007-.05-.018-.057-.043-.04-.094-.07-.135-.104zm-20.54 59.172c-.191-.122-.375-.258-.49-.48-.085-.163-.102-.302.043-.47.177-.204.12-.357-.137-.38-.38-.04-.61-.303-.797-.622a3.351 3.351 0 0 1-.294-.652c-.08-.273-.258-.385-.481-.434-.099-.024-.222-.024-.265.096-.125.343-.352.338-.585.2-.207-.117-.3-.04-.452.12-.424.449-1.104.385-1.492-.094a.9.9 0 0 1-.013-1.1c.154-.203.341-.373.418-.636.047-.153.177-.171.305-.13.287.088.575.166.883.182a.82.82 0 0 0 .403-.062c.344-.161.688-.314 1.046-.392.016-.188-.064-.29-.129-.4-.07-.11-.15-.211-.218-.324-.146-.248-.166-.493.033-.729.177-.214.343-.434.526-.638.164-.193.338-.368.371-.665a.56.56 0 0 1 .132-.29c.213-.218.193-.466.13-.74-.091-.362-.181-.732-.258-1.099-.063-.319-.147-.588-.47-.707-.214-.081-.246-.328-.259-.558-.008-.15-.057-.182-.187-.112-.107.064-.184-.022-.251-.108-.166-.195-.243-.452-.345-.678-.285.024-.449.238-.654.365-.155.092-.313.277-.489.132-.141-.12-.052-.336-.057-.505-.01-.154.072-.254.204-.285.04-.01.084-.01.117-.025.318-.133.358-.304.113-.59-.112-.12-.237-.22-.36-.332h-.005v-.004l.007.004c-.1-.165-.232-.316-.283-.501-.05-.18-.114-.275-.28-.27-.179 0-.249-.12-.266-.294-.017-.132-.017-.268-.047-.397a.386.386 0 0 0-.133-.204.458.458 0 0 0-.226-.102c-.162-.037-.276-.365-.447-.197-.112.108.06.321.085.498.022.189.006.362-.155.466a.725.725 0 0 0-.322.46c-.036.13-.14.21-.24.284-.258.205-.442.125-.505-.23-.035-.211.081-.268.234-.308.108-.031.123-.179.041-.254-.212-.202-.475-.202-.731-.224-.015-.004-.056.071-.05.1.018.082.058.164.085.25.008.037.008.095-.014.126-.017.021-.084.035-.1.021-.18-.19-.368-.208-.598-.082-.148.082-.314-.017-.459-.094-.217-.118-.422-.232-.675-.089-.128.072-.276-.008-.41-.034-.352-.08-.694-.216-1.062-.152-.097.016-.2-.027-.294-.064-.136-.052-.265-.066-.401.018a.474.474 0 0 1-.352.038c-.107-.024-.205-.134-.187-.216.023-.103.093-.137.174-.15.059-.012.12-.019.178-.038.06-.013.106-.061.106-.138 0-.073-.04-.135-.106-.138-.218-.023-.443-.05-.658-.033-.2.018-.334-.062-.481-.2a3.048 3.048 0 0 1-.722-1.056.82.82 0 0 1-.083-.383c.006-.167.077-.249.223-.217.176.05.345.11.516.16.115.037.23.087.347.094.07.01.164-.037.212-.095.082-.11-.002-.205-.064-.288-.165-.219-.372-.336-.63-.344a2.051 2.051 0 0 1-.705-.13c-.21-.088-.351-.243-.34-.495.028-.55-.121-1.1.01-1.659.062-.257-.034-.533.036-.795.17-.644.316-1.298.518-1.925.121-.375.309-.728.513-1.058.28-.454.703-.7 1.152-.914.38-.182.75-.097 1.116-.007.35.087.426.326.203.621-.17.222-.342.434-.488.684-.142.243-.272.486-.324.785-.028.167-.08.343-.141.51-.135.364-.188.719.008 1.086.122.226.07.475.046.725-.067.737.387 1.66.97 2 .054.032.123.02.152-.053a.192.192 0 0 0 .012-.126.418.418 0 0 0-.089-.17c-.076-.067-.17-.113-.248-.181a1.062 1.062 0 0 1-.222-.225c-.312-.466-.3-.73.052-1.171.088-.113.206-.202.301-.287.002-.14-.083-.17-.146-.214-.214-.139-.297-.35-.31-.618a9.144 9.144 0 0 1-.016-.53c0-.163.037-.326.185-.387.216-.096-.053-.307.094-.392.128-.082.228-.162.172-.365-.038-.141.033-.256.143-.336.365-.27.728-.544 1.092-.817.349-.264.74-.304 1.146-.27.23.018.37.155.447.382.03.105.067.214.064.322-.011.367-.007.712.3.954.04.03.075.132.061.181-.138.482.337.866.173 1.354-.07.207-.107.433-.153.644-.02.087-.047.177-.047.264 0 .056.039.121.078.162.053.04.116.004.163-.046.089-.093.13-.214.164-.347.03-.105.066-.212.114-.307.03-.064.116-.083.15-.024.113.214.318.259.5.333.176.075.32-.018.322-.246 0-.359.171-.581.418-.759a.775.775 0 0 1 .855-.073c.307.155.6.35.936.433.219.058.31.269.399.475.07.157.118.325.114.514-.002.147.06.26.192.301.258.084.329.29.31.572-.015.173.077.227.224.205.04-.006.082-.017.12-.017.122 0 .209.061.168.203a.79.79 0 0 0 .063.657c.142-.102.265-.205.4-.285.177-.102.294-.381.57-.188.358.245.77.421.822.978a.484.484 0 0 1-.118.37c-.058.07-.17.11-.163.237.059.02.094.048.129.039.44-.108.443-.113.498.36.017.144.084.18.202.16.495-.073.873.23 1.258.499.136.093.136.344.03.476-.068.083-.152.148-.226.22-.06.05-.129.098-.217.165.097.067.168.1.23.157.061.046.122.103.192.168.046-.058.09-.098.124-.153.187-.295.317-.329.5-.094.145.182.278.384.389.593.144.272.054.472-.235.505-.216.023-.374.146-.54.26-.075.055-.068.173.013.215.201.104.418.15.635.168.21.021.381.116.523.296.113.138.075.312-.078.374a.844.844 0 0 1-.792-.039c-.182.177.033.301.007.447-.025.124-.083.249-.027.385.032.081.043.174.043.257 0 .11-.11.202-.057.317.077.153.228.171.365.202.233.052.433.105.557.412.082.22.384.287.484.552.015.042.143.055.218.044.23-.026.45-.027.573.245.403.268.622.669.692 1.19.017.114.093.188.212.188.08 0 .16-.022.24-.01.111.01.187.092.17.22-.04.246.057.322.258.322a.943.943 0 0 1 .76.335c.165.191.257.402.121.663-.112.22-.105.536-.4.62-.11.033-.106.17-.11.287-.006.253-.098.472-.218.683-.089.155-.187.29-.37.305-.157.013-.194.132-.182.285.028.26-.095.474-.16.705-.045.147-.146.163-.293.095-.49-.223-.816-.667-1.02-1.16-.224-.532-.57-.892-.964-1.24-.108-.093-.228-.165-.28-.326-.037-.125-.116-.093-.174-.009-.05.072-.112.124-.198.124-.087-.005-.224-.092-.247.068-.02.12.123.151.2.214.048.036.101.076.145.118.118.129.132.267.025.415-.046.066-.117.116-.17.186-.054.076-.063.174 0 .244.254.257.3.624.405.955.084.264.187.47.475.527.278.054.51.245.726.449.213.204.35.426.25.758a.398.398 0 0 0 .112.42c.305.3.317.702.294 1.108a.49.49 0 0 1-.095.238c-.063.074-.2.104-.17.237.021.107.082.203.14.293.07.115.164.246.007.333-.181.1-.176.213-.078.364.048.067.119.127.164.194.056.082.061.178-.01.24-.085.08-.202.086-.27-.008-.083-.117-.135-.265-.194-.404-.107-.232-.246-.398-.492-.442-.478-.087-.846-.375-1.147-.783-.038-.049-.077-.113-.128-.139-.123-.06-.265-.091-.388-.155-.116-.062-.187-.221-.33-.244-.034.131.03.195.077.258.42.537.805 1.115 1.315 1.55.347.294.44.67.43 1.118-.004.143-.154.252-.26.16-.212-.197-.48-.177-.716-.282-.217-.099-.413-.242-.654-.304a1.005 1.005 0 0 1-.644-.46c-.208-.37-.5-.48-.864-.453-.04.004-.08 0-.122 0-.111-.198-.294-.288-.47-.396zM60.745 47.077c-.063 0-.11.03-.12.103-.001.011.063.044.092.044.028-.005.058-.042.088-.066-.017-.023-.04-.056-.06-.081zm-23.895-.842c-.179-.064-.344-.116-.507-.18-.123-.05-.18-.166-.204-.31a.957.957 0 0 1 .087-.647 3.26 3.26 0 0 1 .276-.433c.097-.132.142-.254.064-.423-.146-.321-.052-.617.135-.87.179-.24.371-.477.588-.668a8.822 8.822 0 0 1 1.732-1.19c.33-.17.532-.081.641.31.105.372.115.748-.018 1.117-.04.112-.148.251.04.318.182.06.25 0 .3-.266.018-.085.018-.178.05-.256.169-.397.366-.472.666-.292.247.154.49.301.732.46.25.161.36.399.312.73-.01.106-.046.216.077.336.13-.141.252-.303.457-.368.225-.074.302-.27.248-.516-.03-.132-.093-.25-.124-.376-.035-.13.101-.267.218-.235.024.002.048.002.057.015.465.385.973.726 1.008 1.48.01.244.069.481.11.721.053.309.187.593.164.914-.007.095.06.184.146.18a.308.308 0 0 0 .212-.092.509.509 0 0 0 .112-.491c-.206-.8-.206-1.638-.375-2.443-.036-.195-.05-.397-.072-.597a1.18 1.18 0 0 1 .07-.522c.042-.135.178-.202.295-.145.072.033.138.087.203.129.07.042.161.138.208.115.366-.164.496.148.668.386.035.053.104.081.155.037.05-.055.023-.122 0-.183-.13-.282-.337-.492-.55-.703-.147-.141-.157-.28-.08-.478.113-.291.293-.486.587-.497.197-.01.4-.027.595.006.298.05.491.306.527.64.023.202.023.409-.044.597-.132.369-.179.782-.41 1.11-.105.15-.116.327-.086.51.093.568.18 1.14.218 1.72.022.295.134.558.276.804.204.358.281.75.187 1.159-.083.358.007.642.195.931.14.22.297.416.468.605.07.082.157.147.264.128.208-.033.334.064.459.24.264.368.592.665.947.908.201.138.28.305.244.554-.018.11-.005.226-.011.335-.017.197-.092.283-.265.294-.217.002-.432.04-.621-.15-.1-.103-.23 0-.242.158-.006.12-.006.25.077.316.26.205.281.58.497.824.079.086.05.217-.023.3-.256.305-.582.469-.926.591a.883.883 0 0 1-.758-.082.808.808 0 0 0-.459-.11c-.194.013-.363-.045-.457-.244a.573.573 0 0 0-.429-.336c-.24-.044-.396-.18-.45-.457-.015-.044-.088-.103-.133-.101-.052.002-.11.063-.134.116-.045.098-.065.21-.106.312-.126.299-.325.521-.62.577-.307.059-.561.182-.791.427-.236.257-.56.33-.883.348-.3.016-.588.057-.875.174-.4.155-.834.048-1.252.091-.081.012-.147-.061-.19-.138a2.56 2.56 0 0 1-.322-.787c-.024-.133-.04-.265-.074-.393-.09-.295-.27-.438-.542-.433-.079 0-.156.026-.233.033-.539.069-.988-.113-1.32-.601-.179-.267-.353-.542-.46-.86-.077-.222-.022-.39.158-.516.12-.076.247-.138.377-.197.487-.213 1.003-.301 1.511-.406.131-.027.28.008.416.03.237.035.475.082.71.122a.31.31 0 0 0 .28-.08c.095-.09.107-.285.007-.348-.53-.336-1.068-.633-1.697-.313a.951.951 0 0 1-.815.033c-.171-.066-.357-.02-.532-.04-.43-.051-.82-.2-1.03-.682-.153-.354-.094-.588.227-.768a1.6 1.6 0 0 1 .336-.134c.176-.05.348-.117.492-.24.106-.097.367-.103.29-.317-.054-.14-.255.008-.386.04-.256.051-.508.113-.76.164-.081.021-.166.021-.222-.051-.078-.107-.053-.205.007-.304l.105-.176zm21.756-23.603a1.53 1.53 0 0 0-.016.86c.028.13.052.265.06.397.019.287-.059.33-.353.222-.017-.001-.034.016-.087.034.07.31.196.625.094.96-.016.064-.024.133-.041.197-.023.09-.082.165-.168.157a.235.235 0 0 1-.15-.091c-.086-.173-.159-.358-.244-.536-.027-.053-.074-.104-.136-.062-.022.017-.03.082-.017.118.051.169.112.333.166.499a.18.18 0 0 1-.022.119c-.02.02-.081.024-.105.003-.06-.045-.113-.122-.175-.174-.058-.055-.143-.146-.194-.125-.148.05-.034.177-.034.273 0 .161-.078.258-.21.275-.115.016-.24.001-.356-.023-.559-.123-.973-.475-1.291-.997-.168-.282-.137-.427.134-.578.071-.036.141-.067.21-.107.007-.174-.116-.164-.197-.2-.07-.038-.155-.046-.23-.07-.222-.066-.317-.251-.376-.474-.023-.097-.01-.19.064-.243.1-.075.165-.148.02-.223-.2-.104-.294-.294-.371-.503-.053-.161-.037-.308.077-.435.317-.353.644-.673 1.127-.656.063.002.12-.014.179-.025.014-.006.026-.03.038-.038-.247-.202-.247-.202-.295-.562-.022-.166-.116-.25-.246-.184a7.632 7.632 0 0 0-.429.223c-.116.071-.187.265-.354.187-.128-.055-.097-.231-.16-.341-.038-.062-.1-.078-.154-.028-.094.081-.18.18-.281.253-.037.02-.129.017-.16-.017a5.883 5.883 0 0 1-.47-.512.364.364 0 0 1 .135-.547c.13-.052.264-.097.394-.149a.137.137 0 0 0 .064-.098c0-.033-.047-.094-.064-.09-.581.036-.79-.44-.974-.914-.105-.28-.018-.597-.121-.896-.04-.115.085-.242.22-.263.16-.024.316-.017.477-.033.242-.024.405-.175.486-.429a.14.14 0 0 0-.017-.118c-.018-.032-.07-.047-.1-.043a.344.344 0 0 0-.163.085c-.312.275-.592.169-.858-.09a3.508 3.508 0 0 1-.388-.409c-.194-.254-.194-.345.05-.604.131-.134.172-.294.184-.47.015-.228.048-.437.235-.587.107-.087-.015-.137-.057-.203-.114-.165-.072-.296.1-.32.235-.032.438.015.555.273.09.2.219.31.416.338.149.022.269-.112.243-.286-.03-.21-.1-.35-.324-.412-.98-.263-.856-.824-.504-1.516.073-.139.2-.256.348-.195.199.076.339.108.38-.188 0-.033.1-.063.154-.063.14 0 .28.03.414-.033.084-.036.125-.106.133-.202.009-.095-.04-.184-.114-.214-.13-.047-.27-.057-.407-.1a.403.403 0 0 1-.304-.366c-.015-.213.046-.4.224-.508.202-.128.41-.152.622-.008.563.376 1.016.817 1.167 1.6.14.692.355 1.372.623 2.022.16.373.368.603.759.646.398.048.498.217.496.668-.004.185-.035.359-.037.538a.895.895 0 0 0 .362.792c.035.033.12.019.159 0 .06-.038.06-.12.03-.18a2.408 2.408 0 0 0-.163-.278.859.859 0 0 1-.114-.513c.02-.279.137-.456.336-.475.246-.03.446.106.476.379.07.61.235 1.179.392 1.754.106.389.03.75-.04 1.12-.03.128.013.22.139.234.1.008.204.02.271.116.141.197.281.368.53.387.063.007.132.099.172.171.125.225.26.45.361.694.176.441.119.7-.196 1.01-.091.093-.18.184-.285.24-.559.304-.853.846-1.1 1.436-.034.083-.063.165-.098.245-.052.116-.089.27-.247.231-.13-.029-.185-.167-.21-.298-.036-.147-.05-.302-.07-.454zm-6.426 7.197a.614.614 0 0 1-.007.002.529.529 0 0 1-.004-.006.193.193 0 0 1 .01-.003l.001.007zm.364-.214c.24-.211.511-.235.792-.122.165.067.33.157.487.244.092.044.179.15.264.142.488-.031.575.38.699.759.052.162-.028.397.136.49.202.116.429.034.64-.017a.353.353 0 0 0 .11-.057c.136-.083.27-.221.442-.163.23.073.427.226.61.402a.37.37 0 0 1 .118.294c-.037.317.147.444.35.543.113.052.231.086.343.135.264.11.31.408.087.613a.406.406 0 0 1-.328.12c-.201-.005-.398.008-.599.008-.013 0-.03.022-.059.048.153.19.245.41.505.508.206.075.359.324.523.512.043.055.042.167.051.25.014.135.014.265.03.397.008.09.107.115.171.052.223-.233.232-.244.398-.042.096.107.154.18.3.08.244-.163.488-.154.707.094.066.081.156.136.241.193.195.132.242.132.385-.088a.872.872 0 0 1 .322-.282c.383-.233.77-.471 1.152-.71.123-.073.248-.176.388-.132.264.076.5-.016.752-.09.411-.117.827-.063 1.144.327.05.067.122.15.184.151.328.022.468.325.656.537.277.314.297.744.07 1.102-.113.176-.251.33-.374.503.116.183.223.021.322.011.159-.01.268.058.337.214.045.114.054.252-.043.304a1.075 1.075 0 0 0-.534.753c-.025.107-.141.162-.242.17-.3.026-.58.116-.85.278-.254.145-.512.014-.754-.09-.157-.067-.21-.246-.24-.432-.008-.061 0-.134-.07-.162-.335.515-.482.603-1.09.634-.277.016-.548.057-.822.097-.53.082-1.07.075-1.604.066-.354-.008-.411-.099-.49-.522-.01-.047-.013-.089-.022-.132-.006-.021-.021-.038-.036-.064-.128-.022-.26-.045-.404-.067-.007.075-.007.14-.025.204-.093.31-.223.405-.481.356-.204-.034-.358-.182-.53-.294-.155-.1-.305-.21-.498-.076-.093.063-.193.002-.268-.085-.2-.225-.379-.47-.357-.816.021-.253-.058-.457-.158-.69-.142-.327-.095-.708.051-1.03.205-.45.143-.87-.06-1.276a2.717 2.717 0 0 1-.234-.678c-.038-.19-.117-.376-.194-.559-.082-.202-.164-.25-.33-.143a.834.834 0 0 1-.567.143c-.245-.023-.437-.088-.611-.327-.207-.265-.436-.498-.597-.814-.114-.222-.32-.392-.49-.578-.093-.099-.183-.206-.114-.344.12-.238-.023-.424-.056-.638a.909.909 0 0 0 .364-.214zM31.153 45.28c.048-.604.123-1.102.365-1.556a.906.906 0 0 0 .107-.507c-.027-.276-.061-.539.18-.726.03-.023.046-.083.045-.121-.074-.684.278-1.234.453-1.845.02-.061.046-.124.066-.188.076-.214.09-.426-.018-.642-.18-.357-.176-.776-.284-1.157-.045-.145.018-.263.142-.322.264-.12.536-.192.817-.2.34-.016.676-.05 1-.18.343-.138.622-.043.844.28.146.21.347.365.534.528.281.244.575.275.899.13.054-.023.105-.057.164-.08.312-.114.597-.042.841.18.155.139.3.302.416.482.212.327.47.61.71.903.094.119.2.223.281.343.161.221.156.389 0 .604-.11.157-.245.296-.41.377-.352.167-.64.442-.934.715-.323.298-.663.57-1.004.845-.181.15-.334.316-.363.58a.991.991 0 0 1-.445.749c-.336.233-.466.602-.492 1.025-.008.127-.004.266-.015.399-.052.536-.282.764-.792.74-.113 0-.194.012-.265.102-.183.246-.423.41-.65.593-.155.126-.302.087-.4-.107a2.64 2.64 0 0 1-.154-.361 18.763 18.763 0 0 1-.182-.49c-.121-.35-.316-.615-.646-.745-.274-.105-.452-.446-.81-.348zm8.702-9.864a2.143 2.143 0 0 0-.417.722c-.117.327-.235.351-.552.17-.109-.067-.179-.05-.252.05-.116.16-.276.131-.358-.003-.153-.266-.37-.31-.611-.332a.97.97 0 0 1-.288-.1c-.228-.12-.317-.342-.217-.606.117-.307.23-.593.22-.949-.01-.32.227-.505.579-.538-.134-.15-.271-.254-.23-.449.02-.063.03-.131.036-.2.094-.58.107-.586.64-.68.037-.002.077-.023.127-.041-.098-.158-.238-.297-.157-.522.077-.208.206-.323.394-.37.076-.022.153-.054.23-.075.41-.104.59.027.684.485.008.046.004.088.011.136.023.16.117.223.254.223.019 0 .04 0 .059-.007.478-.161.76.104.959.545.11.248.402.393.345.74-.005.013.017.046.03.048.277.102.317.374.374.633.055.23.184.326.398.32.317-.006.636.024.953.027.124.005.242-.033.301-.17.067-.162.018-.312-.068-.438-.007-.021-.026-.038-.04-.055-.124-.167-.403-.162-.435-.415-.026-.215.212-.3.273-.494.044-.144.03-.268-.06-.374-.095-.113-.204-.204-.311-.305-.087-.09-.187-.17-.258-.276-.123-.178-.11-.422.059-.529.287-.187.406-.467.493-.796a.64.64 0 0 1 .28-.415c.178-.107.386-.031.44.177a.998.998 0 0 1 .034.322c-.037.374.014.712.225 1.01.155.213.155.452.068.696-.051.147-.03.27.11.327.185.075.274.238.38.402a.674.674 0 0 0 .38.332c.033-.11.05-.225.092-.322.098-.238.282-.306.492-.205a.913.913 0 0 1 .419.465c.141.332.204.694.087 1.042-.142.398-.205.811-.312 1.22-.158.607-.64.913-1.197.743-.146-.042-.264-.066-.404.003-.16.087-.308.064-.435-.078-.086-.099-.184-.099-.271-.02a2.215 2.215 0 0 1-.784.468c-.158.054-.26.193-.365.332-.343.461-.808.731-1.298.914-.512.196-.983-.001-1.36-.436-.227-.257-.2-.553.073-.727.293-.186.58-.371.862-.58.195-.151.453-.168.696-.144.125.014.24-.016.314-.14.03-.05.053-.12.046-.183-.01-.071-.08-.096-.14-.081-.368.052-.75.02-1.095.24-.086.054-.185.079-.281.107-.214.07-.315-.016-.291-.254.017-.195.047-.391.07-.59zm10.53 4.74c.164-.42.452-.668.843-.776.194-.05.323.055.29.27-.027.188-.047.261.168.287.335.044.504.365.43.724-.036.174-.116.33-.1.522.017.195-.067.331-.2.452a1.31 1.31 0 0 0-.388.585c.077.193.3.12.386.28.08.15.16.305.24.46.063.118.112.244.23.299.362.147.388.505.342.827-.062.426-.087.84-.047 1.264a.412.412 0 0 1-.082.306c-.216.275-.354.678-.791.595-.084-.016-.148.054-.166.156-.012.086 0 .185-.035.26-.086.174-.193.387-.388.363-.211-.021-.453-.109-.502-.393-.103-.633-.572-1.002-.848-1.514-.112-.204-.376-.31-.606-.406-.32-.14-.85-.887-.92-1.254-.037-.202-.032-.4.016-.597.064-.252.3-.343.465-.164.148.15.266.329.393.502.075.107.143.222.282.196a.415.415 0 0 0 .342-.33c.06-.244.017-.481-.043-.719-.054-.235-.15-.404-.339-.52a.99.99 0 0 1-.26-.272c-.124-.164-.181-.35-.031-.538.049-.074.12-.136.091-.23-.09-.309.033-.49.275-.556.189-.056.258-.33.454-.29.168.029.328.135.494.21.05.088.115.166.209.19.03.008.064-.015.1-.032-.01-.032-.016-.085-.036-.094-.088-.032-.181-.047-.268-.063zm-.459-7.012c0-.236-.106-.392-.2-.56-.053-.091-.13-.18-.094-.298.046-.169-.016-.252-.135-.327-.175-.127-.307-.283-.236-.552.036-.125-.043-.134-.134-.13a.615.615 0 0 1-.234-.016c-.06-.012-.09-.094-.06-.156.106-.197.253-.347.449-.413.069-.031.179-.023.227.02.28.267.688.25.956.537.07.077.187.065.26-.042.057-.09.112-.194.176-.272.06-.073.16-.084.216-.018.272.29.569.546.541 1.059-.023.416.048.836.063 1.262.015.347-.078.697.082 1.036.06.127.015.308.011.465-.004.039-.05.107-.057.104-.235-.096-.265.094-.316.263a.707.707 0 0 0 .035.518c.046.126.122.265.03.38-.124.134-.194.351-.395.395a1.066 1.066 0 0 1-.174.033c-.298.014-.595.024-.894.078-.317.06-.496-.128-.488-.494.003-.247.013-.48-.076-.718-.047-.128.005-.257.112-.354a2.86 2.86 0 0 0 .264-.27c.078-.092.211-.187.118-.327-.083-.129-.224-.075-.334-.036-.349.109-.689.234-1.034.344a2.48 2.48 0 0 1-.41.084c-.142.016-.256-.157-.23-.32.017-.168.159-.244.223-.382-.112-.138-.219-.01-.32.014-.232.043-.246.052-.339-.221-.035-.115-.064-.204-.171-.254-.104-.044-.165-.123-.131-.256.03-.125-.008-.197-.12-.254-.492-.24-.504-.31-.124-.81-.231-.199-.317-.492-.364-.803-.033-.204.03-.353.179-.453.144-.092.302-.068.432.093.158.2.329.4.445.632.184.358.442.659.513 1.11.046.313.261.59.51.802.03.024.082.054.104.034.077-.04.043-.12.014-.168-.226-.294-.34-.644-.423-1.02a1.023 1.023 0 0 1 .085-.65c.091-.19.302-.233.46-.1.136.113.195.278.266.436.193.46.293.591.722.975zm-2.282-11.486c.163-.096.128-.286.222-.397.01-.012.021-.037.035-.055.11-.159.275-.194.42-.07.177.146.345.304.51.462.162.159.039.467.232.591.152.101.359-.022.517.122.11.098.202.208.269.353.086.172.17.346.274.507.1.16.149.332.09.506-.17.553.006 1.011.252 1.46.066.116.13.229.177.348.13.343.037.674-.121.961-.166.308-.666.318-.9.064-.118-.132-.176-.294-.224-.466-.046-.171-.082-.348-.14-.514-.05-.153-.17-.304-.312-.254-.253.093-.308-.023-.34-.266-.013-.09-.121-.106-.202-.082-.156.04-.309.096-.41.251-.047.074-.089.15-.142.22-.058.068-.133.107-.209.043-.077-.06-.06-.157-.03-.245.024-.06.053-.117.083-.18.038-.089.144-.195.033-.284-.092-.074-.199.005-.27.077-.25.23-.504.24-.774.052-.238-.167-.346-.418-.353-.729 0-.254.17-.425.393-.383.113.024.225.09.343.116.052.013.126.013.163-.02.082-.077.034-.169-.025-.224-.215-.197.1-.373.014-.54-.071-.143-.293-.143-.3-.376-.008-.133.156-.339-.068-.392-.125-.032-.171.16-.242.259a.383.383 0 0 1-.084.094c-.028.02-.074.04-.11.03a.13.13 0 0 1-.064-.097c.001-.08.028-.17.035-.26.022-.257.016-.291-.242-.348-.224-.047-.294-.193-.31-.41a2.07 2.07 0 0 1-.012-.333c.005-.447.043-.489.463-.612.117-.034.23-.08.347-.116.373-.138.659-.057.892.279a.697.697 0 0 1 .094.306c.018.176.018.355.026.552zM34.74 32.818c-.053.171-.076.26-.113.335-.043.108-.123.212-.228.145-.234-.145-.44-.154-.65.059-.084.08-.194.016-.236-.107a1.113 1.113 0 0 1-.047-.2c-.019-.182-.24-.27-.182-.47.052-.193.135-.367.213-.549.069-.176.194-.3.361-.32.278-.028.433-.191.512-.476.053-.197.14-.352.317-.466.23-.146.375-.4.47-.677.167-.485.476-.87.732-1.3.267-.437.682-.383 1.083-.328.094.009.181.075.281.105.13.028.24-.073.2-.225a.424.424 0 0 1 .119-.47c.14-.14.299-.16.434-.024.178.181.348.368.504.574.14.187.109.341-.077.512-.013.01-.03.027-.046.035-.348.312-.352.318-.17.75.07.158.093.281-.013.433-.095.117-.018.254.025.376.104.306-.02.615-.277.714-.298.113-.392.34-.405.659-.003.183-.06.354-.252.404-.147.033-.291-.104-.384-.348-.117-.306-.075-.616-.064-.93.007-.105.061-.22-.006-.32-.01-.024-.074-.029-.099-.017-.082.038-.112.127-.122.214-.03.239-.02.494-.248.646-.029.02-.045.131-.027.178.15.368-.043.65-.16.953-.046.123-.146.1-.253.056-.158-.061-.227-.01-.235.151-.007.116.016.225.007.337a.585.585 0 0 1-.253.431c-.186.123-.334.075-.427-.155-.086-.2-.167-.404-.284-.684zm24.604 30.485c0-.293.07-.477.228-.592.277-.195.357-.447.3-.8-.03-.168-.005-.352.026-.529.085-.483.172-.963.18-1.454.005-.224.065-.441.186-.628.143-.213.347-.213.495.008.085.129.138.27.15.429.022.207.121.261.29.205a.223.223 0 0 1 .27.1c.175.285.47.41.671.655.18.211.385.39.63.498.284.129.444.366.518.686.028.112.047.218.083.325.053.157.146.284.31.246.418-.079.476.318.63.585.024.037-.003.132-.036.182a.967.967 0 0 1-.463.402c-.1.04-.197.006-.29-.04-.18-.094-.366-.181-.545-.278-.07-.037-.164-.087-.184-.154-.09-.313-.425-.321-.557-.583-.053-.093-.169-.01-.185.074-.094.626-.607.92-.896 1.382-.062.096-.199.151-.31.193-.14.059-.287-.02-.342-.172-.045-.128-.055-.262-.093-.39-.06-.22-.146-.296-.344-.286-.176.014-.354.055-.533.073-.095.013-.189-.104-.189-.137zM53.82 24.607c-.113.36-.066.759 0 1.155.04.269-.09.46-.324.565-.203.086-.41.193-.622.235-.184.037-.328.089-.455.26-.12.163-.35.1-.367-.092-.03-.307-.17-.538-.306-.784-.108-.195-.06-.305.155-.39.074-.034.158-.047.221-.09.058-.036.053-.12.012-.175-.1-.122-.247-.135-.378-.177a.364.364 0 0 1-.236-.275c-.125-.487-.35-.948-.249-1.489.035-.187-.046-.398-.036-.596.02-.414.278-.588.623-.436.092.04.179.094.26.165.189.156.374.323.561.493.061.055.114.123.172.187.134.148.016.415.18.545.148.117.356.084.495.223.17.179.271.383.294.676zm13.393 89.796c-.258 0-.515.008-.773-.003-.114 0-.16-.111-.12-.249.015-.04.042-.073.062-.112.074-.118.058-.23-.072-.25-.33-.072-.606-.21-.76-.57-.073-.182-.234-.243-.4-.248a1.579 1.579 0 0 1-.85-.29c-.158-.109-.339-.116-.517-.13-.181-.02-.357-.04-.533-.078-.1-.02-.164-.1-.212-.212-.1-.237-.157-.281-.334-.228-.111.036-.22.093-.328.15-.324.168-.64.356-.97.52-.063.033-.154.026-.23.017-.057-.01-.118-.086-.081-.146.173-.293.312-.6.637-.76.908-.45 1.82-.435 2.75-.14a.575.575 0 0 1 .212.117c.253.255.521.372.876.278.255-.074.469.127.622.331.305.418.703.637 1.145.797.114.047.234.086.323.17a.89.89 0 0 0 .476.253c.205.043.364.189.51.336.071.078.048.18-.036.226a1.551 1.551 0 0 1-.799.245h-.598v-.024zm-.282-71.365a22.909 22.909 0 0 1-.521-.137c-.281-.075-.552-.072-.805.116-.07.046-.142.087-.214.12-.463.21-.846.006-.976-.523-.021-.082-.027-.17-.038-.263a.597.597 0 0 0-.233-.446c-.15-.113-.295-.252-.31-.472a1.63 1.63 0 0 1 .174-.83c.028-.064.121-.11.193-.13a.5.5 0 0 1 .236.027c.364.138.721.208 1.114.128.38-.072.73.149.952.458.295.39.498.856.74 1.293.038.078.053.173.071.255.059.267-.069.43-.383.404zm-13.97-8.29c.578-.562.706-.55 1.18.063.13.171.243.359.359.535.045.07.095.15.114.233.126.613.116 1.23.046 1.85a.311.311 0 0 1-.094.16c-.168.15-.638.211-.792.048-.335-.342-.764-.568-1.027-1-.046-.07-.1-.14-.137-.22-.124-.279-.164-.55.06-.793.192-.21.135-.446.046-.675-.038-.089-.112-.134-.187-.056-.047.04-.083.098-.124.14-.062.073-.141.106-.207.032a.436.436 0 0 1-.094-.234c-.01-.115.054-.209.13-.286.07-.073.152-.142.235-.206.171-.13.265-.104.382.114.04.076.062.162.11.294zm-12.756-7.721c-.061-.393.096-.59.351-.801.536-.452 1.157-.558 1.79-.654a.405.405 0 0 1 .34.088c.182.147.187.499 0 .634-.117.079-.251.122-.381.183-.076.028-.161.051-.183.149-.034.145.066.198.153.238.217.097.307.283.292.53-.014.277-.075.555-.322.67-.345.164-.71.28-1.068.409-.052.023-.133.023-.176-.01-.222-.186-.445-.368-.655-.571-.125-.125-.133-.317-.14-.499l-.001-.366zm29.65 88.405c-.04-.135-.139-.074-.205-.097-.086-.033-.137-.09-.082-.189.023-.039.06-.063.09-.097.097-.122.077-.23-.037-.332-.063-.057-.13-.107-.178-.173-.046-.058-.016-.133.032-.174.13-.122.276-.211.433-.105.227.146.447.135.687.073.47-.128.906-.017 1.316.264.268.192.546.358.819.54.084.056.156.137.222.218.086.12-.02.393-.144.359-.48-.134-.926.048-1.391.116a.694.694 0 0 0-.458.237c-.188.202-.228.216-.398.03-.178-.187-.359-.253-.594-.213-.336.049-.668-.106-1.005-.028-.033.007-.074-.02-.11-.038-.077-.04-.135-.102-.123-.199.011-.077.069-.11.13-.116.157-.01.317-.01.475-.011.177-.012.35.035.521-.065zM42.358 24.928c-.207.032-.33-.118-.477-.237-.094-.084-.16-.043-.24.062-.19.245-.213.257-.428.079-.213-.173-.388-.193-.582.007a.343.343 0 0 1-.161.08c-.109.016-.192-.047-.23-.166a.435.435 0 0 1 .084-.431c.206-.21.412-.43.688-.508.264-.074.465-.226.653-.44.422-.472.58-.456.98.019.081.097.158.202.24.299.212.248.227.555.171.87-.023.142-.105.248-.23.277-.15.038-.31.06-.468.09zM68.12 55.107v.202c-.016.674-.388 1.068-.986 1.065-.265-.008-.452-.139-.562-.417-.207-.515-.06-1.363.311-1.734.208-.213.452-.3.723-.177.288.13.539.304.51.726-.006.111 0 .221 0 .335zM54.327 28.344c-.31-.07-.715-.166-1.12-.267-.057-.013-.11-.053-.157-.086a.675.675 0 0 1-.242-.696c.071-.235.383-.447.61-.402.395.061.782.126 1.17.2.256.047.335.177.293.463a4.462 4.462 0 0 1-.074.451c-.055.246-.165.337-.48.337zM11.404 72.906c.28 0 .36.076.45.36a.362.362 0 0 1-.1.41c-.26.231-.501.496-.789.697-.251.176-.539.136-.701-.144a1.791 1.791 0 0 1-.13-.3c-.09-.253-.019-.49.208-.602.155-.075.355-.04.395-.313.014-.075.141-.047.218-.053.158-.01.31-.039.449-.055zm39.924-54.563c0 .008 0 .138-.016.271-.042.322-.139.52-.237.48-.174-.06-.215-.245-.275-.402-.07-.194-.167-.349-.328-.454-.153-.101-.2-.272-.181-.466.01-.193.042-.387.069-.59.025-.172.026-.375.222-.418.237-.048.53.118.591.343.097.362.168.729.155 1.236zm6.22 10.041c.011.324-.142.573-.418.627-.175.032-.353.019-.485.19-.05.073-.15.057-.22 0-.094-.072-.135-.187-.064-.285.123-.18.112-.356.047-.559-.07-.23-.06-.481-.018-.726.04-.19.183-.294.352-.269.423.081.787.54.807 1.022zm-30.68 50.439c-.1.28-.09.606.034.926.082.22-.111.433-.006.644.088.169.257.28.307.485a.205.205 0 0 1-.03.117.17.17 0 0 1-.107 0c-.257-.193-.412-.48-.545-.781-.197-.428-.294-.915-.566-1.309-.045-.066-.055-.162-.07-.248-.025-.133.07-.28.194-.273.194.008.394.037.588.065.176.03.227.12.2.374zm10.329-45.724c-.013.082-.02.177-.043.258-.08.293-.17.588-.265.878-.04.122-.1.242-.17.347-.181.294-.362.33-.592.142-.258-.214-.312-.452-.13-.738.253-.4.547-.753.899-1.044.067-.052.152-.083.217-.017.041.04.056.113.084.174zm8.672-6.104c.01.008.088.04.152.089.139.128.253.29.315.481.108.337.25.645.454.917.04.054.059.12.077.182.07.252.011.486-.143.599-.13.093-.37-.005-.503-.229-.077-.129-.123-.282-.184-.42-.197-.465-.238-.983-.374-1.467-.024-.087.07-.186.206-.152zm31.68 58.055c-.414-.096-.82-.162-1.113-.562-.11-.148-.275-.24-.411-.37-.023-.018-.023-.08-.01-.121a.167.167 0 0 1 .075-.086.195.195 0 0 1 .114-.02c.55.127 1.06.358 1.52.714a.478.478 0 0 1 .103.156c.051.086-.014.237-.108.258-.056.015-.114.021-.171.03zm-12.71-9.02c-.21.023-.257-.034-.293-.294-.033-.244-.076-.477.154-.654.087-.065.07-.194.007-.293a.906.906 0 0 1-.125-.22c-.012-.027.018-.09.047-.114.024-.018.087-.033.104-.01.254.243.506.49.746.75.047.05.067.172.047.248-.077.36-.274.538-.624.58-.021 0-.037.007-.062.007zm-2.9-9.97c-.111-.02-.152-.103-.145-.195.039-.578.464-1.144.931-1.26.102-.023.202-.011.273.085.069.092.087.226.022.31-.287.367-.523.785-.923 1.02-.052.034-.117.034-.157.04zm47.762-29.39c-.765.014-.693-.29-.653-.826a.504.504 0 0 1 .583-.467c.03.004.072.048.08.082.017.083.037.179.017.258-.05.266.02.419.273.475.11.025.146.139.121.264-.025.143-.101.235-.246.228h-.058c-.038-.002-.077-.002-.117-.014zM1.743 68.969c.085.028.184.05.272.093.161.088.232.36.132.516-.135.21-.322.354-.555.307a1.255 1.255 0 0 1-.684-.389c-.072-.077-.063-.25.017-.287.256-.13.527-.198.818-.24zm45.094-33.866c.17 0 .253.053.31.145.114.188.172.397.193.618.024.239-.17.474-.386.49-.352.023-.552-.238-.469-.627a2.67 2.67 0 0 1 .132-.434c.05-.132.156-.189.22-.192zM107.64 6.446c.02-.12.033-.203.056-.286.025-.104.178-.148.243-.075.04.048.085.093.115.147.181.37.29.771.378 1.178.023.108.003.22-.089.287-.089.063-.236.015-.305-.118-.1-.189-.195-.383-.263-.587-.066-.184-.096-.381-.135-.546zm-68.09 20.72c-.036-.017-.105-.019-.141-.067a2.221 2.221 0 0 1-.394-.643c-.07-.167.077-.443.258-.526.036-.017.093-.022.111 0 .177.229.417.397.528.69.1.256-.097.56-.362.545zm24.73 39.246c.005-.262.028-.433.118-.589a.323.323 0 0 1 .424-.136c.125.063.172.188.158.33a2.398 2.398 0 0 1-.256.878c-.04.09-.137.09-.209.023-.156-.152-.243-.348-.235-.506zM48.682 26.985c-.2-.007-.307-.057-.394-.16-.107-.108-.178-.24-.136-.412.042-.147.153-.19.269-.223.334-.096.623.055.783.42.034.09-.008.187-.083.214-.165.074-.341.12-.439.16zm17.52 88.514c.41-.014.705.115.963.342.06.053.037.206-.03.23-.438.138-.867.178-1.226-.23-.036-.034-.058-.128-.046-.173a.219.219 0 0 1 .125-.127.81.81 0 0 1 .214-.042zm9.893-27.501a.334.334 0 0 1-.022-.315c.017-.035.052-.076.085-.085.03-.009.097.007.103.03.099.395.406.436.7.5.094.017.19.015.291.017.099.008.216-.013.271.088.078.143-.04.248-.107.353-.074.124-.187.141-.31.094-.242-.09-.48-.173-.725-.26-.097-.139-.197-.275-.286-.422zm-.782 27.851c-.409.124-.71.207-1.028.19a.992.992 0 0 1-.23-.05c-.1-.04-.154-.14-.137-.263.012-.089.07-.161.154-.179.273-.066.551-.081.816.05.103.06.209.122.425.252zM68.89 55.236c-.062-.014-.18-.023-.29-.064-.145-.049-.237-.235-.224-.416.008-.187.18-.334.327-.27.146.066.282.148.412.246.1.08.153.205.117.343-.041.167-.164.172-.342.16zm40.323-23.428c-.008.447-.006.758.065 1.06.012.059.02.13.02.198.003.062-.008.133-.08.133-.03-.004-.069-.051-.082-.084a1.408 1.408 0 0 1-.045-.256 3.587 3.587 0 0 0-.159-1.037 1.198 1.198 0 0 1-.045-.263c-.017-.286.101-.627.18-.56.163.144.133.358.146.552.005.13 0 .257 0 .257zm-69.568-1.032c-.138-.013-.273-.03-.388-.129-.07-.068-.106-.23-.047-.295.149-.197.453-.262.644-.138.103.074.179.179.159.328-.016.16-.128.203-.252.225-.037.01-.077.002-.116.01zM1.355 78.57c.153-.006.225.092.197.244-.03.158-.076.304-.197.397-.174.146-.351.285-.579.307-.032.002-.069-.033-.095-.062-.011-.005-.011-.052 0-.059.175-.188.304-.394.376-.663.038-.146.176-.164.298-.164zm10.634-6.25c-.025.052-.04.125-.084.164-.174.148-.374.235-.605.213-.076-.013-.136-.125-.105-.203.1-.252.317-.39.473-.582.015-.018.086-.018.109 0a.954.954 0 0 1 .212.408zm53.138-19.606c-.116-.023-.18-.179-.116-.278.165-.246.344-.483.522-.721.009-.017.032-.028.05-.028.037-.002.083-.01.114.011.03.02.067.076.06.107-.085.348-.217.662-.488.876-.041.04-.112.031-.142.033zM87.693 1.489c.235-.01.493.251.488.489 0 .056-.041.136-.084.162-.158.109-.381.08-.49-.055a.478.478 0 0 1-.037-.493c.024-.049.087-.075.123-.103zM65.175 33.614c.017.106.023.199-.03.274-.081.11-.187.17-.319.13-.105-.029-.169-.17-.14-.323.007-.045.01-.086.024-.13.075-.174.096-.388.265-.5.26.104.116.388.2.55zm5.3-4.913c-.174.014-.297-.107-.404-.248-.052-.069-.077-.16-.022-.243a.245.245 0 0 1 .152-.09c.141-.032.271.024.4.09.09.043.176.093.268.147.149-.35.236-.413.471-.3.119.056.276.08.318.28-.265.145-.53.16-.795.018-.057.214-.193.331-.389.346zm38.942-19.91c-.02.05-.027.108-.057.121-.046.024-.117.043-.16.024a.876.876 0 0 1-.366-.488c-.026-.083-.02-.173.045-.243.083-.082.181-.085.267-.019.19.145.262.362.271.604zM62.022 59.46c-.028.022-.055.064-.082.072-.086.026-.153-.022-.217-.08-.183-.181-.283-.418-.358-.667-.013-.034.004-.106.027-.119.048-.016.122-.032.16-.007.242.175.38.44.475.73.006.023-.002.05-.005.07zm3.874 50.293c.035.012.083.023.107.052.192.267.243.591.27.916.003.021-.019.051-.03.054-.035.007-.09.018-.105 0-.13-.188-.262-.379-.372-.59a.366.366 0 0 1 .036-.37c.022-.03.065-.044.094-.062zm9.76-42.75c0 .11-.022.196-.093.25-.077.058-.155.01-.224-.04-.208-.147-.234-.244-.13-.49.037-.08.075-.158.12-.231.034-.067.157-.044.206.02.107.155.115.334.122.49zm-8.879-14.946c-.088.099-.245.058-.287-.083-.1-.282-.006-.482.253-.538.09-.02.189-.01.287-.02a.919.919 0 0 1-.253.64zm42.244-27.21c-.01.096-.049.176-.131.193-.17.033-.447-.164-.454-.308-.01-.16.162-.336.31-.328.144.023.274.227.275.443zm-42.69 39.22c.007.157-.163.293-.28.215-.155-.098-.287-.223-.338-.42-.01-.05.03-.139.067-.168.234-.126.539.081.552.372zm1.672-10.939c.06.026.128.034.16.073.058.08.113.174.152.27.084.195.06.37-.043.4-.105.033-.244-.06-.325-.211a.514.514 0 0 1-.048-.38c.018-.053.064-.095.104-.152zm-18.471-.439c.021-.074.03-.167.074-.232.067-.104.141-.227.284-.2.089.01.136.168.083.338a1.919 1.919 0 0 1-.14.362c-.023.046-.1.067-.155.072-.062.003-.105-.058-.116-.125-.014-.067-.016-.133-.03-.215zm59.33-29.989c0 .101.005.142 0 .189-.015.098-.068.16-.153.176-.085.02-.157-.02-.2-.101a.338.338 0 0 1-.053-.186.776.776 0 0 1 .217-.521c.011-.012.036-.026.052-.019.03.014.083.035.09.064.022.15.034.302.048.398zm-30.834 99.944c-.03-.021-.1-.045-.117-.09-.048-.148.06-.414.18-.519.096-.069.26-.002.288.116.063.275-.064.464-.351.493zM54.13 33.885c-.012.093-.051.176-.135.19-.053.002-.125-.014-.162-.057a.469.469 0 0 1-.106-.526.206.206 0 0 1 .14-.101.183.183 0 0 1 .15.067.754.754 0 0 1 .113.428zm54.55-27.918c.022-.043.04-.099.065-.101.026-.002.08.03.086.058.101.319.194.628.286.948.018.056.003.131-.067.148-.025.008-.078-.019-.094-.049a3.222 3.222 0 0 1-.276-1.004zM66.028 50.93c-.007.031-.02.098-.05.149a.627.627 0 0 1-.333.26.24.24 0 0 1-.166-.033c-.05-.04-.04-.114-.01-.173a.87.87 0 0 1 .333-.365c.09-.057.226.023.226.162zm44.022-24.107c-.008.057-.013.147-.03.236-.02.114-.073.21-.183.23-.103.022-.176-.127-.145-.305.025-.129.065-.26.103-.383.023-.066.08-.114.14-.082.046.018.077.088.102.145.016.04.006.09.013.16zM52.238 42.018c.109.007.182.072.217.18.06.153.007.293-.074.419-.077.118-.23.1-.286-.034-.052-.115-.092-.236-.056-.368.027-.113.088-.188.2-.197zm31.668 5.303c-.012.162-.065.25-.176.277-.106.024-.235-.105-.24-.235a.418.418 0 0 1 .103-.298c.076-.08.207-.063.248.042.036.077.053.167.065.214zm-17.323 61.02c.123.13.186.28.114.46-.023.055-.071.118-.12.137-.058.024-.11-.033-.122-.104-.036-.265-.089-.514-.382-.573-.152.263-.407.196-.627.218-.018 0-.06-.056-.056-.09.002-.036.032-.082.06-.095.205-.102.413-.155.623-.04.196-.181.36-.075.51.087zm43.46-86.893c-.006.046-.013.114-.03.172-.03.13-.137.219-.206.176-.106-.063-.112-.176-.089-.284a.752.752 0 0 1 .082-.237c.026-.047.089-.106.135-.099.097.002.102.106.108.19.004.022 0 .04 0 .082zM48.769 53.106c.007.146-.093.267-.218.25-.099-.006-.194-.048-.223-.175-.029-.132.124-.306.257-.292.114.005.172.1.184.217zm24.646 15.691a.264.264 0 0 1-.236.305c-.021 0-.055 0-.06-.015-.024-.057-.062-.118-.058-.172.006-.118.063-.208.172-.24.062-.022.118.002.156.06.014.022.017.04.026.062zm-6.827-5.46a.32.32 0 0 1 .304.138.166.166 0 0 1 .008.183c-.023.026-.064.058-.095.06a.283.283 0 0 1-.31-.231c-.016-.078.024-.127.093-.15zM49.82 48.806c-.008.065-.038.122-.1.132-.11.03-.22-.07-.23-.22-.01-.095.032-.176.12-.18.11-.01.203.122.21.268zm3.598-10.913c-.008.073-.048.127-.11.137a.394.394 0 0 1-.171-.033c-.107-.054-.153-.182-.1-.264.076-.103.17-.103.265-.051.07.047.116.117.116.211zM.126 79.681c-.102-.009-.14-.07-.128-.132a.655.655 0 0 1 .101-.225c.05-.066.124-.099.204-.053.077.046.071.181-.017.278-.052.062-.118.098-.16.132zm46.422-26.292c.052-.006.148.07.178.208.015.08-.06.184-.135.17a.248.248 0 0 1-.232-.243c0-.07.043-.115.189-.135zm22.238 58.414c.087-.014.196.083.205.192.006.124-.034.223-.147.26-.028.006-.093-.024-.1-.048a1.522 1.522 0 0 1-.035-.32c0-.025.05-.056.077-.084zM51.954 37.819c.016.17-.074.296-.224.32-.03.007-.085-.027-.093-.056-.053-.158.102-.385.243-.353.03.007.048.059.074.09zM77.99 86.783a.09.09 0 0 1 .045.021c.012.009.027.042.024.054-.012.039-.024.084-.053.105-.102.088-.135.275-.303.268-.014-.002-.034-.033-.034-.05-.008-.164.126-.333.32-.398zm-12.34-33.268zm-.103.096a.158.158 0 0 1-.113.024c-.064-.017-.094-.081-.086-.147a.519.519 0 0 1 .063-.18c.02-.03.069-.05.105-.05.064.008.108.05.135.257-.005-.035-.035.044-.104.096zm42.188-21.944c.006.097-.012.188-.106.197-.093.015-.148-.056-.15-.147 0-.097.05-.166.142-.171.067-.003.102.054.114.12zm-91.5 37.346c-.055.09-.174.099-.252.014-.045-.054-.058-.114-.013-.17.064-.072.14-.06.21-.012.054.037.083.09.054.168zm46.322 43.862c-.024.09-.078.148-.165.135-.087-.018-.121-.087-.1-.184.018-.091.07-.16.155-.136.086.013.116.09.11.185zM65.4 54.117c-.023.09-.069.158-.157.129-.086-.023-.106-.11-.086-.2.011-.065.057-.116.12-.108.092.009.127.08.123.18zm44.254-31.344c-.012.04-.018.088-.041.12-.02.025-.09.05-.095.046-.027-.05-.063-.113-.063-.17a.312.312 0 0 1 .076-.157c.01-.012.076.01.1.035.018.032.018.083.023.126zm-.206.686c-.011.087-.052.185-.164.204-.066.012-.104-.05-.102-.12.007-.12.055-.211.165-.232.066-.012.101.049.101.148zm-55.43 1.845c-.094-.04-.151-.165-.105-.263.011-.03.07-.059.093-.05.107.05.142.141.107.262-.007.023-.064.032-.095.051zm14.667 39.89c-.076-.005-.166-.022-.163-.12.002-.106.1-.109.171-.1.046.01.104.041.135.085.04.05-.048.135-.143.135zm2.792 0c-.061.076-.137.07-.211.027-.07-.046-.131-.113-.102-.206.024-.099.112-.09.188-.08.039.002.076.014.11.019.031.08.072.166.015.24zm-1.905 48.1c-.036.112-.146.176-.24.127-.026-.02-.053-.08-.048-.113.025-.105.155-.17.242-.123.026.012.031.074.046.108zm1.104-.532c-.01.017-.017.048-.031.05-.141.047-.263-.016-.366-.109-.009-.005.01-.09.028-.098.14-.083.26-.022.354.098.014.01.009.04.015.059zM49.259 51.404c-.014.066-.055.124-.115.107-.087-.022-.105-.115-.1-.196 0-.081.042-.127.113-.106.081.025.11.096.102.195zm18.665 59.069c-.03.023-.066.073-.08.066-.12-.066-.15-.193-.147-.333 0-.001.076-.031.097-.01.085.066.123.161.13.277zM53.689 32.845c.063.014.113.057.113.127.004.078-.042.117-.111.11-.06-.001-.11-.044-.112-.117 0-.075.046-.12.11-.12zm24.468 84.588c-.027.102-.145.167-.225.118-.028-.019-.047-.078-.042-.108.021-.11.142-.17.223-.115.027.016.033.068.044.105zM44.264 40.86c-.058.005-.112-.014-.124-.082-.01-.106.06-.149.144-.142a.1.1 0 0 1 .101.115c-.006.067-.055.101-.121.109zM64.56 69.977c-.016.094-.067.155-.147.181-.014.005-.042-.005-.048-.019-.041-.104.014-.169.077-.22.018-.02.066-.003.1 0 .01.002.012.035.018.058zM6.38 77.01c-.017.088-.056.169-.141.162-.066-.01-.086-.076-.07-.138.023-.088.08-.147.164-.124.024.008.037.069.047.1zm65.777-45.75c.011.08-.018.126-.082.139-.06.02-.117.007-.142-.06-.021-.072.025-.122.082-.133.06-.022.112-.007.142.054zM64.86 81.317a.113.113 0 0 1 .08-.129c.056-.02.11.004.112.08.005.032-.026.082-.05.102-.055.036-.11.027-.142-.053zm-29.25 20.112c.074.015.135.024.121.109-.004.023-.05.057-.08.064a.486.486 0 0 1-.164 0c-.025-.01-.041-.065-.054-.097 0-.009.018-.04.034-.042.053-.015.107-.024.143-.034zm32.498 9.95c.08.025.126.09.126.18 0 .028-.046.077-.066.076-.087-.015-.123-.088-.123-.18 0-.025.038-.051.063-.076zM51.893 29.781c-.006-.011.007-.044.016-.06.139-.127.195.01.26.104-.096.031-.202.137-.276-.044zm57.186-4.348c-.005.073-.03.13-.094.136-.023 0-.07-.044-.07-.072-.005-.067.027-.128.093-.13.023-.001.048.048.07.066zm-1.267-.096a1.249 1.249 0 0 1-.053-.101c.033-.016.07-.05.1-.047.02.008.034.064.048.102-.032.013-.069.034-.095.046zm-41.59 37.35c-.031.031-.053.072-.078.075-.059.01-.106-.023-.085-.098.008-.024.057-.047.085-.047.03 0 .05.044.078.07zM6.807 77.223c-.01.022-.021.05-.033.055-.092.002-.138-.072-.17-.154-.017-.05.012-.094.06-.083.086.017.133.088.143.182zm60.42 32.682c.015-.057.036-.123.102-.1.023.01.038.07.036.106-.006.059-.029.13-.1.097-.021-.01-.026-.064-.037-.103zm8.6 5.698c-.034.098-.093.138-.183.118-.046-.002-.071-.05-.042-.09a.465.465 0 0 1 .148-.09c.047-.023.078.01.078.062zm2.543 3.067c.052.037.093.082.075.152-.003.024-.057.069-.075.062-.061-.017-.092-.078-.078-.144.007-.03.05-.049.078-.07z"/></g></g></svg>