<svg xmlns="http://www.w3.org/2000/svg" width="71" height="135" viewBox="0 0 71 135"><g><g><path fill="#ef5b5b" d="M48.17 20.719c.07.167.233.202.36.291.438.293.892.352 1.377.391.248.018.389.255.426.531.042.332.01.65-.172.928l-.426.672c.254.035.38-.083.477-.262.098-.174.186-.358.294-.528.434-.664.997-.915 1.67-.575.685.343 1.395.582 2.097.858.266.105.567.179.728.492.077.155.2.13.33.097.166-.047.347-.066.469.087.406.503.79 1.024.725 1.775.206.063.37-.065.503-.188.335-.303.674-.265 1.05-.127.591.223 1.181.442 1.782.632.853.261 1.736.164 2.609.146a2.687 2.687 0 0 1 1.699.53c.686.496 1.342 1.02 1.9 1.674.416.495.99.757 1.445 1.199.201.199.539.232.831.232.254 0 .504.035.75.023.751-.033 1.139.463 1.366 1.174.533 1.641.506 3.3.072 4.964-.141.553-.492.964-.79 1.4-.338.497-.741.934-1.059 1.453-.104.17-.255.31-.406.418-.84.619-1.497 1.387-1.813 2.47-.122.419-.354.785-.606 1.125-.184.248-.383.524-.703.527-.384.005-.478.267-.535.612a11.78 11.78 0 0 0-.102 3.313c.08.714-.006 1.378-.107 2.062-.055.363-.142.727-.152 1.087-.025.646-.12 1.226-.52 1.732-.244.3-.279.718-.267 1.117.018.756-.041 1.474-.582 2.04-.109.12-.145.328-.206.502-.163.452-.37.878-.677 1.237-.32.377-.543.793-.569 1.345-.023.573-.276.997-.797 1.2-.319.13-.585.345-.684.745-.076.298-.278.434-.555.471-.248.024-.491.147-.741.093-.788-.151-1.564.039-2.337.125-.065.004-.172 0-.178.022-.158.617-.801.48-1.104.896-.182.245-.474.324-.769.4-.478.122-.98.303-1.35.657-.806.763-1.678 1.44-2.384 2.33-.47.587-.713 1.233-.579 2.028.063.38.025.785.225 1.138.035.064.054.204.016.26-.258.418-.165.892-.204 1.345-.055.705-.285 1.295-.89 1.635-.268.152-.427.431-.594.702-.46.71-.898 1.434-1.07 2.317-.105.531-.502.898-.737 1.36-.119.237-.286.459-.397.703-.138.297-.343.51-.593.687-.28.202-.552.416-.816.635-.38.312-.627.705-.761 1.227a3.236 3.236 0 0 1-.949 1.588 3.384 3.384 0 0 0-.803 1.123c-.325.723-.763 1.321-1.435 1.671-.31.165-.62.26-.963.137a1.676 1.676 0 0 0-.866-.083c-.695.094-1.321-.134-1.916-.471a2.13 2.13 0 0 0-.826-.291c-.404-.057-.784-.107-1.013-.55-.039-.078-.13-.127-.218-.09-.114.059-.124.175-.114.293.03.319.23.482.452.62.406.248.76.565 1.092.914.29.306.376.63.242 1.062-.237.758-.133 1.013.549 1.325.258.119.344.295.367.567.034.47-.014.923-.275 1.318-.186.282-.35.577-.552.841-.213.29-.402.591-.473.962-.082.45-.34.75-.71.895-.958.37-1.893.828-2.917.935-.48.048-.94.21-1.407.307-.74.162-1.442.024-2.19-.168-.03.297.064.541.188.779.203.401.2.823-.023 1.186-.27.417-.255.863-.202 1.324.1.892 0 1.031-.728 1.427-.773.421-1.506.399-2.257-.05-.288-.18-.612-.281-.91-.447-.225-.117-.311-.022-.348.202-.027.23.008.457.06.685.088.36.164.724.142 1.094-.03.496.117.858.54 1.053.137.063.198.25.358.267.158-.065-.016-.325.178-.38.22-.06.43-.187.649-.223.158-.031.251.146.309.293.14.353.152.726.09 1.09-.057.35-.329.46-.6.526-.242.061-.437-.046-.59-.277-.355-.528-.362-.524-.817-.042.184.262.483.225.718.344.237.106.258.29.057.452-.118.096-.253.16-.378.24-.578.394-.892.918-.786 1.717.078.605.065 1.211-.425 1.647-.148.133-.124.32-.117.514.01.484-.037.56-.42.571-1.283.04-2.044.833-2.522 2.067-.138.344-.12.675.038 1.002.278.58.701 1.029 1.159 1.422.243.205.562.285.885.3.51.011.717.238.687.8-.021.5-.236.963-.247 1.477-.004.18-.166.369-.325.491-.747.55-1.39 1.236-2.033 1.92-.282.308-.43.628-.402 1.103.036.48-.119.957-.294 1.406-.122.305-.34.51-.64.618-.74.271-1.24.788-1.42 1.672-.056.28-.071.53.031.8.156.387.215.789.232 1.211.03.6.344 1.074.65 1.543.13.198.401.375.243.646-.146.24-.425.125-.644.09-.18-.039-.35-.148-.527-.21a.302.302 0 0 0-.339.115c-.104.15.015.256.08.367.133.225.328.297.543.202.272-.125.425.009.584.228.248.342.461.71.629 1.11.065.171.128.361-.173.368-.166.006-.137.156-.048.236.27.251.36.61.52.932.243.496.673.828 1.058 1.155.536.458 1.105.884 1.618 1.39.319.32.686.5 1.134.473.219-.018.483-.037.521.333.03.306-.188.694-.49.689-.533-.016-1.018.17-1.525.236-.243.033-.377.171-.558.242-.294.106-.115.15-.051.282.13.258.053.479-.152.43-.656-.141-1.349-.181-1.906-.733.038.453.22.824.435 1.19.152-.023.14-.302.299-.277.135.03.266.113.39.202.267.19.4.504.545.801a.314.314 0 0 1-.09.376c-.113.082-.246.244-.384.082-.134-.162-.306-.092-.458-.153-.127-.042-.323-.016-.325-.238 0-.22.264-.084.329-.325-.372.127-.662.049-.845-.329-.024-.056-.09-.097-.14-.137-.201-.126-.455.068-.65-.15-.155-.169-.215-.457-.462-.504-.116.103-.053.18-.02.26.07.139.215.29.078.427-.159.177-.367.117-.512-.033-.273-.272-.506-.597-.87-.76-.152-.073-.126-.276-.048-.432.091-.18.124-.42-.046-.488-.434-.173-.872-.461-1.364-.248-.07.033-.108.14-.16.211-.019.017-.035.037-.055.052-.123-.025-.244-.075-.364-.07-.314 0-.39-.199-.367-.495l.023-.026c.182-.017.367-.037.62-.063-.312-.261-.62-.466-.312-.93.112-.167-.153-.508-.333-.41-.382.223-.62-.104-1.031-.26.159.324.367.617-.03.745-.283.089-.53-.085-.592-.493-.072-.498-.48-.34-.72-.498-.088-.063-.249.026-.367.01-.227-.033-.366-.163-.19-.423.095-.141.194-.296.06-.421-.213-.209-.147-.676-.525-.696-.172-.013-.285-.06-.301-.26-.013-.218.129-.258.276-.298.107-.027.201-.1.165-.244-.034-.139-.145-.127-.253-.139-.218-.018-.373.254-.587.189-.258-.085-.014-.438-.235-.59-.312-.211-.499-.524-.443-1.078.556.515 1.171.733 1.708 1.11.301.208.566.255.852-.05-.286.008-.473-.097-.622-.377-.15-.284-.296-.593-.657-.683-.252-.07-.282-.37-.24-.638.02-.11.082-.266-.087-.244-.32.05-.384-.275-.534-.456-.205.185-.117.475-.267.644-.629-.41-.88-1.11-.66-1.792.076-.232.19-.37.443-.41.28-.032.62.144.822-.265.053-.105.188.003.248.103.117.224.261.439.266.699.006.304.215.49.296.75.023.09.099.053.152.013.048-.033.145-.083.094-.142-.26-.312-.078-.842-.471-1.087-.143-.087-.198-.291-.256-.469-.04-.14-.11-.175-.264-.205-.353-.06-.45-.256-.252-.554.233-.354.145-.671.021-1.016-.107.426-.25.84-.35 1.258-.058.251-.188.418-.37.37-.31-.076-.465.078-.617.318a.18.18 0 0 1-.224.078c-.123-.054-.128-.18-.113-.291.056-.443.181-.889.504-1.154.213-.176.317-.28.231-.585-.056-.21-.048-.448.176-.605.272-.193-.029-.554.185-.824.225-.275.046-.535-.204-.74-.18-.141-.184-.403-.171-.636.016-.365-.04-.67-.346-.895-.218-.16-.326-.415-.07-.741-.32.048-.458.464-.697.198-.208-.215-.225-.548-.138-.84.103-.346.22-.686.335-1.022.086-.251.172-.417.05-.676a.524.524 0 0 1 .055-.58c.085-.106.164-.211.156-.366-.023-.37.167-.503.46-.482.262.024.507.343.43.648-.08.32.06.583.055.873-.006.151.029.271.118.376.179.214.274.433.142.738-.041.104.043.268.2.336.167-.328.144-.646-.006-.98-.113-.245-.204-.503-.21-.792-.005-.384.076-.466.436-.425.22.023.445.083.698-.057-.12-.353-.418-.27-.62-.353-.15-.062-.334-.026-.493-.072-.157-.042-.284-.226-.187-.364.219-.314.182-.769.491-1.018.141-.115.212-.285.266-.464.082-.282-.162-.658-.378-.538-.48.251-.787-.07-1.114-.287-.225.073-.116.244-.133.36-.026.211-.108.367-.314.343-.195-.022-.28-.194-.283-.397-.006-.28.042-.566.243-.758.265-.255.455-.604.79-.747.042-.193-.137-.226-.176-.355-.083-.28 0-.47.258-.503.279-.032.562-.011.974-.011-.389-.183-.702-.174-.931-.388-.138-.12-.188-.297.03-.356.284-.08.27-.354.385-.554.377-.662.408-1.16-.338-1.507-.167-.076-.186-.331.023-.424.29-.135.402-.367.47-.673.104-.478.113-.475.582-.435.083.01.162 0 .235 0 .068-.169-.047-.155-.11-.188-.145-.076-.368-.156-.238-.368.12-.202.367-.266.556-.088.202.195.395.432.344.773-.066.413-.071.82.028 1.228.077.315-.064.545-.233.747-.12.15-.234.239-.02.418.118.096.118.286.04.448-.076.151-.004.211.114.24.11.03.253.01.254-.11.012-.4.276-.78.059-1.196-.184-.352-.131-.663.191-.898.116-.083.293-.173.14-.363-.196-.258-.089-.46.04-.686.196-.339.336-.697.164-1.105-.027-.076-.033-.204.007-.273.416-.74.33-1.59.451-2.395.032-.23.238-.299.37-.507-.32-.181-.562-.382-.312-.802.076-.131-.025-.26-.136-.34-.107-.075-.201-.032-.274.069-.015.016-.035.033-.045.049-.136.296-.573.2-.633.465-.06.258.1.573.156.866.014.065.023.18-.007.2-.533.404-.208.991-.257 1.493-.016.184-.016.355-.094.532-.226.52-.393.617-.868.418-.4-.17-.512-.429-.347-.943.152-.467.196-.933.212-1.427.018-.592.041-1.21.545-1.612.098-.082.13-.17.067-.29-.316-.626-.14-1.266-.054-1.898.04-.293.092-.592.092-.895 0-.474.07-.913.39-1.272.165-.19.195-.449.204-.711a3.993 3.993 0 0 0-.18-1.29c-.04-.136-.149-.277-.125-.39.155-.775-.159-1.496-.162-2.254-.002-.413.051-.785.506-.903.241-.067.205-.323.187-.522-.029-.273.008-.498.244-.654.195-.125.242-.359.301-.581.2-.782.425-1.542.785-2.26.233-.46.346-.985.45-1.505.1-.493.295-.974.372-1.454.134-.83.413-1.653.354-2.505-.065-.962-.194-1.926-.288-2.887-.064-.625-.09-1.218.324-1.765.267-.356.177-.86.036-1.268-.184-.523-.172-.978.135-1.43.165-.245.206-.553.259-.842.166-.906.314-1.809.617-2.675.152-.46.218-.987.1-1.501a1.42 1.42 0 0 1 .153-1.069c.16-.263.183-.551.178-.856-.002-.763.005-1.527.005-2.29 0-.139.012-.285-.03-.409-.142-.414-.077-.772.182-1.092.167-.201.225-.441.215-.706-.026-.441.022-.876.122-1.305.115-.482.096-.951-.01-1.434-.04-.176-.09-.372-.06-.54.225-1.246-.196-2.427-.27-3.64-.037-.537-.227-.981-.71-1.206-.178-.084-.297-.251-.414-.414a5.35 5.35 0 0 0-2.115-1.766c-1.207-.56-2.333-1.305-3.45-2.052-.852-.556-1.498-1.382-2.151-2.19-.195-.242-.268-.531-.136-.837.142-.336.072-.629-.082-.917-.458-.878-.994-1.705-1.394-2.617a.676.676 0 0 0-.208-.255c-.333-.242-.419-.618-.472-1.013-.031-.227-.031-.471-.148-.666-.478-.776-.673-1.682-1.057-2.502-.078-.16-.185-.33-.201-.504-.072-.673-.414-1.148-.862-1.548-.226-.192-.352-.46-.438-.744-.218-.712-.633-1.232-1.175-1.657-.255-.195-.484-.434-.746-.63-.266-.205-.454-.406-.2-.782.096-.138.065-.303-.03-.448-.038-.056-.082-.109-.112-.173-.544-1.112-.48-1.61.337-2.505a6.749 6.749 0 0 1 1.065-.958c.471-.34.536-.614.342-1.279-.038.002-.09-.008-.115.016-.18.132-.321.423-.587.221-.287-.213-.64-.324-.71-.806-.086-.58.019-1.15.023-1.723 0-.086.03-.22.081-.25.622-.339.508-1.18.93-1.667.185-.213.087-.53.102-.8.023-.524.075-.653.499-.721.42-.072.67-.462 1.055-.571.08-.024.157-.119.142-.211-.056-.392.07-.663.392-.85.146-.087.09-.292.117-.445.126-.64.28-.827.866-.891.406-.04.665-.228.76-.672.094-.453.444-.708.654-1.076-.53-.389-.535-.389-.418-1.06a2.256 2.256 0 0 0-.005-.821 5.481 5.481 0 0 1-.03-1.495c.06-.592.07-1.221-.383-1.806-.468-.605-.4-1.02.211-1.5.492-.386.51-.458.273-1.074-.023-.066-.06-.127-.078-.187-.036-.139-.047-.284.078-.374.11-.075.195.031.277.097.186.138.264.409.545.571-.142-.6.154-.893.522-1.173.369-.286.547-.814 1.004-1.011.122-.05.139-.22.163-.357.033-.225.076-.454.098-.687.098-.973.648-1.547 1.515-1.52.272.011.479.011.614-.303.101-.243.344-.254.55-.233.568.057 1.062-.126 1.54-.453.156-.106.336-.186.51-.254.284-.112.498-.273.67-.57.31-.547.806-.708 1.225-.472.44.25.503.61.156.988-.12.129-.254.26-.404.324-.33.134-.347.346-.186.642.086.154.17.313.286.528.668-.522 1.372-.893 2.223-.987-.142-.263-.495-.181-.49-.507a.974.974 0 0 1 .206-.57c.22-.28.481-.256.667.053.024.044.053.085.055.125.093.758.6.91 1.156.995.209.033.409.1.607.17.275.094.441.293.54.608.237.752.247.732.926.643.576-.073 1.156-.113 1.738-.155.349-.032.623.07.863.407.431.615 1.045.434 1.618.328.33-.058.586-.362.94-.336.06.003.096-.04.07-.063-.224-.16-.158-.286.04-.392.156-.084.321-.084.486-.084.687 0 1.377-.005 2.062.001.222 0 .46-.008.626.263-.277.4-.702.294-1.18.388.322.196.507.404.673.633.11.153.26.224.436.236.403.029.744.252 1.105.425.78.378 1.099.996.947 1.907.064.025.116.065.134.05.488-.357.87-.113 1.359.112.609.286 1.04.736 1.501 1.2.266.27.48.575.491 1.002.008.2.053.392.266.402.79.03 1.164.738 1.649 1.252a.938.938 0 0 0 .562.316c.666.16 1.309.091 1.978.017.844-.096 1.677-.073 2.487.396.767.442 1.64.647 2.351 1.226.354.284.65.689 1.033.884.792.4 1.123 1.068 1.254 1.982.086.603.335 1.183.494 1.784.101.38.28.67.65.752.338.068.38.297.292.613-.122.415-.178.857-.516 1.157-.088.074-.116.233-.167.357.366-.092.641.024.81.416zm-1.73.43c.512.025.774-.173.822-.667.008-.059.054-.11.086-.17-.363.165-.621.462-.908.837zm-31.664 107.49a.708.708 0 0 1-.002-.005.44.44 0 0 0-.013-.002l.008.006.007.002zm-.907-1.384c-.413.708.39.996.35 1.583.197-.109.347-.233.542-.206-.433-.352-.985-.595-.892-1.377zm1.873 2.086c.095.092.23-.064.253-.212.042-.334.326-.53.36-.872.014-.133.108-.263.25-.276.17-.01.193.155.21.286.054.397.238.788.062 1.211-.093.204.078.244.172.273.157.054.236-.049.211-.224-.023-.21-.068-.408-.094-.617-.07-.506-.037-.582.368-.825.165-.097.343-.166.507-.255.094-.053.177-.138.134-.275-.045-.132-.164-.146-.265-.123-.14.024-.278.076-.42.12-.364.118-.613.018-.784-.319-.155-.31-.095-.805.128-1.012.07-.067.231-.03.208-.199-.016-.144-.122-.237-.24-.296-.266-.139-.44-.014-.49.383-.08.663-.224 1.314-.268 1.981-.042.592-.23.736-.721.642-.18-.033-.363-.061-.547-.092.202.433.67.416.966.701zm-.68-125.746c-.642.568-.679.852-.21 1.538.087.128.14.282.223.414.163.277.359.29.529.007.22-.368.166-.747-.022-1.107-.158-.292-.344-.57-.52-.852zm-.968 123.403c.563.163 1.33-.258 1.459-.71a.385.385 0 0 0 .006-.202.321.321 0 0 0-.112-.154c-.06-.041-.113 0-.147.065-.275.45-.687.715-1.206 1.001zm-.744-1.746c.142.182.223.615.441.436.361-.289.764-.242 1.236-.336-.614-.387-1.151.285-1.677-.1zm-2.051-16.32c.178-.239.717-.069.573-.632-.076-.3-.304-.21-.537-.225.064.319.062.587-.036.856zm19.531 13.76c.291.222.693.169.825.643.14-.115.221-.18.301-.253.364-.318.362-.318.033-.717a.663.663 0 0 1-.13-.23c-.047-.148-.024-.323.149-.267.595.196 1.18.066 1.772.011.22-.023.394-.05.567-.198.076-.067.188-.123.282-.116.491.033.91.341 1.364.52.261.1.227.685-.016.882-.218.171-.437.371-.711.409-.218.025-.426.04-.399.375 0 .018-.02.064-.021.059-.46-.125-.5.49-.873.58-.5.12-.496.166-.772-.312-.278-.489-.34-.499-.757-.153-.586.481-.79.456-1.242-.15-.117-.16-.242-.32-.347-.482-.106-.162-.101-.169-.025-.6z"/></g></g></svg>