<svg xmlns="http://www.w3.org/2000/svg" width="60" height="69" viewBox="0 0 60 69"><g><g><path fill="#00b1ff" d="M18.18 56.976v10.5c0 .84-.68 1.524-1.52 1.524H1.52A1.522 1.522 0 0 1 0 67.475v-10.5c0-.84.68-1.523 1.519-1.523H4.51v-2.649c0-1.2.973-2.176 2.17-2.176h4.82c1.196 0 2.17.976 2.17 2.176v2.65h2.99a1.52 1.52 0 0 1 1.52 1.523zm-6.87-3.983H6.87v2.46h4.44zM30.516-.002c3.125 0 5.66 2.544 5.66 5.68 0 3.137-2.535 5.68-5.66 5.68-3.126 0-5.66-2.543-5.66-5.68 0-3.136 2.534-5.68 5.66-5.68zM60 45.598v18.859c0 .908-.734 1.644-1.639 1.644h-1.217v1.776c0 .62-.5 1.122-1.118 1.122a1.12 1.12 0 0 1-1.117-1.122v-1.776H50.09v1.776c0 .62-.5 1.122-1.118 1.122a1.12 1.12 0 0 1-1.117-1.122v-1.776h-1.218A1.641 1.641 0 0 1 45 64.457V45.598a1.64 1.64 0 0 1 1.638-1.643h1.218v-7.28h-1a.541.541 0 0 1-.54-.541V34.77l-6.175-3.95a2.74 2.74 0 0 1-1.264-2.293l-.053-8.878a.572.572 0 0 0-1.143.02c.002 26.648.06 3.13.06 46.041A3.284 3.284 0 0 1 34.462 69a3.283 3.283 0 0 1-3.277-3.29V39.428H29.77V65.71A3.284 3.284 0 0 1 26.493 69a3.283 3.283 0 0 1-3.277-3.29l-.001-46.06a.53.53 0 0 0-.526-.53.529.529 0 0 0-.529.527l-.1 20.131a2.736 2.736 0 0 1-2.731 2.727h-.014a2.736 2.736 0 0 1-2.717-2.754l.1-20.132c.019-3.557 2.918-6.452 6.463-6.452h14.662c3.545 0 6.444 2.895 6.462 6.452l.045 7.383 5.605 3.583a2.745 2.745 0 0 1 1.113 3.2h7.096c.298 0 .54.244.54.543v1.806a.541.541 0 0 1-.54.542h-1v7.279h1.218A1.64 1.64 0 0 1 60 45.598zm-5.091-1.643v-7.28H50.09v7.28z"/></g></g></svg>